<svg width="36" height="37" viewBox="0 0 36 37" fill="none" xmlns="http://www.w3.org/2000/svg">
<path d="M29.1879 10.5452C29.0394 10.5452 28.8839 10.4986 28.7212 10.4053C28.5574 10.312 28.4458 10.1721 28.3864 9.98562L27.2288 7.37422L24.7355 6.16179C24.5574 6.09961 24.4238 5.98272 24.3348 5.81111C24.2457 5.64075 24.2012 5.47785 24.2012 5.32241C24.2012 5.16697 24.2457 5.00344 24.3348 4.83184C24.4238 4.66147 24.5574 4.54521 24.7355 4.48303L27.2288 3.27059L28.3864 0.659195C28.4458 0.472666 28.5574 0.33277 28.7212 0.239506C28.8839 0.146242 29.0394 0.0996094 29.1879 0.0996094C29.3363 0.0996094 29.4924 0.146242 29.6562 0.239506C29.8189 0.33277 29.9299 0.472666 29.9893 0.659195L31.1469 3.27059L33.6402 4.48303C33.8183 4.54521 33.9519 4.66147 34.041 4.83184C34.13 5.00344 34.1745 5.16697 34.1745 5.32241C34.1745 5.47785 34.13 5.64075 34.041 5.81111C33.9519 5.98272 33.8183 6.09961 33.6402 6.16179L31.1469 7.37422L29.9893 9.98562C29.9299 10.1721 29.8189 10.312 29.6562 10.4053C29.4924 10.4986 29.3363 10.5452 29.1879 10.5452ZM32.7498 23.6488C32.6013 23.6488 32.4529 23.6022 32.3045 23.5089C32.1561 23.4157 32.0374 23.2913 31.9483 23.1359L31.325 21.7369L29.9893 21.0841C29.9002 21.0219 29.737 20.7421 29.4995 20.2447C29.4995 20.0892 29.544 19.9338 29.6331 19.7784C29.7221 19.6229 29.8409 19.4986 29.9893 19.4053L31.325 18.7525L31.9483 17.3535C32.0077 17.2602 32.2748 17.0892 32.7498 16.8405C32.8982 16.8405 33.0466 16.8872 33.195 16.9804C33.3434 17.0737 33.4621 17.1981 33.5512 17.3535L34.1745 18.7525L35.5102 19.4053C35.5993 19.4675 35.7625 19.7473 36 20.2447C36 20.4001 35.9555 20.5556 35.8664 20.711C35.7774 20.8664 35.6586 20.9908 35.5102 21.0841L34.1745 21.7369L33.5512 23.1359C33.4918 23.2291 33.2247 23.4001 32.7498 23.6488ZM11.1557 36.0996C10.7105 36.0996 10.3246 35.9442 9.99807 35.6333C9.67157 35.3224 9.47863 34.9338 9.41927 34.4675L9.06307 31.7162C8.82561 31.6229 8.59587 31.4986 8.37385 31.3431C8.15063 31.1877 7.96482 31.0323 7.81641 30.8768L5.3676 31.996C4.95204 32.2136 4.52936 32.2447 4.09956 32.0892C3.66857 31.9338 3.33434 31.6385 3.09688 31.2032L0.247355 25.9804C0.00989416 25.5763 -0.0565947 25.1411 0.0478879 24.6747C0.151183 24.2084 0.380926 23.8354 0.737117 23.5556L2.82974 21.9234V20.4312L0.737117 18.7991C0.380926 18.5193 0.151183 18.1462 0.0478879 17.6799C-0.0565947 17.2136 0.00989416 16.7784 0.247355 16.3742L3.09688 11.1514C3.33434 10.7162 3.66857 10.4209 4.09956 10.2654C4.52936 10.11 4.95204 10.1411 5.3676 10.3587L7.81641 11.4778C7.96482 11.3224 8.15063 11.167 8.37385 11.0115C8.59587 10.8561 8.82561 10.7317 9.06307 10.6385L9.41927 7.88717C9.47863 7.42085 9.67157 7.03225 9.99807 6.72137C10.3246 6.41049 10.7105 6.25505 11.1557 6.25505H16.9438C17.389 6.25505 17.7749 6.41049 18.1014 6.72137C18.4279 7.03225 18.6209 7.42085 18.6802 7.88717L19.0364 10.6385C19.2739 10.7317 19.5042 10.8561 19.7274 11.0115C19.9494 11.167 20.1347 11.3224 20.2831 11.4778L22.7319 10.3587C23.1474 10.1411 23.5707 10.11 24.0017 10.2654C24.4315 10.4209 24.7651 10.7162 25.0026 11.1514L27.8521 16.3742C28.0896 16.7784 28.1567 17.2136 28.0534 17.6799C27.9489 18.1462 27.7186 18.5193 27.3624 18.7991L25.2698 20.4312V21.9234L27.3624 23.5556C27.7186 23.8354 27.9489 24.2084 28.0534 24.6747C28.1567 25.1411 28.0896 25.5763 27.8521 25.9804L25.0026 31.2032C24.7651 31.6385 24.4315 31.9338 24.0017 32.0892C23.5707 32.2447 23.1474 32.2136 22.7319 31.996L20.2831 30.8768C20.1347 31.0323 19.9494 31.1877 19.7274 31.3431C19.5042 31.4986 19.2739 31.6229 19.0364 31.7162L18.6802 34.4675C18.6209 34.9338 18.4279 35.3224 18.1014 35.6333C17.7749 35.9442 17.389 36.0996 16.9438 36.0996H11.1557ZM14.0497 26.7732C15.5339 26.7732 16.7954 26.2291 17.8343 25.1411C18.8732 24.053 19.3926 22.7317 19.3926 21.1773C19.3926 19.6229 18.8732 18.3017 17.8343 17.2136C16.7954 16.1255 15.5339 15.5815 14.0497 15.5815C12.5656 15.5815 11.3041 16.1255 10.2652 17.2136C9.22633 18.3017 8.70688 19.6229 8.70688 21.1773C8.70688 22.7317 9.22633 24.053 10.2652 25.1411C11.3041 26.2291 12.5656 26.7732 14.0497 26.7732ZM14.0497 23.0426C13.5451 23.0426 13.1219 22.8635 12.7799 22.5054C12.4392 22.1485 12.2688 21.7058 12.2688 21.1773C12.2688 20.6488 12.4392 20.2055 12.7799 19.8474C13.1219 19.4905 13.5451 19.312 14.0497 19.312C14.5543 19.312 14.9776 19.4905 15.3196 19.8474C15.6603 20.2055 15.8307 20.6488 15.8307 21.1773C15.8307 21.7058 15.6603 22.1485 15.3196 22.5054C14.9776 22.8635 14.5543 23.0426 14.0497 23.0426ZM12.714 32.369H15.3855L15.7417 29.0115C16.6024 28.7628 17.3374 28.4445 17.9465 28.0565C18.5544 27.6673 19.1551 27.1462 19.7488 26.4934L22.6874 27.8924L23.934 25.5608L21.3517 23.5089C21.5891 22.7939 21.7078 22.0167 21.7078 21.1773C21.7078 20.338 21.5891 19.5608 21.3517 18.8457L23.934 16.7939L22.6874 14.4623L19.7488 15.8613C19.1551 15.2084 18.5544 14.6874 17.9465 14.2982C17.3374 13.9102 16.6024 13.5918 15.7417 13.3431L15.3855 9.98562H12.714L12.3578 13.3431C11.497 13.5918 10.7627 13.9102 10.1548 14.2982C9.54571 14.6874 8.94434 15.2084 8.35069 15.8613L5.41212 14.4623L4.16545 16.7939L6.74784 18.8457C6.51037 19.5608 6.38452 20.338 6.37027 21.1773C6.35484 22.0167 6.48069 22.7939 6.74784 23.5089L4.16545 25.5608L5.41212 27.8924L8.35069 26.4934C8.94434 27.1462 9.54571 27.6673 10.1548 28.0565C10.7627 28.4445 11.497 28.7628 12.3578 29.0115L12.714 32.369Z" fill="#FFC107"/>
</svg>
