<svg width="30" height="30" viewBox="0 0 30 30" fill="none" xmlns="http://www.w3.org/2000/svg">
<path fill-rule="evenodd" clip-rule="evenodd" d="M10.6028 5.98616C13.1354 6.59288 15.052 8.53084 15.4848 10.9234C15.5345 11.1969 15.7898 11.3907 16.0793 11.3907C16.1125 11.3907 16.146 11.3883 16.1799 11.3829C16.5088 11.3316 16.7306 11.0427 16.6754 10.7378C16.1633 7.90968 13.8982 5.61869 10.9041 4.90179C10.5811 4.82425 10.2521 5.00436 10.1689 5.30417C10.0861 5.60329 10.2801 5.90888 10.6028 5.98616Z" fill="#0078D4"/>
<path fill-rule="evenodd" clip-rule="evenodd" d="M19.2011 22.695C18.7696 22.2649 18.5317 21.6931 18.5317 21.0852C18.5317 20.6718 18.6419 20.2751 18.8478 19.9284L16.981 18.0692C15.2641 19.5904 13.0042 20.5162 10.5308 20.5162C5.17385 20.5162 0.815491 16.1757 0.815491 10.8406C0.815491 5.50559 5.17385 1.16504 10.5308 1.16504C15.8877 1.16504 20.2461 5.50559 20.2461 10.8406C20.2461 13.3039 19.3166 15.5542 17.7891 17.2643L19.6563 19.1235C20.0044 18.9182 20.4024 18.8084 20.8174 18.8084C21.4282 18.8084 22.0023 19.0453 22.4338 19.4754L28.1487 25.1669C28.5805 25.5969 28.8184 26.1684 28.8184 26.7767C28.8184 27.3846 28.5805 27.9564 28.1487 28.3865C27.7033 28.8304 27.1179 29.052 26.5322 29.052C25.947 29.052 25.3617 28.8304 24.9159 28.3865L19.2011 22.695ZM10.5307 2.30371C5.80413 2.30371 1.9585 6.13354 1.9585 10.8409C1.9585 15.5482 5.80413 19.3781 10.5307 19.3781C15.2575 19.3781 19.103 15.5482 19.103 10.8409C19.103 6.13354 15.2575 2.30371 10.5307 2.30371ZM20.0093 21.8905L25.7241 27.582C26.1699 28.026 26.895 28.0256 27.3408 27.582C27.5564 27.367 27.6753 27.0811 27.6753 26.7771C27.6753 26.4732 27.5564 26.1873 27.3408 25.9722L21.626 20.2808C21.41 20.0657 21.123 19.9473 20.8178 19.9473C20.5122 19.9473 20.2252 20.0657 20.0093 20.2808C19.7934 20.4958 19.6748 20.7817 19.6748 21.0856C19.6748 21.3896 19.7934 21.6755 20.0093 21.8905Z" fill="#0078D4"/>
<path d="M19.2011 22.695L18.8483 23.0493L18.8481 23.0491L19.2011 22.695ZM18.8478 19.9284L19.2006 19.5741L19.4764 19.8488L19.2777 20.1836L18.8478 19.9284ZM16.981 18.0692L16.6494 17.695L17.001 17.3835L17.3338 17.715L16.981 18.0692ZM17.7891 17.2643L17.4363 17.6187L17.1007 17.2845L17.4162 16.9313L17.7891 17.2643ZM19.6563 19.1235L19.9103 19.5542L19.5774 19.7505L19.3035 19.4778L19.6563 19.1235ZM22.4338 19.4754L22.081 19.8297L22.0808 19.8295L22.4338 19.4754ZM28.1487 25.1669L27.7958 25.5211L28.1487 25.1669ZM28.1487 28.3865L27.7957 28.0323L27.7958 28.0322L28.1487 28.3865ZM24.9159 28.3865L25.2688 28.0322L24.9159 28.3865ZM20.0093 21.8905L19.6565 22.2448L20.0093 21.8905ZM25.7241 27.582L25.3713 27.9363L25.7241 27.582ZM27.3408 27.582L27.6939 27.936L27.6935 27.9364L27.3408 27.582ZM27.3408 25.9722L27.6936 25.6179L27.6939 25.6182L27.3408 25.9722ZM21.626 20.2808L21.9788 19.9265L21.626 20.2808ZM18.8481 23.0491C18.3228 22.5255 18.0317 21.8264 18.0317 21.0852H19.0317C19.0317 21.5598 19.2164 22.0043 19.5541 22.3409L18.8481 23.0491ZM18.0317 21.0852C18.0317 20.5821 18.1661 20.0972 18.4178 19.6732L19.2777 20.1836C19.1178 20.4531 19.0317 20.7616 19.0317 21.0852H18.0317ZM18.4949 20.2827L16.6281 18.4235L17.3338 17.715L19.2006 19.5741L18.4949 20.2827ZM17.3125 18.4435C15.508 20.0423 13.1312 21.0162 10.5308 21.0162V20.0162C12.8771 20.0162 15.0202 19.1384 16.6494 17.695L17.3125 18.4435ZM10.5308 21.0162C4.89965 21.0162 0.315491 16.4537 0.315491 10.8406H1.31549C1.31549 15.8976 5.44806 20.0162 10.5308 20.0162V21.0162ZM0.315491 10.8406C0.315491 5.22751 4.89965 0.665039 10.5308 0.665039V1.66504C5.44806 1.66504 1.31549 5.78366 1.31549 10.8406H0.315491ZM10.5308 0.665039C16.162 0.665039 20.7461 5.22751 20.7461 10.8406H19.7461C19.7461 5.78366 15.6135 1.66504 10.5308 1.66504V0.665039ZM20.7461 10.8406C20.7461 13.4322 19.7676 15.7998 18.162 17.5974L17.4162 16.9313C18.8655 15.3087 19.7461 13.1756 19.7461 10.8406H20.7461ZM18.1419 16.91L20.0091 18.7692L19.3035 19.4778L17.4363 17.6187L18.1419 16.91ZM19.4023 18.6928C19.8276 18.4421 20.3133 18.3084 20.8174 18.3084V19.3084C20.4915 19.3084 20.1812 19.3944 19.9103 19.5542L19.4023 18.6928ZM20.8174 18.3084C21.5601 18.3084 22.2613 18.5975 22.7868 19.1213L22.0808 19.8295C21.7434 19.4931 21.2963 19.3084 20.8174 19.3084V18.3084ZM22.7866 19.1211L28.5015 24.8126L27.7958 25.5211L22.081 19.8297L22.7866 19.1211ZM28.5015 24.8126C29.0272 25.3362 29.3184 26.035 29.3184 26.7767H28.3184C28.3184 26.3018 28.1337 25.8577 27.7958 25.5211L28.5015 24.8126ZM29.3184 26.7767C29.3184 27.5179 29.0273 28.2171 28.5015 28.7407L27.7958 28.0322C28.1337 27.6957 28.3184 27.2512 28.3184 26.7767H29.3184ZM28.5016 28.7406C27.958 29.2824 27.2438 29.552 26.5322 29.552V28.552C26.992 28.552 27.4485 28.3784 27.7957 28.0323L28.5016 28.7406ZM26.5322 29.552C25.821 29.552 25.1069 29.2823 24.5631 28.7407L25.2688 28.0322C25.6164 28.3784 26.073 28.552 26.5322 28.552V29.552ZM24.5631 28.7407L18.8483 23.0493L19.5539 22.3407L25.2688 28.0322L24.5631 28.7407ZM10.5307 2.80371C6.07834 2.80371 2.4585 6.41161 2.4585 10.8409H1.4585C1.4585 5.85546 5.52993 1.80371 10.5307 1.80371V2.80371ZM2.4585 10.8409C2.4585 15.2701 6.07834 18.8781 10.5307 18.8781V19.8781C5.52992 19.8781 1.4585 15.8263 1.4585 10.8409H2.4585ZM10.5307 18.8781C14.9832 18.8781 18.603 15.2701 18.603 10.8409H19.603C19.603 15.8263 15.5317 19.8781 10.5307 19.8781V18.8781ZM18.603 10.8409C18.603 6.41161 14.9832 2.80371 10.5307 2.80371V1.80371C15.5317 1.80371 19.603 5.85547 19.603 10.8409H18.603ZM20.3621 21.5363L26.077 27.2277L25.3713 27.9363L19.6565 22.2448L20.3621 21.5363ZM26.077 27.2277C26.3274 27.4772 26.7372 27.4772 26.9881 27.2276L27.6935 27.9364C27.0528 28.5739 26.0123 28.5747 25.3713 27.9363L26.077 27.2277ZM26.9877 27.228C27.1095 27.1065 27.1753 26.9478 27.1753 26.7771H28.1753C28.1753 27.2144 28.0032 27.6275 27.6939 27.936L26.9877 27.228ZM27.1753 26.7771C27.1753 26.6064 27.1095 26.4478 26.9877 26.3262L27.6939 25.6182C28.0032 25.9267 28.1753 26.3399 28.1753 26.7771H27.1753ZM26.988 26.3265L21.2731 20.635L21.9788 19.9265L27.6936 25.6179L26.988 26.3265ZM21.2731 20.635C21.1511 20.5135 20.991 20.4473 20.8178 20.4473V19.4473C21.255 19.4473 21.669 19.6179 21.9788 19.9265L21.2731 20.635ZM20.8178 20.4473C20.6442 20.4473 20.4841 20.5135 20.3621 20.635L19.6565 19.9265C19.9663 19.6179 20.3802 19.4473 20.8178 19.4473V20.4473ZM20.3621 20.635C20.2404 20.7562 20.1748 20.9146 20.1748 21.0856H19.1748C19.1748 20.6488 19.3463 20.2354 19.6565 19.9265L20.3621 20.635ZM20.1748 21.0856C20.1748 21.2567 20.2404 21.4151 20.3621 21.5363L19.6565 22.2448C19.3463 21.9359 19.1748 21.5225 19.1748 21.0856H20.1748Z" fill="#0078D4"/>
</svg>
