<svg width="28" height="28" viewBox="0 0 28 28" fill="none" xmlns="http://www.w3.org/2000/svg">
<path d="M11.7789 5.81913H17.186C17.186 5.10211 16.9011 4.41446 16.3941 3.90746C15.8871 3.40045 15.1995 3.11562 14.4825 3.11562C13.7654 3.11562 13.0778 3.40045 12.5708 3.90746C12.0638 4.41446 11.7789 5.10211 11.7789 5.81913ZM9.07544 5.81913C9.07544 4.3851 9.64511 3.0098 10.6591 1.99579C11.6731 0.981776 13.0484 0.412109 14.4825 0.412109C15.9165 0.412109 17.2918 0.981776 18.3058 1.99579C19.3198 3.0098 19.8895 4.3851 19.8895 5.81913H26.6482C27.0068 5.81913 27.3506 5.96154 27.6041 6.21505C27.8576 6.46855 28 6.81237 28 7.17088C28 7.52939 27.8576 7.87321 27.6041 8.12672C27.3506 8.38022 27.0068 8.52264 26.6482 8.52264H25.456L24.2583 22.4998C24.1432 23.8495 23.5257 25.1068 22.5279 26.0229C21.5301 26.9391 20.2248 27.4474 18.8703 27.4472H10.0947C8.74008 27.4474 7.43478 26.9391 6.43702 26.0229C5.43925 25.1068 4.82171 23.8495 4.70657 22.4998L3.50891 8.52264H2.31667C1.95816 8.52264 1.61434 8.38022 1.36083 8.12672C1.10733 7.87321 0.964912 7.52939 0.964912 7.17088C0.964912 6.81237 1.10733 6.46855 1.36083 6.21505C1.61434 5.96154 1.95816 5.81913 2.31667 5.81913H9.07544ZM18.5377 13.9297C18.5377 13.5711 18.3953 13.2273 18.1418 12.9738C17.8883 12.7203 17.5445 12.5779 17.186 12.5779C16.8275 12.5779 16.4836 12.7203 16.2301 12.9738C15.9766 13.2273 15.8342 13.5711 15.8342 13.9297V19.3367C15.8342 19.6952 15.9766 20.039 16.2301 20.2925C16.4836 20.546 16.8275 20.6884 17.186 20.6884C17.5445 20.6884 17.8883 20.546 18.1418 20.2925C18.3953 20.039 18.5377 19.6952 18.5377 19.3367V13.9297ZM11.7789 12.5779C12.1375 12.5779 12.4813 12.7203 12.7348 12.9738C12.9883 13.2273 13.1307 13.5711 13.1307 13.9297V19.3367C13.1307 19.6952 12.9883 20.039 12.7348 20.2925C12.4813 20.546 12.1375 20.6884 11.7789 20.6884C11.4204 20.6884 11.0766 20.546 10.8231 20.2925C10.5696 20.039 10.4272 19.6952 10.4272 19.3367V13.9297C10.4272 13.5711 10.5696 13.2273 10.8231 12.9738C11.0766 12.7203 11.4204 12.5779 11.7789 12.5779ZM7.39926 22.27C7.45685 22.945 7.76582 23.5739 8.26499 24.032C8.76415 24.4901 9.41714 24.7441 10.0947 24.7437H18.8703C19.5473 24.7434 20.1996 24.4891 20.6982 24.0311C21.1968 23.573 21.5054 22.9446 21.5629 22.27L22.7417 8.52264H6.22324L7.39926 22.27Z" fill="#0078D4"/>
</svg>
