<svg width="36" height="37" viewBox="0 0 36 37" fill="none" xmlns="http://www.w3.org/2000/svg">
<path d="M10.26 25.8396C10.59 26.1696 11.01 26.3346 11.52 26.3346C12.03 26.3346 12.45 26.1696 12.78 25.8396L18 20.6196L23.265 25.8846C23.595 26.2146 24.0078 26.3718 24.5034 26.3562C24.9978 26.3418 25.41 26.1696 25.74 25.8396C26.07 25.5096 26.235 25.0896 26.235 24.5796C26.235 24.0696 26.07 23.6496 25.74 23.3196L20.52 18.0996L25.785 12.8346C26.115 12.5046 26.2722 12.0918 26.2566 11.5962C26.2422 11.1018 26.07 10.6896 25.74 10.3596C25.41 10.0296 24.99 9.86461 24.48 9.86461C23.97 9.86461 23.55 10.0296 23.22 10.3596L18 15.5796L12.735 10.3146C12.405 9.98461 11.9928 9.82681 11.4984 9.84121C11.0028 9.85681 10.59 10.0296 10.26 10.3596C9.93 10.6896 9.765 11.1096 9.765 11.6196C9.765 12.1296 9.93 12.5496 10.26 12.8796L15.48 18.0996L10.215 23.3646C9.885 23.6946 9.7278 24.1068 9.7434 24.6012C9.7578 25.0968 9.93 25.5096 10.26 25.8396ZM18 36.0996C15.51 36.0996 13.17 35.6268 10.98 34.6812C8.79 33.7368 6.885 32.4546 5.265 30.8346C3.645 29.2146 2.3628 27.3096 1.4184 25.1196C0.4728 22.9296 0 20.5896 0 18.0996C0 15.6096 0.4728 13.2696 1.4184 11.0796C2.3628 8.88961 3.645 6.98461 5.265 5.36461C6.885 3.74461 8.79 2.46181 10.98 1.51621C13.17 0.571809 15.51 0.0996094 18 0.0996094C20.49 0.0996094 22.83 0.571809 25.02 1.51621C27.21 2.46181 29.115 3.74461 30.735 5.36461C32.355 6.98461 33.6372 8.88961 34.5816 11.0796C35.5272 13.2696 36 15.6096 36 18.0996C36 20.5896 35.5272 22.9296 34.5816 25.1196C33.6372 27.3096 32.355 29.2146 30.735 30.8346C29.115 32.4546 27.21 33.7368 25.02 34.6812C22.83 35.6268 20.49 36.0996 18 36.0996ZM18 32.4996C21.99 32.4996 25.3878 31.0974 28.1934 28.293C30.9978 25.4874 32.4 22.0896 32.4 18.0996C32.4 14.1096 30.9978 10.7118 28.1934 7.90621C25.3878 5.10181 21.99 3.69961 18 3.69961C14.01 3.69961 10.6128 5.10181 7.8084 7.90621C5.0028 10.7118 3.6 14.1096 3.6 18.0996C3.6 22.0896 5.0028 25.4874 7.8084 28.293C10.6128 31.0974 14.01 32.4996 18 32.4996Z" fill="#FF4593"/>
</svg>
