<svg width="30" height="23" viewBox="0 0 30 23" fill="none" xmlns="http://www.w3.org/2000/svg">
<path d="M14.754 6.98988C15.8212 6.98988 16.8446 7.45621 17.5993 8.28628C18.3539 9.11635 18.7778 10.2422 18.7778 11.4161C18.7778 12.59 18.3539 13.7158 17.5993 14.5459C16.8446 15.3759 15.8212 15.8423 14.754 15.8423C13.6868 15.8423 12.6633 15.3759 11.9087 14.5459C11.1541 13.7158 10.7302 12.59 10.7302 11.4161C10.7302 10.2422 11.1541 9.11635 11.9087 8.28628C12.6633 7.45621 13.6868 6.98988 14.754 6.98988ZM14.754 0.350586C21.4603 0.350586 27.1876 4.93908 29.508 11.4161C27.1876 17.8931 21.4603 22.4816 14.754 22.4816C8.04763 22.4816 2.3204 17.8931 0 11.4161C2.3204 4.93908 8.04763 0.350586 14.754 0.350586ZM2.92397 11.4161C4.00806 13.8509 5.69143 15.9024 7.7827 17.3372C9.87397 18.7721 12.2893 19.5327 14.754 19.5327C17.2187 19.5327 19.634 18.7721 21.7253 17.3372C23.8165 15.9024 25.4999 13.8509 26.584 11.4161C25.4999 8.98121 23.8165 6.92976 21.7253 5.49493C19.634 4.06009 17.2187 3.29944 14.754 3.29944C12.2893 3.29944 9.87397 4.06009 7.7827 5.49493C5.69143 6.92976 4.00806 8.98121 2.92397 11.4161Z" fill="#0078D4"/>
</svg>
