<svg width="10" height="8" viewBox="0 0 10 8" fill="none" xmlns="http://www.w3.org/2000/svg">
<path d="M9.47346 0.472589C9.41149 0.410104 9.33775 0.360508 9.25651 0.326662C9.17527 0.292816 9.08814 0.275391 9.00013 0.275391C8.91212 0.275391 8.82498 0.292816 8.74374 0.326662C8.66251 0.360508 8.58877 0.410104 8.5268 0.472589L3.56013 5.44592L1.47346 3.35259C1.40911 3.29043 1.33315 3.24155 1.24992 3.20875C1.16668 3.17595 1.0778 3.15986 0.988344 3.16141C0.89889 3.16296 0.810617 3.18211 0.728565 3.21777C0.646513 3.25343 0.572288 3.30491 0.510129 3.36926C0.44797 3.4336 0.399094 3.50956 0.366292 3.5928C0.333489 3.67604 0.317402 3.76492 0.31895 3.85437C0.320497 3.94383 0.339649 4.0321 0.375311 4.11415C0.410974 4.19621 0.462448 4.27043 0.526796 4.33259L3.0868 6.89259C3.14877 6.95508 3.22251 7.00467 3.30375 7.03852C3.38498 7.07236 3.47212 7.08979 3.56013 7.08979C3.64814 7.08979 3.73527 7.07236 3.81651 7.03852C3.89775 7.00467 3.97149 6.95508 4.03346 6.89259L9.47346 1.45259C9.54113 1.39016 9.59514 1.31439 9.63208 1.23006C9.66901 1.14573 9.68808 1.05466 9.68808 0.96259C9.68808 0.870522 9.66901 0.779452 9.63208 0.695119C9.59514 0.610786 9.54113 0.535018 9.47346 0.472589V0.472589Z" fill="white"/>
</svg>
