<svg width="11" height="22" viewBox="0 0 11 22" fill="none" xmlns="http://www.w3.org/2000/svg">
<path d="M9.12508 5.50033V16.042C9.12508 18.0678 7.48425 19.7087 5.45841 19.7087C3.43258 19.7087 1.79175 18.0678 1.79175 16.042V4.58366C1.79175 3.31866 2.81841 2.29199 4.08341 2.29199C5.34841 2.29199 6.37508 3.31866 6.37508 4.58366V14.2087C6.37508 14.7128 5.96258 15.1253 5.45841 15.1253C4.95425 15.1253 4.54175 14.7128 4.54175 14.2087V5.50033H3.16675V14.2087C3.16675 15.4737 4.19341 16.5003 5.45841 16.5003C6.72341 16.5003 7.75008 15.4737 7.75008 14.2087V4.58366C7.75008 2.55783 6.10925 0.916992 4.08341 0.916992C2.05758 0.916992 0.416748 2.55783 0.416748 4.58366V16.042C0.416748 18.8287 2.67175 21.0837 5.45841 21.0837C8.24508 21.0837 10.5001 18.8287 10.5001 16.042V5.50033H9.12508Z" fill="black" fill-opacity="0.54"/>
</svg>
