<svg width="21" height="26" viewBox="0 0 21 26" fill="none" xmlns="http://www.w3.org/2000/svg">
<path opacity="1" d="M15.2727 13.7882C15.2727 14.0337 15.1722 14.2692 14.9931 14.4429C14.8141 14.6165 14.5713 14.7141 14.3182 14.7141H6.68182C6.42866 14.7141 6.18586 14.6165 6.00685 14.4429C5.82784 14.2692 5.72727 14.0337 5.72727 13.7882C5.72727 13.5426 5.82784 13.3071 6.00685 13.1334C6.18586 12.9598 6.42866 12.8622 6.68182 12.8622H14.3182C14.5713 12.8622 14.8141 12.9598 14.9931 13.1334C15.1722 13.3071 15.2727 13.5426 15.2727 13.7882ZM14.3182 16.5659H6.68182C6.42866 16.5659 6.18586 16.6635 6.00685 16.8371C5.82784 17.0108 5.72727 17.2463 5.72727 17.4919C5.72727 17.7374 5.82784 17.9729 6.00685 18.1466C6.18586 18.3202 6.42866 18.4178 6.68182 18.4178H14.3182C14.5713 18.4178 14.8141 18.3202 14.9931 18.1466C15.1722 17.9729 15.2727 17.7374 15.2727 17.4919C15.2727 17.2463 15.1722 17.0108 14.9931 16.8371C14.8141 16.6635 14.5713 16.5659 14.3182 16.5659ZM21 4.5289V22.1215C20.9969 23.1028 20.5936 24.0431 19.8782 24.737C19.1628 25.431 18.1935 25.8221 17.1818 25.8252H3.81818C2.8065 25.8221 1.83716 25.431 1.1218 24.737C0.406429 24.0431 0.00314676 23.1028 0 22.1215V4.5289C0 4.03776 0.201136 3.56673 0.55916 3.21944C0.917184 2.87215 1.40277 2.67705 1.90909 2.67705H3.81818V1.75112C3.81818 1.50555 3.91875 1.27004 4.09776 1.09639C4.27677 0.922748 4.51957 0.825195 4.77273 0.825195C5.02589 0.825195 5.26868 0.922748 5.44769 1.09639C5.6267 1.27004 5.72727 1.50555 5.72727 1.75112V2.67705H9.54545V1.75112C9.54545 1.50555 9.64602 1.27004 9.82503 1.09639C10.004 0.922748 10.2468 0.825195 10.5 0.825195C10.7532 0.825195 10.996 0.922748 11.175 1.09639C11.354 1.27004 11.4545 1.50555 11.4545 1.75112V2.67705H15.2727V1.75112C15.2727 1.50555 15.3733 1.27004 15.5523 1.09639C15.7313 0.922748 15.9741 0.825195 16.2273 0.825195C16.4804 0.825195 16.7232 0.922748 16.9022 1.09639C17.0813 1.27004 17.1818 1.50555 17.1818 1.75112V2.67705H19.0909C19.5972 2.67705 20.0828 2.87215 20.4408 3.21944C20.7989 3.56673 21 4.03776 21 4.5289ZM19.0909 4.5289H17.1818V5.45482C17.1818 5.7004 17.0813 5.93591 16.9022 6.10955C16.7232 6.2832 16.4804 6.38075 16.2273 6.38075C15.9741 6.38075 15.7313 6.2832 15.5523 6.10955C15.3733 5.93591 15.2727 5.7004 15.2727 5.45482V4.5289H11.4545V5.45482C11.4545 5.7004 11.354 5.93591 11.175 6.10955C10.996 6.2832 10.7532 6.38075 10.5 6.38075C10.2468 6.38075 10.004 6.2832 9.82503 6.10955C9.64602 5.93591 9.54545 5.7004 9.54545 5.45482V4.5289H5.72727V5.45482C5.72727 5.7004 5.6267 5.93591 5.44769 6.10955C5.26868 6.2832 5.02589 6.38075 4.77273 6.38075C4.51957 6.38075 4.27677 6.2832 4.09776 6.10955C3.91875 5.93591 3.81818 5.7004 3.81818 5.45482V4.5289H1.90909V22.1215C1.90909 22.6126 2.11023 23.0837 2.46825 23.4309C2.82627 23.7782 3.31186 23.9733 3.81818 23.9733H17.1818C17.6881 23.9733 18.1737 23.7782 18.5317 23.4309C18.8898 23.0837 19.0909 22.6126 19.0909 22.1215V4.5289Z" fill="black"/>
</svg>
