<svg width="36" height="46" viewBox="0 0 36 46" fill="none" xmlns="http://www.w3.org/2000/svg">
<path d="M14.7272 29.8178L8.85268 24.0482L6.54541 26.3142L14.7272 34.3499L29.4545 19.8857L27.1472 17.6035L14.7272 29.8178Z" fill="#4DC643"/>
<path d="M32.7273 5.42104H27.8182V3.81389C27.8182 2.96141 27.4734 2.14385 26.8596 1.54105C26.2459 0.938256 25.4134 0.599609 24.5455 0.599609H11.4545C10.5866 0.599609 9.75413 0.938256 9.14038 1.54105C8.52662 2.14385 8.18182 2.96141 8.18182 3.81389V5.42104H3.27273C2.40475 5.42104 1.57231 5.75968 0.958559 6.36248C0.344804 6.96528 0 7.78284 0 8.63532V42.3853C0 43.2378 0.344804 44.0554 0.958559 44.6582C1.57231 45.261 2.40475 45.5996 3.27273 45.5996H32.7273C33.5953 45.5996 34.4277 45.261 35.0414 44.6582C35.6552 44.0554 36 43.2378 36 42.3853V8.63532C36 7.78284 35.6552 6.96528 35.0414 6.36248C34.4277 5.75968 33.5953 5.42104 32.7273 5.42104ZM11.4545 3.81389H24.5455V10.2425H11.4545V3.81389ZM32.7273 42.3853H3.27273V8.63532H8.18182V13.4568H27.8182V8.63532H32.7273V42.3853Z" fill="#4DC643"/>
</svg>
