<svg width="36" height="37" viewBox="0 0 36 37" fill="none" xmlns="http://www.w3.org/2000/svg">
<path d="M35.0478 5.92756L18.4335 0.167286C18.1516 0.0770506 17.8501 0.0770506 17.5682 0.167286L0.97123 5.92756H0.936617L0.763551 6.01757H0.746245L0.573179 6.12557C0.573179 6.14357 0.555873 6.14357 0.538566 6.16158L0.400114 6.28758L0.278968 6.43159C0.278968 6.44959 0.261662 6.44959 0.261662 6.46759L0.157823 6.6296C0.157823 6.6476 0.157823 6.6476 0.140516 6.6656L0.07129 6.82761L0.0193705 7.02562V7.07962C0.0023 7.15016 -0.00354631 7.22313 0.00206389 7.29563V21.6963C0.00206389 22.0783 0.147933 22.4445 0.407581 22.7146C0.667229 22.9847 1.01939 23.1364 1.38659 23.1364C1.75378 23.1364 2.10594 22.9847 2.36559 22.7146C2.62524 22.4445 2.77111 22.0783 2.77111 21.6963V9.29373L8.5861 11.3098C7.49365 13.1286 6.9177 15.2316 6.92468 17.3761C6.92531 19.3265 7.40202 21.2448 8.31011 22.9513C9.21821 24.6577 10.528 26.0964 12.1166 27.1326C8.81524 28.4316 5.9968 30.7894 4.0691 33.8649C3.87261 34.1881 3.80604 34.5786 3.88374 34.9524C3.96143 35.3261 4.17716 35.6531 4.48446 35.863C4.63526 35.9669 4.80439 36.0387 4.98205 36.0741C5.15971 36.1096 5.34237 36.108 5.51944 36.0695C5.69651 36.031 5.86448 35.9563 6.0136 35.8498C6.16272 35.7433 6.29004 35.6071 6.38818 35.449C7.64485 33.4356 9.36548 31.7809 11.3936 30.6353C13.4217 29.4898 15.693 28.8897 18.0009 28.8897C20.3087 28.8897 22.58 29.4898 24.6081 30.6353C26.6362 31.7809 28.3569 33.4356 29.6135 35.449C29.7399 35.6486 29.9121 35.8124 30.1145 35.9255C30.317 36.0386 30.5433 36.0976 30.7731 36.097C31.0383 36.0999 31.298 36.0183 31.5173 35.863C31.8246 35.6531 32.0403 35.3261 32.118 34.9524C32.1957 34.5786 32.1291 34.1881 31.9326 33.8649C30.0049 30.7894 27.1865 28.4316 23.8851 27.1326C25.4738 26.0964 26.7835 24.6577 27.6916 22.9513C28.5997 21.2448 29.0764 19.3265 29.077 17.3761C29.084 15.2316 28.5081 13.1286 27.4156 11.3098L35.0478 8.6637C35.3248 8.569 35.566 8.38576 35.737 8.1401C35.9079 7.89444 36 7.59891 36 7.29563C36 6.99235 35.9079 6.69682 35.737 6.45116C35.566 6.2055 35.3248 6.02226 35.0478 5.92756ZM26.308 17.3761C26.308 19.6677 25.4328 21.8654 23.8749 23.4858C22.317 25.1062 20.204 26.0165 18.0009 26.0165C15.7977 26.0165 13.6847 25.1062 12.1268 23.4858C10.5689 21.8654 9.69372 19.6677 9.69372 17.3761C9.69706 15.5323 10.2604 13.7368 11.3032 12.2459L17.5682 14.424C17.8492 14.5201 18.1525 14.5201 18.4335 14.424L24.6985 12.2459C25.7413 13.7368 26.3047 15.5323 26.308 17.3761ZM24.6985 9.22172H24.6812L18.0009 11.5438L11.3205 9.22172H11.3032L5.76514 7.29563L18.0009 3.04742L30.2366 7.29563L24.6985 9.22172Z" fill="#4DC643"/>
</svg>
