<svg width="24" height="24" viewBox="0 0 24 24" fill="none" xmlns="http://www.w3.org/2000/svg">
<path d="M0.5 4.09375C0.5 3.14063 0.878626 2.22654 1.55259 1.55259C2.22654 0.878626 3.14063 0.5 4.09375 0.5H17.0312C17.9844 0.5 18.8985 0.878626 19.5724 1.55259C20.2464 2.22654 20.625 3.14063 20.625 4.09375V9.17531C20.3869 9.14153 20.1467 9.12472 19.9062 9.125H19.1875V4.09375C19.1875 3.52188 18.9603 2.97343 18.556 2.56905C18.1516 2.16468 17.6031 1.9375 17.0312 1.9375H4.09375C3.52188 1.9375 2.97343 2.16468 2.56905 2.56905C2.16468 2.97343 1.9375 3.52188 1.9375 4.09375V17.0312C1.9375 17.6031 2.16468 18.1516 2.56905 18.556C2.97343 18.9603 3.52188 19.1875 4.09375 19.1875H6.25V19.9062C6.25 20.1506 6.26725 20.3907 6.30031 20.625H4.09375C3.14063 20.625 2.22654 20.2464 1.55259 19.5724C0.878626 18.8985 0.5 17.9844 0.5 17.0312V4.09375ZM16.3125 8.40625C16.3125 8.59687 16.2368 8.77969 16.102 8.91448C15.9672 9.04927 15.7844 9.125 15.5938 9.125H8.40625C8.21563 9.125 8.03281 9.04927 7.89802 8.91448C7.76323 8.77969 7.6875 8.59687 7.6875 8.40625C7.6875 8.21563 7.76323 8.03281 7.89802 7.89802C8.03281 7.76323 8.21563 7.6875 8.40625 7.6875H15.5938C15.7844 7.6875 15.9672 7.76323 16.102 7.89802C16.2368 8.03281 16.3125 8.21563 16.3125 8.40625ZM4.8125 5.53125C4.8125 5.34063 4.88823 5.15781 5.02302 5.02302C5.15781 4.88823 5.34063 4.8125 5.53125 4.8125H15.5938C15.7844 4.8125 15.9672 4.88823 16.102 5.02302C16.2368 5.15781 16.3125 5.34063 16.3125 5.53125C16.3125 5.72187 16.2368 5.90469 16.102 6.03948C15.9672 6.17427 15.7844 6.25 15.5938 6.25H5.53125C5.34063 6.25 5.15781 6.17427 5.02302 6.03948C4.88823 5.90469 4.8125 5.72187 4.8125 5.53125ZM7.6875 14.1562C7.6875 13.2031 8.06613 12.289 8.74008 11.6151C9.41404 10.9411 10.3281 10.5625 11.2812 10.5625H19.9062C20.8594 10.5625 21.7735 10.9411 22.4474 11.6151C23.1214 12.289 23.5 13.2031 23.5 14.1562V19.9062C23.5 20.8594 23.1214 21.7735 22.4474 22.4474C21.7735 23.1214 20.8594 23.5 19.9062 23.5H11.2812C10.3281 23.5 9.41404 23.1214 8.74008 22.4474C8.06613 21.7735 7.6875 20.8594 7.6875 19.9062V14.1562ZM11.2812 12C10.7764 11.9999 10.2875 12.177 9.89973 12.5003C9.512 12.8237 9.25004 13.2729 9.1595 13.7696L15.5938 17.6307L22.028 13.7696C21.9375 13.2729 21.6755 12.8237 21.2878 12.5003C20.9 12.177 20.4111 11.9999 19.9062 12H11.2812ZM9.125 19.9062C9.125 20.4781 9.35218 21.0266 9.75655 21.4309C10.1609 21.8353 10.7094 22.0625 11.2812 22.0625H19.9062C20.4781 22.0625 21.0266 21.8353 21.4309 21.4309C21.8353 21.0266 22.0625 20.4781 22.0625 19.9062V15.4256L15.9632 19.0854C15.8516 19.1523 15.7239 19.1877 15.5938 19.1877C15.4636 19.1877 15.3359 19.1523 15.2243 19.0854L9.125 15.4256V19.9062Z" fill="black"/>
</svg>
