<svg width="425" height="355" viewBox="0 0 425 355" fill="none" xmlns="http://www.w3.org/2000/svg">
<g filter="url(#filter0_d_303_16359)">
<path opacity="0.18" d="M20.0617 243.91C22.1792 256.941 35.1212 317.535 82.397 330.428C118.136 340.184 218.545 306.78 275.735 323.601C390.848 357.44 411.933 266.589 405.502 242.05C401.019 224.943 395.488 207.786 395.34 189.926C395.192 171.245 401.742 152.871 402.454 134.052C404.265 86.4296 370.792 39.6781 325.148 26.0139C305.607 20.1761 289.627 14.2097 269.235 14.0415C227.846 13.6853 129.623 14.0415 81.2394 84.421C72.5916 96.9969 60.0355 106.407 50.3884 118.24C37.5255 134.072 28.9569 153.198 23.7821 172.977C17.6423 196.108 16.3754 220.263 20.0617 243.91Z" fill="#0078D4"/>
<path d="M264.287 259.425H188.901L202.239 221.807H253.037L264.287 259.425Z" fill="#0078D4"/>
<path d="M264.287 259.425H188.901L202.239 221.807H253.037L264.287 259.425Z" fill="url(#paint0_linear_303_16359)"/>
<path d="M327.444 85.2344H132.097C124.621 85.2344 118.561 91.2945 118.561 98.77V222.382C118.561 229.857 124.621 235.918 132.097 235.918H327.444C334.919 235.918 340.979 229.857 340.979 222.382V98.77C340.979 91.2945 334.919 85.2344 327.444 85.2344Z" fill="#0078D4"/>
<path d="M340.98 98.7601V207.184H118.611V98.7601C118.611 95.1729 120.036 91.7326 122.572 89.196C125.109 86.6594 128.549 85.2344 132.136 85.2344H327.454C331.041 85.2344 334.481 86.6594 337.018 89.196C339.554 91.7326 340.98 95.1729 340.98 98.7601Z" fill="#473F47"/>
<path d="M337.635 101.339V203.559H121.935V101.339C121.956 97.877 123.351 94.5647 125.813 92.1305C128.275 89.6962 131.603 88.3392 135.065 88.3576H324.505C327.967 88.3392 331.295 89.6962 333.757 92.1305C336.219 94.5647 337.614 97.877 337.635 101.339Z" fill="white"/>
<path opacity="0.18" d="M337.635 101.339V203.559H121.935V101.339C121.956 97.877 123.351 94.5647 125.813 92.1305C128.275 89.6962 131.603 88.3392 135.065 88.3576H324.505C327.967 88.3392 331.295 89.6962 333.757 92.1305C336.219 94.5647 337.614 97.877 337.635 101.339Z" fill="#0078D4"/>
<path d="M134.946 61.1875H221.87V122.593H134.946V61.1875Z" fill="#0078D4"/>
<path d="M303.361 96.1856C303.232 94.3354 303.361 92.4356 303.163 90.5952C302.857 87.9412 301.994 85.3818 300.63 83.0848C299.266 80.7879 297.432 78.8053 295.247 77.2674C290.824 74.2038 285.43 72.8695 280.089 73.5174C271.431 74.5068 264.159 80.4435 259.993 87.9336C255.254 96.4528 259.686 103.428 263.516 111.156C266.385 116.934 264.693 124.147 260.973 129.421C258.054 133.547 253.74 137.505 254.106 142.551C254.333 145.619 256.293 148.241 258.182 150.665C259.449 152.287 260.864 154.009 262.862 154.474C263.87 154.657 264.902 154.657 265.91 154.474C268.168 154.156 270.405 153.703 272.609 153.119C274.746 152.545 276.942 151.832 279.139 152.129C282.859 152.604 285.61 155.741 287.757 158.798C289.904 161.855 292.022 165.259 295.435 166.783C298.027 167.95 300.996 167.842 303.826 167.604C312.088 166.921 320.844 165.002 326.524 158.966C327.778 157.579 328.932 156.105 329.977 154.553C330.616 153.739 331.132 152.836 331.51 151.872C332.5 148.993 330.917 145.935 329.136 143.412C327.355 140.889 325.178 138.465 324.921 135.437C324.683 133.062 325.633 130.757 325.91 128.402C326.514 123.91 324.762 119.349 321.952 115.777C319.043 112.302 315.555 109.357 311.642 107.07C308.674 105.209 305.508 103.28 304.122 100.143C303.636 98.8797 303.378 97.5396 303.361 96.1856Z" fill="#FC682D"/>
<path d="M298.502 105.123C299.155 107.102 299.492 109.229 300.63 111.01C302.015 113.266 304.37 114.71 306.705 115.957C307.965 116.519 309.106 117.314 310.069 118.302C310.74 119.16 311.21 120.158 311.444 121.221C311.783 122.619 311.867 124.067 311.692 125.495C311.41 126.684 311.333 127.912 311.464 129.127C311.811 130.641 313.047 131.749 314.126 132.867C316.274 134.892 317.725 137.545 318.272 140.446C318.667 143.355 317.49 146.59 314.917 148.015C313.984 148.495 312.983 148.828 311.949 149.005C310.288 149.333 308.604 149.538 306.913 149.618C305.707 149.709 304.495 149.608 303.321 149.321C301.889 148.81 300.552 148.064 299.363 147.115L283.611 135.914C281.78 134.788 280.195 133.304 278.951 131.551C278.088 129.963 277.516 128.234 277.259 126.445C276.398 122.102 275.735 117.451 277.417 113.355C278.723 110.149 281.316 107.666 283.829 105.281L290.211 99.2453C292.061 97.494 293.516 96.7222 295.158 98.8693C296.607 100.757 297.737 102.869 298.502 105.123Z" fill="url(#paint1_linear_303_16359)"/>
<path d="M309.475 162.441C314.709 168.308 316.886 175.531 320.854 182.23C321.321 183.187 322.035 184.004 322.922 184.594C324.376 185.386 326.187 184.832 327.651 184.06C339.436 177.767 340.514 159.769 352.071 153.071C354.752 151.527 357.8 150.716 360.461 149.113C361.451 148.519 362.519 147.46 362.124 146.372C361.942 146.038 361.691 145.746 361.387 145.517C361.083 145.289 360.734 145.128 360.362 145.046C357.32 143.995 354.091 143.594 350.883 143.869C349.449 143.997 347.45 143.869 347.292 142.414C347.331 141.996 347.331 141.576 347.292 141.158C346.975 140.109 345.224 140.495 344.788 141.504C344.353 142.513 344.68 143.661 344.64 144.759C344.442 146.478 343.779 148.11 342.721 149.479C340.226 153.325 337.497 157.012 334.548 160.521C326.197 170.416 324.089 154.634 317.49 151.339C316.862 151.079 316.19 150.941 315.511 150.933C309.633 150.531 303.749 150.412 297.859 150.577C299.947 152.249 307.595 160.343 309.475 162.441Z" fill="#F4DBBD"/>
<path d="M292.635 125.906C292.635 125.906 309.733 133.614 310.742 135.633C311.751 137.651 310.742 195.237 310.742 195.237H250.465L253.928 134.554L271.56 127.331L292.635 125.906Z" fill="#0078D4"/>
<path d="M250.455 195.247H310.742C310.742 195.247 311.732 137.661 310.742 135.623C309.753 133.584 292.635 125.906 292.635 125.906L271.57 127.321L253.938 134.544L252.266 163.683L250.455 195.247Z" fill="url(#paint2_linear_303_16359)"/>
<path d="M310.742 135.604L325.099 153.889C322.21 162.427 310.742 173.262 310.742 173.262V135.604Z" fill="#0078D4"/>
<path d="M310.742 152.217L319.717 163.249L310.742 173.292V152.217Z" fill="url(#paint3_linear_303_16359)"/>
<path d="M292.2 117.714C291.616 120.821 292.516 123.186 292.645 126.036C292.823 130.261 288.351 136.86 286.57 140.719C285.996 141.966 285.313 143.321 284.057 143.885C283.168 144.209 282.213 144.308 281.276 144.172C279.881 144.208 278.5 143.892 277.259 143.252C275.636 142.263 274.934 140.284 274.37 138.443C273.45 135.475 271.115 130.775 271.679 127.718C271.857 126.728 272.747 125.739 272.995 124.67C273.229 123.288 273.305 121.884 273.222 120.485C273.153 113.044 292.2 117.714 292.2 117.714Z" fill="#F4DBBD"/>
<path d="M292.2 117.713C292.2 117.713 289.786 130.655 282.098 129.903C280 129.776 278 128.974 276.395 127.617C274.79 126.26 273.667 124.421 273.193 122.373L292.2 117.713Z" fill="#E0BE99"/>
<path d="M292.873 115.477C292.406 117.546 291.597 119.523 290.479 121.325C287.332 125.926 280.188 127.341 275.459 124.293C272.912 122.463 270.942 119.943 269.779 117.031C267.013 110.931 266.088 104.157 267.118 97.5387C267.39 94.9551 268.377 92.4985 269.967 90.4444C272.767 87.2089 277.547 86.3679 281.841 86.5954C285.729 86.8032 289.756 87.7729 292.675 90.2564C294.25 91.6476 295.419 93.4388 296.058 95.4403C296.697 97.4417 296.783 99.5789 296.306 101.625C295.208 106.236 294.13 110.867 292.873 115.477Z" fill="#F4DBBD"/>
<path d="M202.714 133.229C202.074 132.611 201.282 132.174 200.418 131.963C199.545 131.852 198.667 131.786 197.786 131.765C195.976 131.557 194.076 130.597 192.443 131.408C191.894 131.728 191.441 132.19 191.133 132.745C190.824 133.301 190.672 133.93 190.692 134.565C190.742 135.834 191.105 137.072 191.751 138.166C194.482 143.361 198.499 145.093 203.218 147.873C205.702 149.337 207.434 152.82 209.155 155.244L215.399 163.892C217.951 167.424 220.544 171.006 223.957 173.727C224.512 174.209 225.149 174.588 225.837 174.845C227.091 175.146 228.409 175.013 229.577 174.469C234.525 172.56 238.928 168.938 243.202 165.812C245.181 164.347 247.229 162.843 249.218 161.369C250.079 160.726 251.682 159.905 252.236 158.935C252.541 158.317 252.719 157.644 252.76 156.956C253.512 151.118 252.473 145.172 252.622 139.284C246.111 146.725 238.591 154.591 229.864 159.39C229.605 159.564 229.305 159.67 228.994 159.697C228.677 159.671 228.372 159.569 228.103 159.4C220.868 155.545 214.498 150.252 209.383 143.846C207.494 141.212 205.838 138.417 204.435 135.495C203.988 134.651 203.407 133.886 202.714 133.229Z" fill="#F4DBBD"/>
<path d="M296.267 103.255C296.669 103.041 297.128 102.958 297.58 103.016C298.033 103.075 298.455 103.272 298.79 103.582C298.984 103.836 299.12 104.13 299.186 104.443C299.496 106.215 299.124 108.038 298.147 109.548C297.924 109.985 297.618 110.375 297.246 110.696C296.49 111.173 295.607 111.408 294.713 111.369C294.514 111.409 294.309 111.409 294.11 111.369C293.95 111.295 293.808 111.187 293.694 111.052C293.409 110.695 293.2 110.284 293.079 109.843C292.959 109.403 292.929 108.942 292.992 108.49C293.18 106.451 294.347 104.096 296.267 103.255Z" fill="#F4DBBD"/>
<path d="M266.464 110.985C266.865 111.204 267.324 111.291 267.777 111.234C268.229 111.177 268.653 110.979 268.987 110.669C269.182 110.415 269.317 110.121 269.383 109.808C269.698 108.036 269.326 106.211 268.344 104.702C268.119 104.264 267.813 103.871 267.444 103.545C266.688 103.066 265.804 102.831 264.911 102.872C264.707 102.847 264.501 102.867 264.307 102.931C264.145 103.002 264.002 103.11 263.891 103.248C263.606 103.605 263.397 104.016 263.276 104.457C263.156 104.898 263.126 105.358 263.189 105.811C263.377 107.799 264.554 110.154 266.464 110.985Z" fill="#F4DBBD"/>
<path d="M253.928 134.555L239.749 152.424C242.628 160.963 252.236 171.798 252.236 171.798L253.928 134.555Z" fill="#0078D4"/>
<path d="M297.84 107.768C297.59 108.394 297.185 108.946 296.663 109.371C296.433 109.561 296.148 109.671 295.851 109.687C295.554 109.703 295.259 109.624 295.01 109.46C294.918 109.399 294.848 109.308 294.812 109.203C294.776 109.032 294.801 108.854 294.882 108.698L295 108.382C295.029 108.29 295.073 108.203 295.129 108.125C295.347 107.838 295.792 107.887 296.118 107.709C296.445 107.531 296.574 107.076 296.752 106.72C296.814 106.572 296.916 106.445 297.048 106.354C297.179 106.263 297.334 106.211 297.494 106.205C297.645 106.237 297.781 106.317 297.883 106.433C297.985 106.549 298.046 106.694 298.058 106.848C298.074 107.169 297.999 107.489 297.84 107.768Z" fill="#E0BE99"/>
<path d="M264.495 107.138C264.743 107.765 265.148 108.317 265.673 108.74C265.904 108.931 266.189 109.043 266.488 109.06C266.786 109.078 267.083 109.001 267.335 108.839C267.428 108.774 267.497 108.68 267.533 108.572C267.564 108.404 267.54 108.231 267.464 108.078L267.345 107.761C267.318 107.668 267.275 107.581 267.216 107.504C266.999 107.217 266.553 107.256 266.227 107.078C265.9 106.9 265.772 106.445 265.594 106.089C265.53 105.943 265.426 105.817 265.295 105.726C265.164 105.636 265.011 105.583 264.851 105.574C264.7 105.601 264.562 105.678 264.459 105.793C264.357 105.908 264.296 106.054 264.288 106.207C264.265 106.531 264.337 106.854 264.495 107.138Z" fill="#E0BE99"/>
<path d="M292.635 125.906L296.652 127.766L294.673 146.348L284.027 150.445C284.027 150.445 288.489 136.83 292.635 125.906Z" fill="url(#paint4_linear_303_16359)"/>
<path d="M291.27 147.666L292.625 154.79L279.723 169.206L284.027 150.496L291.27 147.666Z" fill="url(#paint5_linear_303_16359)"/>
<path d="M271.422 127.443L267.404 129.294L265.109 146.352L275.716 150.448C275.716 150.448 271.56 133.281 271.422 127.443Z" fill="url(#paint6_linear_303_16359)"/>
<path d="M268.483 147.666L267.118 154.79L280.02 169.206L275.716 150.496L268.483 147.666Z" fill="url(#paint7_linear_303_16359)"/>
<path d="M263.268 195.02L303.064 187.926L310.742 152.217V191.963V195.238L263.268 195.02Z" fill="url(#paint8_linear_303_16359)"/>
<path d="M278.565 89.8728C279.06 92.8412 279.554 96.1459 281.83 98.2238C283.12 99.3064 284.629 100.096 286.253 100.539C289.971 101.76 293.84 102.463 297.75 102.627C298.322 100.069 298.316 97.4158 297.731 94.8609C297.147 92.3059 295.999 89.9138 294.372 87.859C292.745 85.8043 290.679 84.1389 288.326 82.9843C285.973 81.8297 283.392 81.2151 280.772 81.1855C273.954 80.9975 277.843 85.4302 278.565 89.8728Z" fill="#FC682D"/>
<path d="M121.906 191.818H337.635V203.573H121.906V191.818Z" fill="white"/>
<path d="M284.948 262.76C283.53 264.181 282.512 265.949 281.994 267.887C281.477 269.826 281.479 271.867 282.001 273.804C282.522 275.742 283.544 277.508 284.965 278.925C286.386 280.342 288.154 281.36 290.093 281.877V284.489H152.559C149.689 284.489 146.892 283.583 144.566 281.901C142.241 280.219 140.505 277.845 139.608 275.119C139.141 273.732 138.904 272.278 138.905 270.815C138.904 269.021 139.256 267.245 139.942 265.588C140.628 263.93 141.633 262.425 142.901 261.157C144.17 259.888 145.675 258.883 147.333 258.197C148.99 257.511 150.766 257.159 152.559 257.16H290.093V259.772C288.144 260.295 286.368 261.326 284.948 262.76Z" fill="#0078D4"/>
<path d="M290.093 281.876V284.489H152.559C149.689 284.489 146.892 283.583 144.566 281.901C142.24 280.218 140.505 277.845 139.607 275.119C144.832 276.039 177.909 281.313 196.323 270.814L282.573 275.415C283.259 276.989 284.292 278.387 285.594 279.506C286.896 280.624 288.434 281.435 290.093 281.876Z" fill="url(#paint9_linear_303_16359)"/>
<path d="M284.947 262.759C283.529 264.18 282.511 265.948 281.993 267.886C281.476 269.825 281.478 271.866 282 273.803C282.521 275.741 283.544 277.507 284.964 278.924C286.385 280.341 288.153 281.359 290.092 281.876V282.261H207.75C206.222 282.306 204.7 282.044 203.275 281.49C201.849 280.937 200.55 280.102 199.453 279.037C198.356 277.972 197.484 276.698 196.888 275.289C196.293 273.881 195.986 272.367 195.986 270.838C195.986 269.309 196.293 267.796 196.888 266.387C197.484 264.979 198.356 263.705 199.453 262.639C200.55 261.574 201.849 260.74 203.275 260.186C204.7 259.632 206.222 259.37 207.75 259.415H290.092V259.791C288.145 260.308 286.369 261.333 284.947 262.759Z" fill="white"/>
<path d="M368.605 291.256C367.188 292.676 366.169 294.445 365.652 296.383C365.135 298.322 365.137 300.362 365.658 302.3C366.18 304.237 367.202 306.004 368.623 307.421C370.043 308.838 371.812 309.856 373.75 310.372V312.985H236.217C233.349 312.986 230.554 312.084 228.228 310.405C225.903 308.726 224.166 306.357 223.265 303.634C222.799 302.247 222.562 300.793 222.563 299.33C222.561 297.537 222.914 295.761 223.599 294.103C224.285 292.446 225.291 290.94 226.559 289.672C227.827 288.404 229.333 287.398 230.99 286.712C232.647 286.027 234.424 285.674 236.217 285.676H373.75V288.288C371.803 288.805 370.028 289.829 368.605 291.256Z" fill="#0078D4"/>
<path d="M373.75 310.368V312.981H236.217C233.349 312.982 230.553 312.08 228.228 310.401C225.903 308.722 224.166 306.353 223.265 303.63C228.489 304.55 261.566 309.824 279.98 299.326L366.23 303.927C366.919 305.497 367.953 306.891 369.255 308.006C370.557 309.121 372.093 309.929 373.75 310.368Z" fill="url(#paint10_linear_303_16359)"/>
<path d="M368.605 291.258C367.188 292.678 366.169 294.446 365.652 296.385C365.134 298.323 365.137 300.364 365.658 302.301C366.18 304.239 367.202 306.005 368.623 307.422C370.043 308.839 371.812 309.857 373.75 310.374V310.74H291.408C289.88 310.785 288.358 310.523 286.933 309.969C285.508 309.415 284.208 308.581 283.111 307.516C282.014 306.451 281.142 305.176 280.546 303.768C279.951 302.359 279.644 300.846 279.644 299.317C279.644 297.788 279.951 296.274 280.546 294.866C281.142 293.458 282.014 292.183 283.111 291.118C284.208 290.053 285.508 289.218 286.933 288.665C288.358 288.111 289.88 287.849 291.408 287.894H373.75V288.27C371.801 288.793 370.025 289.824 368.605 291.258Z" fill="white"/>
<path d="M195.698 131.35L179.204 91.8906L197.786 131.765L195.698 131.35Z" fill="white"/>
<path d="M341.237 211.535C339.843 212.163 338.567 213.026 337.467 214.088C336.918 214.619 336.486 215.258 336.198 215.965C335.91 216.672 335.773 217.431 335.795 218.194C335.943 220.044 337.269 221.568 338.664 222.775C340.257 224.18 342.197 225.645 342.325 227.723C343.463 226.872 344.502 225.882 345.68 225.081C347.738 223.676 350.162 222.924 352.428 221.885C354.693 220.846 356.94 219.381 358.018 217.135C358.6 215.715 358.935 214.206 359.007 212.673C359.24 211.034 359.283 209.374 359.136 207.726C358.981 206.067 358.253 204.514 357.078 203.333C355.29 201.962 353.182 201.07 350.953 200.74C349.699 200.805 348.49 201.228 347.469 201.959C346.448 202.69 345.659 203.699 345.195 204.866C344.73 206.103 344.947 207.508 344.492 208.745C343.918 210.189 342.523 210.882 341.237 211.535Z" fill="#FC682D"/>
<path d="M289.953 286.347C289.507 286.338 289.062 286.405 288.637 286.545C288.426 286.618 288.239 286.75 288.099 286.925C287.959 287.1 287.871 287.312 287.846 287.534C287.864 287.752 287.935 287.962 288.055 288.145C288.174 288.328 288.337 288.479 288.529 288.583C288.895 288.821 289.32 288.959 289.686 289.207C289.995 289.463 290.326 289.691 290.676 289.889C291.303 290.077 291.974 290.053 292.585 289.82C295.436 289.125 298.387 288.941 301.302 289.276C301.585 289.311 301.871 289.311 302.153 289.276C302.569 289.156 302.946 288.932 303.251 288.626C303.556 288.319 303.777 287.94 303.895 287.524C304.479 285.753 304.651 283.871 304.399 282.023C304.396 281.817 304.345 281.613 304.251 281.429C304.133 281.286 303.984 281.171 303.816 281.093C301.055 279.728 299.541 282.458 297.513 283.794C295.256 285.285 292.652 286.164 289.953 286.347Z" fill="#FFBBAB"/>
<path d="M356.712 245.742C356.712 245.742 357.404 256.071 348.173 259.188C338.941 262.305 322.398 259.762 322.398 259.762C322.398 259.762 315.739 272.516 308.931 278.562L304.578 282.866C303.661 283.088 302.696 283.005 301.831 282.63C300.965 282.255 300.245 281.608 299.779 280.788C299.779 280.788 312.642 255.151 314.373 253.232C316.337 250.868 318.963 249.146 321.913 248.285L340.336 242.486L356.712 245.742Z" fill="#473F47"/>
<path d="M295.099 211.901L304.983 232.887L323.248 232.758L323.1 231.175L306.299 230.987L296.998 211.129L295.099 211.901Z" fill="#473F47"/>
<path d="M343.444 198.336C343.107 198.91 342.405 199.247 342.177 199.87C341.95 200.493 342.434 201.423 342.702 202.185C343.088 203.244 342.969 204.431 343.335 205.5C343.399 205.731 343.529 205.937 343.711 206.094C343.88 206.209 344.073 206.287 344.275 206.321C345.066 206.481 345.875 206.528 346.679 206.46C346.837 206.429 347 206.45 347.144 206.519C347.262 206.623 347.336 206.768 347.352 206.925C347.814 208.941 347.78 211.039 347.253 213.04C347.085 213.703 346.897 214.504 347.382 215.018C347.558 215.178 347.773 215.287 348.005 215.335C349.529 215.701 350.973 214.573 352.022 213.356C352.941 212.298 353.731 211.136 354.377 209.893C354.579 209.548 354.716 209.169 354.783 208.775C354.811 208.265 354.741 207.754 354.575 207.271C354.138 205.607 353.873 203.903 353.783 202.185C353.675 199.989 353.833 197.703 352.982 195.665C352.74 194.964 352.274 194.363 351.656 193.953C350.917 193.601 350.094 193.468 349.281 193.567C347.688 193.627 345.927 193.844 344.839 195.022C344.532 195.358 343.869 197.624 343.444 198.336Z" fill="#FFBBAB"/>
<path d="M354.654 208.913C354.654 208.913 348.074 212.317 346.085 214.989C344.096 217.66 340.851 219.629 342.127 224.685C343.404 229.741 341.85 237.459 341.85 237.459C341.85 237.459 344.71 246.453 351.745 248.729C358.78 251.005 356.84 250.282 356.84 250.282C356.84 250.282 360.571 233.61 362.035 228.97C363.499 224.329 361.026 208.171 354.654 208.913Z" fill="#0078D4"/>
<path d="M345.561 194.795C345.692 195.879 346.208 196.88 347.016 197.615C347.797 198.337 348.757 198.842 349.568 199.534C349.996 199.855 350.337 200.277 350.56 200.762C350.782 201.248 350.88 201.781 350.845 202.315C351.155 202.191 351.499 202.18 351.817 202.283C352.135 202.386 352.407 202.596 352.586 202.879C352.669 203.077 352.696 203.296 352.663 203.509C352.629 203.722 352.538 203.921 352.398 204.086C352.255 204.246 352.077 204.372 351.878 204.454C351.68 204.536 351.465 204.572 351.25 204.561C352.082 204.9 352.795 205.479 353.299 206.223C353.863 207.054 354.14 208.043 354.654 208.914C355.289 209.794 356.085 210.546 356.999 211.131C357.409 211.407 357.748 211.777 357.988 212.209C358.176 212.882 358.404 213.543 358.671 214.188C359.256 215.012 359.883 215.805 360.551 216.563C361.455 217.886 361.972 219.434 362.045 221.035C362.001 220.561 362.001 220.084 362.045 219.61C362.21 219.333 362.368 219.046 362.52 218.749C362.773 218.231 362.969 217.687 363.104 217.127C363.294 215.843 363.33 214.541 363.213 213.248C363.213 210.477 365.825 205.263 363.727 202.888C362.892 202.189 362.002 201.557 361.066 200.999C359.215 199.465 358.958 196.764 357.791 194.666C357.273 193.743 356.577 192.931 355.743 192.279C354.909 191.627 353.953 191.147 352.932 190.867C350.202 190.085 345.195 190.946 345.561 194.795Z" fill="#FC682D"/>
<path d="M352.121 217.581C352.121 217.581 347.965 228.822 347.174 229.643C346.382 230.464 355.178 235.431 355.178 235.431C355.178 235.431 360.927 224.498 360.66 219.768C360.393 215.039 355.356 213.119 352.121 217.581Z" fill="#0078D4"/>
<path d="M355.139 233.907C355.139 233.907 354.832 237.528 350.39 237.459L330.65 237.182C329.304 236.489 327.464 236.38 326.465 235.203C325.98 234.669 325.733 233.956 325.277 233.402C324.648 232.709 323.799 232.254 322.873 232.116C321.955 231.984 321.026 231.961 320.103 232.047C319.922 231.838 319.822 231.571 319.822 231.295C319.822 231.018 319.922 230.751 320.103 230.543C320.49 230.142 320.99 229.869 321.537 229.761C323.81 229.192 326.215 229.548 328.226 230.75C328.808 231.164 329.444 231.497 330.116 231.74C330.61 231.841 331.117 231.867 331.62 231.819C337.309 231.552 342.929 230.345 348.618 230.087C349.952 229.954 351.299 230.096 352.576 230.503C353.244 230.825 353.825 231.302 354.27 231.894C354.716 232.486 355.014 233.176 355.139 233.907Z" fill="#FFBBAB"/>
<path d="M288.866 235.115H291.666V286.349H288.866V235.115Z" fill="white"/>
<path d="M320.449 235.115H323.249V286.349H320.449V235.115Z" fill="white"/>
<path d="M285.58 232.891H324.792V237.343H285.58V232.891Z" fill="#0078D4"/>
<path d="M285.58 232.891H324.792V237.343H285.58V232.891Z" fill="url(#paint11_linear_303_16359)"/>
<path d="M357.503 258.574H331.986C331.384 258.574 330.897 259.062 330.897 259.663V264.105C330.897 264.706 331.384 265.194 331.986 265.194H357.503C358.105 265.194 358.592 264.706 358.592 264.105V259.663C358.592 259.062 358.105 258.574 357.503 258.574Z" fill="#473F47"/>
<path d="M336.329 265.193H331.649L329.314 286.852H333.994L336.329 265.193Z" fill="#473F47"/>
<path d="M360.136 286.852L357.039 265.193H352.359L356.247 286.852H360.136Z" fill="#473F47"/>
<path d="M367.031 222.252H362.836L353.357 258.743H357.552L367.031 222.252Z" fill="#473F47"/>
<path d="M121.154 265.193H146.672C147.273 265.193 147.76 264.706 147.76 264.105V259.662C147.76 259.061 147.273 258.574 146.672 258.574H121.154C120.553 258.574 120.066 259.061 120.066 259.662V264.105C120.066 264.706 120.553 265.193 121.154 265.193Z" fill="#473F47"/>
<path d="M142.328 265.193H147.008L149.343 286.852H144.663L142.328 265.193Z" fill="#473F47"/>
<path d="M118.522 286.852L121.619 265.193H126.299L122.41 286.852H118.522Z" fill="#473F47"/>
<path d="M111.625 222.252H115.82L125.299 258.743H121.104L111.625 222.252Z" fill="#473F47"/>
<path d="M238.057 291.266C236.64 292.686 235.621 294.454 235.104 296.393C234.586 298.332 234.589 300.372 235.11 302.31C235.632 304.247 236.654 306.013 238.075 307.43C239.495 308.847 241.264 309.865 243.202 310.382V312.994H105.669C102.801 312.996 100.006 312.093 97.6803 310.415C95.355 308.736 93.6182 306.367 92.717 303.644C92.2509 302.257 92.0136 300.803 92.0145 299.34C92.0132 297.546 92.3655 295.77 93.0513 294.113C93.737 292.456 94.7427 290.95 96.0109 289.682C97.2791 288.414 98.7849 287.408 100.442 286.722C102.099 286.037 103.875 285.684 105.669 285.686H243.202V288.298C241.255 288.815 239.48 289.839 238.057 291.266Z" fill="#0078D4"/>
<path d="M243.202 310.382V312.994H105.669C102.801 312.996 100.005 312.093 97.68 310.414C95.3547 308.736 93.618 306.367 92.7168 303.644C97.9411 304.564 131.018 309.838 149.432 299.34L235.682 303.941C236.371 305.51 237.405 306.905 238.707 308.02C240.009 309.135 241.545 309.942 243.202 310.382Z" fill="url(#paint12_linear_303_16359)"/>
<path d="M238.057 291.268C236.64 292.688 235.621 294.456 235.104 296.395C234.586 298.333 234.589 300.374 235.11 302.311C235.632 304.249 236.654 306.015 238.074 307.432C239.495 308.849 241.264 309.867 243.202 310.384V310.74H160.86C159.332 310.785 157.81 310.523 156.385 309.969C154.96 309.415 153.66 308.581 152.563 307.516C151.466 306.451 150.594 305.176 149.998 303.768C149.403 302.359 149.096 300.846 149.096 299.317C149.096 297.788 149.403 296.274 149.998 294.866C150.594 293.458 151.466 292.183 152.563 291.118C153.66 290.053 154.96 289.218 156.385 288.665C157.81 288.111 159.332 287.849 160.86 287.894H243.202V288.27C241.252 288.795 239.476 289.83 238.057 291.268Z" fill="white"/>
<path d="M134.946 193.852L144.109 197.691L134.946 201.282V193.852Z" fill="#0078D4"/>
<path d="M147.819 196.469H330.006V198.913H147.819V196.469Z" fill="#0078D4"/>
<path d="M123.261 246.019C123.261 246.019 122.569 256.349 131.8 259.465C138.39 261.692 145.949 261.207 152.777 260.603C153.875 260.504 155.844 259.95 156.814 260.682C158.179 261.672 157.496 264.432 157.457 265.927C157.368 269.172 157.288 272.407 157.199 275.653C157.199 277.147 157.199 278.681 157.081 280.165C156.962 281.649 156.596 283.39 156.487 285.033C156.473 285.101 156.474 285.172 156.489 285.24C156.504 285.308 156.534 285.373 156.576 285.429C156.633 285.473 156.698 285.506 156.768 285.525C156.837 285.543 156.91 285.548 156.982 285.537L169.073 285.013C169.203 285.028 169.334 284.992 169.439 284.914C169.617 284.746 169.498 284.449 169.36 284.251C168.113 282.644 166.376 281.487 164.412 280.956C163.949 280.84 163.508 280.65 163.106 280.392C161.85 279.403 162.889 277.276 163.176 276.078L164.422 270.874L166.876 260.643C167.608 257.615 167.787 255.31 165.451 253.202C163.35 251.12 160.807 249.537 158.011 248.572L139.597 242.773L123.261 246.019Z" fill="#473F47"/>
<path d="M196.015 211.901L186.131 232.887L167.865 232.758L168.014 231.175L184.805 230.987L194.106 211.129L196.015 211.901Z" fill="#473F47"/>
<path d="M147.661 198.336C148.007 198.91 148.71 199.247 148.937 199.87C149.165 200.493 148.68 201.423 148.403 202.185C148.027 203.244 148.146 204.431 147.78 205.5C147.716 205.731 147.585 205.937 147.404 206.094C147.234 206.208 147.041 206.285 146.84 206.321C146.049 206.481 145.239 206.527 144.435 206.46C144.278 206.429 144.115 206.449 143.97 206.519C143.852 206.623 143.778 206.768 143.762 206.925C143.297 208.94 143.328 211.038 143.852 213.039C144.03 213.702 144.218 214.504 143.733 215.018C143.557 215.177 143.342 215.287 143.109 215.335C141.586 215.701 140.141 214.573 139.092 213.356C138.174 212.298 137.383 211.136 136.737 209.893C136.536 209.548 136.398 209.169 136.332 208.775C136.303 208.265 136.374 207.754 136.539 207.271C136.973 205.607 137.235 203.903 137.321 202.185C137.44 199.989 137.321 197.703 138.123 195.665C138.368 194.963 138.838 194.362 139.458 193.953C140.194 193.602 141.014 193.468 141.823 193.567C143.426 193.626 145.177 193.844 146.266 195.022C146.582 195.358 147.245 197.624 147.661 198.336Z" fill="#FFBBAB"/>
<path d="M136.421 208.953H136.56C139.469 209.675 143.704 212.327 144.653 215.276C145.851 218.976 146.632 223.953 145.772 227.782C145.188 230.385 143.793 232.73 143.011 235.282C142.348 237.39 142.071 239.626 141.2 241.654C140.113 244.013 138.283 245.949 135.99 247.168C133.698 248.387 131.068 248.821 128.506 248.402C127.146 248.171 125.864 247.607 124.775 246.76C123.788 245.841 123.025 244.707 122.547 243.446C122.068 242.185 121.886 240.83 122.015 239.488C122.306 236.803 123.01 234.18 124.103 231.71L128.634 219.887C129.733 217.057 132.394 208.152 136.421 208.953Z" fill="#0078D4"/>
<path d="M134.076 238.03C134.33 238.455 134.498 238.925 134.57 239.415C134.584 239.776 134.54 240.137 134.442 240.484C133.976 242.406 133.779 244.385 133.858 246.361C133.827 246.718 133.937 247.073 134.165 247.351C134.421 247.534 134.73 247.631 135.045 247.628C136.177 247.812 137.337 247.696 138.409 247.291C139.564 246.566 140.434 245.466 140.873 244.175C142.323 240.584 143.426 236.863 144.168 233.063C144.355 232.455 144.415 231.815 144.346 231.183C144.225 230.714 144.012 230.273 143.72 229.886C143.428 229.499 143.062 229.173 142.644 228.927C141.853 228.383 140.952 227.987 140.191 227.393C138.687 226.246 137.578 224.158 135.53 223.891C134.822 223.839 134.119 224.037 133.541 224.448C132.963 224.86 132.546 225.461 132.364 226.147C131.018 229.699 132.463 234.775 134.076 238.03Z" fill="url(#paint13_linear_303_16359)"/>
<path d="M139.004 217.581C139.004 217.581 143.159 228.822 143.951 229.643C144.743 230.464 135.956 235.431 135.956 235.431C135.956 235.431 130.198 224.498 130.475 219.768C130.752 215.039 135.758 213.119 139.004 217.581Z" fill="#0078D4"/>
<path d="M135.976 233.907C135.976 233.907 136.282 237.528 140.715 237.459L160.504 237.182C161.84 236.489 163.68 236.38 164.69 235.203C165.164 234.669 165.412 233.956 165.877 233.402C166.506 232.709 167.355 232.254 168.281 232.116C169.199 231.984 170.129 231.961 171.052 232.047C171.231 231.837 171.329 231.57 171.329 231.295C171.329 231.019 171.231 230.752 171.052 230.543C170.663 230.144 170.163 229.871 169.617 229.761C167.344 229.192 164.939 229.548 162.928 230.75C162.346 231.164 161.71 231.497 161.038 231.74C160.544 231.841 160.037 231.867 159.534 231.819C153.845 231.552 148.225 230.345 142.536 230.087C141.202 229.956 139.855 230.098 138.578 230.503C137.902 230.819 137.313 231.293 136.86 231.886C136.406 232.478 136.103 233.172 135.976 233.907Z" fill="#FFBBAB"/>
<path d="M162.077 235.115H164.878V286.349H162.077V235.115Z" fill="white"/>
<path d="M193.67 235.115H196.471V286.349H193.67V235.115Z" fill="white"/>
<path d="M158.793 232.891H198.005V237.343H158.793V232.891Z" fill="#0078D4"/>
<path d="M158.793 232.891H198.005V237.343H158.793V232.891Z" fill="url(#paint14_linear_303_16359)"/>
<path d="M146.315 189.35C145.839 188.619 145.198 188.009 144.444 187.571C143.689 187.133 142.842 186.878 141.971 186.827C141.388 186.74 140.792 186.778 140.224 186.938C139.656 187.098 139.128 187.377 138.676 187.757C138.32 188.113 138.053 188.559 137.687 188.905C136.628 189.894 134.996 189.776 133.729 190.379C132.585 190.974 131.706 191.977 131.266 193.189C130.835 194.395 130.595 195.66 130.553 196.939C130.412 198.109 130.476 199.294 130.741 200.442C130.995 201.29 131.441 202.068 132.045 202.715C132.649 203.363 133.395 203.861 134.224 204.172C134.618 204.266 134.982 204.456 135.283 204.726C135.52 204.993 135.599 205.379 135.827 205.656C136.391 206.349 137.519 206.092 138.221 205.547C138.831 204.904 139.527 204.348 140.289 203.895L138.31 201.214C138.056 200.946 137.911 200.593 137.905 200.224C137.965 200.01 138.095 199.822 138.274 199.691C138.454 199.56 138.672 199.494 138.894 199.502C139.34 199.542 139.76 199.726 140.091 200.026C140.378 200.264 140.814 200.531 141.081 200.254C141.162 200.167 141.211 200.056 141.219 199.937C141.437 198.611 140.23 197.295 140.586 195.979C140.614 195.86 140.68 195.752 140.774 195.673C140.914 195.598 141.075 195.577 141.229 195.613C142.018 195.742 142.82 195.762 143.614 195.673C146.117 195.208 147.562 191.497 146.315 189.35Z" fill="#473F47"/>
<path d="M142.734 217.276C142.734 217.761 142.734 218.374 142.229 218.493C142.031 218.527 141.827 218.499 141.645 218.414C140.888 218.147 140.169 217.781 139.508 217.325C139.679 221.42 140.239 225.488 141.18 229.476C141.22 229.703 141.307 229.919 141.437 230.109C141.58 230.246 141.75 230.352 141.935 230.42C142.121 230.488 142.319 230.517 142.516 230.505C143.49 230.555 144.465 230.414 145.385 230.089C142.931 226.013 142.823 220.838 144.208 216.296C144.499 215.641 144.575 214.91 144.425 214.209C144.153 213.723 143.782 213.3 143.335 212.967C142.889 212.635 142.377 212.4 141.833 212.279C141.536 213.773 142.615 215.752 142.734 217.276Z" fill="url(#paint15_linear_303_16359)"/>
</g>
<defs>
<filter id="filter0_d_303_16359" x="0" y="0" width="424.541" height="354.25" filterUnits="userSpaceOnUse" color-interpolation-filters="sRGB">
<feFlood flood-opacity="0" result="BackgroundImageFix"/>
<feColorMatrix in="SourceAlpha" type="matrix" values="0 0 0 0 0 0 0 0 0 0 0 0 0 0 0 0 0 0 127 0" result="hardAlpha"/>
<feOffset dy="4"/>
<feGaussianBlur stdDeviation="9"/>
<feComposite in2="hardAlpha" operator="out"/>
<feColorMatrix type="matrix" values="0 0 0 0 0 0 0 0 0 0.278431 0 0 0 0 1 0 0 0 0.25 0"/>
<feBlend mode="normal" in2="BackgroundImageFix" result="effect1_dropShadow_303_16359"/>
<feBlend mode="normal" in="SourceGraphic" in2="effect1_dropShadow_303_16359" result="shape"/>
</filter>
<linearGradient id="paint0_linear_303_16359" x1="223.146" y1="212.951" x2="229.657" y2="300.695" gradientUnits="userSpaceOnUse">
<stop offset="0.01"/>
<stop offset="0.08" stop-opacity="0.69"/>
<stop offset="0.21" stop-opacity="0.32"/>
<stop offset="1" stop-opacity="0"/>
</linearGradient>
<linearGradient id="paint1_linear_303_16359" x1="240.639" y1="154.16" x2="427.853" y2="61.1119" gradientUnits="userSpaceOnUse">
<stop offset="0.01"/>
<stop offset="0.08" stop-opacity="0.69"/>
<stop offset="0.21" stop-opacity="0.32"/>
<stop offset="1" stop-opacity="0"/>
</linearGradient>
<linearGradient id="paint2_linear_303_16359" x1="282.978" y1="238.07" x2="277.17" y2="53.4588" gradientUnits="userSpaceOnUse">
<stop offset="0.01"/>
<stop offset="0.08" stop-opacity="0.69"/>
<stop offset="0.21" stop-opacity="0.32"/>
<stop offset="1" stop-opacity="0"/>
</linearGradient>
<linearGradient id="paint3_linear_303_16359" x1="302.965" y1="165.357" x2="338.239" y2="153.523" gradientUnits="userSpaceOnUse">
<stop offset="0.01"/>
<stop offset="0.08" stop-opacity="0.69"/>
<stop offset="0.21" stop-opacity="0.32"/>
<stop offset="1" stop-opacity="0"/>
</linearGradient>
<linearGradient id="paint4_linear_303_16359" x1="298.562" y1="147.753" x2="272.322" y2="120.217" gradientUnits="userSpaceOnUse">
<stop offset="0.01"/>
<stop offset="0.08" stop-opacity="0.69"/>
<stop offset="0.21" stop-opacity="0.32"/>
<stop offset="1" stop-opacity="0"/>
</linearGradient>
<linearGradient id="paint5_linear_303_16359" x1="291.072" y1="162.31" x2="265.099" y2="144.243" gradientUnits="userSpaceOnUse">
<stop offset="0.01"/>
<stop offset="0.08" stop-opacity="0.69"/>
<stop offset="0.21" stop-opacity="0.32"/>
<stop offset="1" stop-opacity="0"/>
</linearGradient>
<linearGradient id="paint6_linear_303_16359" x1="262.398" y1="149.508" x2="291.666" y2="118.805" gradientUnits="userSpaceOnUse">
<stop offset="0.01"/>
<stop offset="0.08" stop-opacity="0.69"/>
<stop offset="0.21" stop-opacity="0.32"/>
<stop offset="1" stop-opacity="0"/>
</linearGradient>
<linearGradient id="paint7_linear_303_16359" x1="268.671" y1="162.31" x2="294.654" y2="144.243" gradientUnits="userSpaceOnUse">
<stop offset="0.01"/>
<stop offset="0.08" stop-opacity="0.69"/>
<stop offset="0.21" stop-opacity="0.32"/>
<stop offset="1" stop-opacity="0"/>
</linearGradient>
<linearGradient id="paint8_linear_303_16359" x1="295.524" y1="130.162" x2="273.578" y2="297.537" gradientUnits="userSpaceOnUse">
<stop offset="0.01"/>
<stop offset="0.08" stop-opacity="0.69"/>
<stop offset="0.21" stop-opacity="0.32"/>
<stop offset="1" stop-opacity="0"/>
</linearGradient>
<linearGradient id="paint9_linear_303_16359" x1="203.1" y1="179.815" x2="238.206" y2="474.839" gradientUnits="userSpaceOnUse">
<stop offset="0.01"/>
<stop offset="0.08" stop-opacity="0.69"/>
<stop offset="0.21" stop-opacity="0.32"/>
<stop offset="1" stop-opacity="0"/>
</linearGradient>
<linearGradient id="paint10_linear_303_16359" x1="286.768" y1="208.307" x2="321.873" y2="503.331" gradientUnits="userSpaceOnUse">
<stop offset="0.01"/>
<stop offset="0.08" stop-opacity="0.69"/>
<stop offset="0.21" stop-opacity="0.32"/>
<stop offset="1" stop-opacity="0"/>
</linearGradient>
<linearGradient id="paint11_linear_303_16359" x1="304.964" y1="210.084" x2="305.518" y2="272.765" gradientUnits="userSpaceOnUse">
<stop offset="0.01"/>
<stop offset="0.08" stop-opacity="0.69"/>
<stop offset="0.21" stop-opacity="0.32"/>
<stop offset="1" stop-opacity="0"/>
</linearGradient>
<linearGradient id="paint12_linear_303_16359" x1="156.22" y1="208.311" x2="191.325" y2="503.334" gradientUnits="userSpaceOnUse">
<stop offset="0.01"/>
<stop offset="0.08" stop-opacity="0.69"/>
<stop offset="0.21" stop-opacity="0.32"/>
<stop offset="1" stop-opacity="0"/>
</linearGradient>
<linearGradient id="paint13_linear_303_16359" x1="119.491" y1="237.654" x2="170.606" y2="231.668" gradientUnits="userSpaceOnUse">
<stop offset="0.01"/>
<stop offset="0.08" stop-opacity="0.69"/>
<stop offset="0.21" stop-opacity="0.32"/>
<stop offset="1" stop-opacity="0"/>
</linearGradient>
<linearGradient id="paint14_linear_303_16359" x1="178.305" y1="225.875" x2="178.582" y2="252.482" gradientUnits="userSpaceOnUse">
<stop offset="0.01"/>
<stop offset="0.08" stop-opacity="0.69"/>
<stop offset="0.21" stop-opacity="0.32"/>
<stop offset="1" stop-opacity="0"/>
</linearGradient>
<linearGradient id="paint15_linear_303_16359" x1="169.953" y1="229.852" x2="96.4075" y2="207.57" gradientUnits="userSpaceOnUse">
<stop offset="0.01"/>
<stop offset="0.08" stop-opacity="0.69"/>
<stop offset="0.21" stop-opacity="0.32"/>
<stop offset="1" stop-opacity="0"/>
</linearGradient>
</defs>
</svg>
