<svg width="425" height="335" viewBox="0 0 425 335" fill="none" xmlns="http://www.w3.org/2000/svg">
<g filter="url(#filter0_d_303_16297)">
<path opacity="0.18" d="M185.523 20.5929C176.942 17.2794 168.038 14.8708 158.956 13.4065C125.097 8.05332 88.0362 17.976 64.9363 43.2544C52.1709 57.2418 44.2009 74.9221 37.7451 92.7351C23.8905 130.925 15.9603 170.443 16.0001 210.958C16.153 234.594 25.5002 257.243 42.0622 274.107C65.3879 297.619 99.885 306.465 132.947 308.206C166.01 309.946 199.179 305.615 232.241 307.395C263.523 309.082 294.673 316.242 325.902 313.851C357.132 311.46 390.234 296.769 402.588 267.97C415.977 236.727 404.899 182.053 378.279 160.959C348.245 137.168 310.733 124.549 281.948 99.1245C269.302 87.9797 258.927 74.5236 247.185 62.4357C229.744 44.5163 208.743 29.4795 185.523 20.5929Z" fill="#0078D4"/>
<path d="M137.703 148.844C137.796 152.258 139.483 155.392 141.17 158.368C148.794 171.851 157.362 185.134 169.184 195.15C186.572 209.855 209.34 216.204 231.337 222.142C229.371 221.185 227.007 211.05 226.13 208.858C224.43 204.501 222.836 200.091 221.202 195.708C218.625 188.774 213.232 183.195 207.919 178.094C195.951 166.575 181.425 158.054 165.531 153.227C156.509 150.457 147.139 148.981 137.703 148.844Z" fill="#0078D4"/>
<path d="M137.703 148.844C137.796 152.258 139.483 155.392 141.17 158.368C148.794 171.851 157.362 185.134 169.184 195.15C186.572 209.855 209.34 216.204 231.337 222.142C229.371 221.185 227.007 211.05 226.13 208.858C224.43 204.501 222.836 200.091 221.202 195.708C218.625 188.774 213.232 183.195 207.919 178.094C195.951 166.575 181.425 158.054 165.531 153.227C156.509 150.457 147.139 148.981 137.703 148.844Z" fill="url(#paint0_linear_303_16297)"/>
<path d="M223.753 156.39C221.96 143.851 220.113 131.152 215.066 119.502C210.018 107.853 201.264 97.2925 189.389 92.9355C189.043 110.912 188.694 128.88 188.339 146.84C188.14 157.227 187.968 167.801 190.996 177.75C196.23 195.178 214.348 215.635 231.816 221.4C234.473 213.018 230.063 200.332 228.827 191.645L223.753 156.39Z" fill="#0078D4"/>
<path d="M223.753 156.39C221.96 143.851 220.113 131.152 215.066 119.502C210.018 107.853 201.264 97.2925 189.389 92.9355C189.043 110.912 188.694 128.88 188.339 146.84C188.14 157.227 187.968 167.801 190.996 177.75C196.23 195.178 214.348 215.635 231.816 221.4C234.473 213.018 230.063 200.332 228.827 191.645L223.753 156.39Z" fill="url(#paint1_linear_303_16297)"/>
<path d="M318.503 272.475C244.368 281.986 169.251 274.68 94.5048 274.893C89.0984 274.893 81.6863 277.138 82.5497 282.477C126.026 292.746 171.097 293.556 215.756 294.3L297.037 295.628C315.634 295.934 334.231 296.252 352.761 295.19C359.682 294.804 366.762 294.18 372.978 291.138C390.486 282.57 381.812 271.319 366.722 269.42C350.689 267.467 334.364 270.443 318.503 272.475Z" fill="url(#paint2_linear_303_16297)"/>
<path d="M210.31 65.4659V266.657C210.31 275.357 218.028 282.398 227.579 282.371L319.58 282.225C329.078 282.225 336.848 275.158 336.848 266.457V65.2667C336.848 56.566 329.144 49.5258 319.58 49.5391L227.513 49.6852C218.028 49.6985 210.31 56.7653 210.31 65.4659ZM219.091 65.5987C219.091 60.2854 223.846 55.8886 229.718 55.8753H242.682V57.0708C242.721 57.9229 242.928 58.759 243.29 59.5313C243.653 60.3036 244.164 60.9969 244.794 61.5717C245.424 62.1465 246.162 62.5915 246.964 62.8814C247.766 63.1712 248.618 63.3001 249.47 63.2609L298.911 63.1812C300.636 63.2533 302.319 62.6401 303.593 61.4753C304.868 60.3106 305.629 58.6889 305.712 56.9645V55.769H319.102C324.96 55.769 329.728 60.0994 329.728 65.4526V266.032C329.728 271.346 324.973 275.743 319.102 275.756L229.718 275.889C223.86 275.889 219.091 271.558 219.091 266.205V65.5987Z" fill="#0078D4"/>
<path d="M205.98 69.5441V270.801C205.98 279.489 213.697 286.529 223.248 286.516L315.236 286.369C324.734 286.369 332.504 279.289 332.504 270.589V69.398C332.504 60.7106 324.787 53.6571 315.236 53.6837L223.248 53.8165C213.697 53.8431 205.98 60.9098 205.98 69.5441ZM214.76 69.6902C214.76 64.3768 219.516 59.98 225.387 59.9667H238.351V61.1622C238.434 62.8855 239.196 64.5058 240.471 65.6685C241.746 66.8311 243.429 67.4414 245.153 67.3656L294.593 67.2859C296.316 67.3545 297.996 66.7396 299.267 65.5752C300.539 64.4108 301.299 62.7913 301.381 61.0693V59.8737H314.771C320.629 59.8737 325.398 64.2041 325.398 69.5706V270.15C325.398 275.464 320.642 279.861 314.771 279.874L225.387 280.02C219.529 280.02 214.76 275.69 214.76 270.323V69.6902Z" fill="white"/>
<path d="M214.76 69.7419V270.322C214.76 275.635 219.515 280.018 225.386 280.018L314.771 279.872C320.629 279.872 325.397 275.515 325.397 270.149V69.5426C325.397 64.2293 320.642 59.8324 314.771 59.8457H301.381V61.0412C301.298 62.7632 300.538 64.3828 299.267 65.5472C297.996 66.7116 296.316 67.3264 294.593 67.2579L245.152 67.3376C243.429 67.4133 241.745 66.8031 240.47 65.6405C239.196 64.4778 238.434 62.8575 238.351 61.1342V59.9387H225.386C219.542 60.0317 214.76 64.3754 214.76 69.7419V69.7419Z" stroke="url(#paint3_linear_303_16297)" stroke-width="0.392763" stroke-miterlimit="10"/>
<path d="M325.372 69.5438V270.123C325.372 275.437 320.616 279.847 314.745 279.847H301.634H275.373H273.407H247.73H225.361C219.503 279.847 214.734 275.517 214.734 270.15V69.5703C214.734 64.257 219.489 59.8469 225.361 59.8469H238.339V61.0424C238.376 61.8939 238.581 62.7297 238.942 63.5019C239.303 64.2741 239.813 64.9675 240.442 65.5425C241.071 66.1175 241.808 66.5627 242.609 66.8527C243.411 67.1427 244.262 67.2717 245.113 67.2325L294.554 67.1661C296.281 67.2381 297.966 66.6231 299.241 65.4555C300.516 64.2879 301.276 62.6629 301.355 60.9361V59.7539H314.745C320.616 59.8602 325.372 64.2304 325.372 69.5438Z" fill="#0078D4"/>
<path d="M263.112 62.992L280.115 62.9655V61.584L263.112 61.6105V62.992Z" fill="url(#paint4_linear_303_16297)"/>
<path d="M258.665 63.7874C259.684 63.7775 260.503 63.0141 260.494 62.0825C260.485 61.1508 259.651 60.4036 258.632 60.4136C257.612 60.4236 256.793 61.1869 256.802 62.1186C256.811 63.0502 257.645 63.7974 258.665 63.7874Z" fill="url(#paint5_linear_303_16297)"/>
<path d="M228.23 159.615H227.38C224.724 159.615 222.571 161.768 222.571 164.424V271.103C222.571 273.759 224.724 275.912 227.38 275.912H228.23C230.886 275.912 233.038 273.759 233.038 271.103V164.424C233.038 161.768 230.886 159.615 228.23 159.615Z" fill="#0078D4"/>
<path d="M191.368 118.066H103.007C97.7466 118.066 93.4824 122.331 93.4824 127.591V260.518C93.4824 265.778 97.7466 270.042 103.007 270.042H191.368C196.628 270.042 200.892 265.778 200.892 260.518V127.591C200.892 122.331 196.628 118.066 191.368 118.066Z" fill="#0078D4"/>
<path d="M189.628 120.672H101.266C96.0063 120.672 91.7422 124.936 91.7422 130.196V263.123C91.7422 268.383 96.0063 272.648 101.266 272.648H189.628C194.888 272.648 199.152 268.383 199.152 263.123V130.196C199.152 124.936 194.888 120.672 189.628 120.672Z" fill="url(#paint6_linear_303_16297)"/>
<path d="M185.842 124.973H97.4803C92.2202 124.973 87.9561 129.237 87.9561 134.497V267.424C87.9561 272.684 92.2202 276.948 97.4803 276.948H185.842C191.102 276.948 195.366 272.684 195.366 267.424V134.497C195.366 129.237 191.102 124.973 185.842 124.973Z" fill="white"/>
<path d="M195.366 189.959V267.468C195.362 269.995 194.356 272.417 192.568 274.203C190.779 275.989 188.356 276.992 185.828 276.992H97.4803C94.9543 276.992 92.5318 275.989 90.7456 274.202C88.9595 272.416 87.9561 269.994 87.9561 267.468V226.847C159.886 242.814 195.366 189.959 195.366 189.959Z" fill="url(#paint7_linear_303_16297)"/>
<path d="M172.067 168.519V292.254H160.79V168.519C160.795 168.044 160.852 167.572 160.962 167.111C161.086 166.65 161.26 166.205 161.48 165.782L161.666 165.437L166.435 156.404L171.39 165.782C171.607 166.205 171.777 166.65 171.895 167.111C172.011 167.571 172.069 168.044 172.067 168.519Z" fill="#0078D4"/>
<path d="M172.067 168.519V292.254H160.79V168.519C160.795 168.044 160.852 167.572 160.962 167.111C161.086 166.65 161.26 166.205 161.48 165.782L161.666 165.437L166.435 156.404L171.39 165.782C171.607 166.205 171.777 166.65 171.895 167.111C172.011 167.571 172.069 168.044 172.067 168.519Z" fill="url(#paint8_linear_303_16297)"/>
<path d="M166.409 194.741V167.059H171.881V292.255H166.409V199.125C166.409 197.903 166.409 196.681 166.409 195.459C166.342 195.152 166.364 194.833 166.472 194.539C166.58 194.245 166.77 193.988 167.02 193.798C167.595 193.277 168.32 192.951 169.092 192.868C169.619 192.878 170.143 192.783 170.633 192.589C170.853 192.434 171.04 192.237 171.184 192.009C171.327 191.781 171.424 191.527 171.47 191.261C171.606 190.795 171.677 190.312 171.682 189.826C171.698 189.751 171.695 189.673 171.674 189.599C171.654 189.525 171.615 189.457 171.563 189.401C171.477 189.339 171.376 189.302 171.27 189.295C170.579 189.201 169.875 189.283 169.225 189.534C168.761 189.774 168.271 189.957 167.764 190.079C167.422 190.12 167.075 190.065 166.763 189.919C166.45 189.774 166.185 189.544 165.997 189.255" fill="#0078D4"/>
<path d="M171.894 167.111C170.293 168.235 168.384 168.838 166.428 168.838C164.472 168.838 162.563 168.235 160.962 167.111L161.666 165.437L166.435 156.404L171.389 165.782C171.607 166.205 171.777 166.65 171.894 167.111Z" fill="#0078D4"/>
<path d="M87.9562 138.419C85.3883 138.264 82.8225 138.753 80.4909 139.84C82.8213 140.931 85.3872 141.424 87.9562 141.274V144.741C82.3904 144.741 76.7848 143.227 76.7848 139.853C76.7848 136.479 82.3904 134.965 87.9562 134.965V138.419Z" fill="#0078D4"/>
<path d="M99.1008 139.84C99.1008 143.214 93.5085 144.728 87.9561 144.728V141.275C92.3794 141.275 95.1158 140.239 95.6604 139.654C95.7146 139.219 95.9321 138.821 96.2688 138.541C96.6055 138.26 97.0364 138.118 97.4739 138.144C97.9114 138.169 98.323 138.36 98.6251 138.677C98.9272 138.995 99.0973 139.415 99.1008 139.853V139.84Z" fill="#0078D4"/>
<path d="M87.9562 158.197C85.3883 158.043 82.8225 158.532 80.4909 159.619C82.8225 160.706 85.3883 161.194 87.9562 161.04V164.507C82.3904 164.507 76.7848 162.993 76.7848 159.619C76.7848 156.245 82.3904 154.73 87.9562 154.73V158.197Z" fill="#0078D4"/>
<path d="M99.1008 159.619C99.1008 162.993 93.5085 164.507 87.9561 164.507V161.04C92.3794 161.04 95.1158 160.004 95.6604 159.42C95.7146 158.985 95.9321 158.587 96.2688 158.306C96.6055 158.026 97.0364 157.884 97.4739 157.909C97.9114 157.934 98.323 158.125 98.6251 158.443C98.9272 158.76 99.0973 159.181 99.1008 159.619Z" fill="#0078D4"/>
<path d="M87.9562 177.965C85.387 177.812 82.8206 178.306 80.4909 179.399C82.8225 180.486 85.3883 180.975 87.9562 180.821V184.288C82.3904 184.288 76.7848 182.773 76.7848 179.399C76.7848 176.025 82.3904 174.484 87.9562 174.484V177.965Z" fill="#0078D4"/>
<path d="M99.1008 179.396C99.1008 182.77 93.5085 184.285 87.9561 184.285V180.818C92.3794 180.818 95.1158 179.782 95.6604 179.197C95.7146 178.762 95.9321 178.364 96.2688 178.084C96.6055 177.803 97.0364 177.661 97.4739 177.686C97.9114 177.712 98.323 177.903 98.6251 178.22C98.9272 178.538 99.0973 178.958 99.1008 179.396Z" fill="#0078D4"/>
<path d="M87.9562 197.743C85.387 197.591 82.8206 198.084 80.4909 199.177C82.8225 200.264 85.3883 200.753 87.9562 200.599V204.066C82.3904 204.066 76.7848 202.551 76.7848 199.177C76.7848 195.803 82.3904 194.289 87.9562 194.289V197.743Z" fill="#0078D4"/>
<path d="M99.1008 199.178C99.1008 202.552 93.5085 204.066 87.9561 204.066V200.599C92.3794 200.599 95.1158 199.563 95.6604 198.978C95.7146 198.543 95.9321 198.145 96.2688 197.865C96.6055 197.584 97.0364 197.442 97.4739 197.468C97.9114 197.493 98.323 197.684 98.6251 198.001C98.9272 198.319 99.0973 198.739 99.1008 199.178Z" fill="#0078D4"/>
<path d="M87.9562 217.52C85.387 217.368 82.8206 217.861 80.4909 218.954C82.8247 220.034 85.3887 220.523 87.9562 220.376V223.843C82.3904 223.843 76.7848 222.328 76.7848 218.954C76.7848 215.58 82.3904 214.053 87.9562 214.053V217.52Z" fill="#0078D4"/>
<path d="M99.1008 218.956C99.1008 222.33 93.5085 223.844 87.9561 223.844V220.377C92.3794 220.377 95.1158 219.341 95.6604 218.744C95.7148 218.308 95.9333 217.909 96.2715 217.628C96.6096 217.348 97.042 217.207 97.4805 217.234C97.919 217.261 98.3307 217.454 98.6317 217.774C98.9328 218.094 99.1005 218.517 99.1008 218.956Z" fill="#0078D4"/>
<path d="M87.9562 237.301C85.387 237.149 82.8206 237.642 80.4909 238.736C82.8247 239.816 85.3887 240.304 87.9562 240.157V243.624C82.3904 243.624 76.7848 242.11 76.7848 238.736C76.7848 235.362 82.3904 233.834 87.9562 233.834V237.301Z" fill="#0078D4"/>
<path d="M99.1008 238.733C99.1008 242.107 93.5085 243.622 87.9561 243.622V240.155C92.3794 240.155 95.1158 239.119 95.6604 238.521C95.7148 238.085 95.9333 237.686 96.2715 237.406C96.6096 237.125 97.042 236.984 97.4805 237.011C97.919 237.038 98.3307 237.231 98.6317 237.551C98.9328 237.871 99.1005 238.294 99.1008 238.733Z" fill="#0078D4"/>
<path d="M87.9562 257.078C85.387 256.926 82.8206 257.419 80.4909 258.513C82.8247 259.593 85.3887 260.081 87.9562 259.934V263.401C82.3904 263.401 76.7848 261.887 76.7848 258.513C76.7848 255.139 82.3904 253.611 87.9562 253.611V257.078Z" fill="#0078D4"/>
<path d="M99.1008 258.515C99.1008 261.889 93.5085 263.403 87.9561 263.403V259.936C92.3794 259.936 95.1158 258.9 95.6604 258.302C95.7148 257.866 95.9333 257.467 96.2715 257.187C96.6096 256.906 97.042 256.765 97.4805 256.792C97.919 256.819 98.3307 257.013 98.6317 257.333C98.9328 257.653 99.1005 258.075 99.1008 258.515Z" fill="#0078D4"/>
<path d="M136.653 264.943C134.807 267.905 132.695 270.692 130.344 273.271C126.717 277.052 122.857 280.601 118.787 283.898C116.781 285.625 114.802 287.365 112.863 289.211C111.269 290.726 109.236 291.762 108.877 294.1C108.638 295.428 108.877 297.155 107.828 298.085C107.432 298.389 106.955 298.57 106.457 298.605C105.958 298.641 105.461 298.529 105.025 298.284C104.168 297.772 103.452 297.055 102.94 296.198C102.714 295.889 102.544 295.543 102.435 295.176C102.335 294.774 102.335 294.355 102.435 293.954C102.86 292.014 104.361 290.553 105.663 289.065C106.833 287.736 107.895 286.314 108.838 284.815C109.625 283.661 110.514 282.581 111.494 281.587L119.172 272.939C121.922 269.844 124.751 266.616 126 262.671C126.334 261.094 126.902 259.576 127.687 258.168C129.653 255.299 134.236 254.874 137.251 256.229C140.917 257.942 138.128 262.591 136.653 264.943Z" fill="#FFBBAB"/>
<path d="M120.753 259.271C120.753 259.271 118.76 276.646 120.753 286.037C121.966 291.822 122.488 297.73 122.307 303.638C121.656 304.541 122.307 305.883 123.237 306.494C124.234 307.015 125.354 307.258 126.478 307.198L131.047 307.357C131.312 307.407 131.585 307.398 131.847 307.331C132.108 307.265 132.352 307.142 132.561 306.972C133.159 306.321 132.561 305.232 131.764 304.846C130.967 304.461 130.024 304.435 129.28 303.983C127.846 303.12 127.66 301.167 127.633 299.493L127.514 292.214C127.341 281.747 127.182 271.226 128.842 260.892C128.935 260.422 128.935 259.94 128.842 259.47C128.49 258.643 127.834 257.982 127.009 257.624C126.176 257.067 125.242 256.679 124.259 256.482C123.766 256.396 123.258 256.455 122.798 256.654C122.338 256.852 121.946 257.18 121.669 257.597" fill="#FFBBAB"/>
<path d="M145.155 194.886L147.718 196.294C148.954 196.971 150.375 198.22 151.703 197.728C153.922 196.865 156.193 194.66 158.146 193.278C160.099 191.897 162.37 190.223 164.469 188.656C165.022 188.306 165.504 187.855 165.89 187.327C166.514 186.291 166.528 184.764 167.617 184.232L168.228 186.889L171.589 185.109C171.984 184.854 172.447 184.724 172.917 184.737C173.82 184.897 174.245 185.999 174.126 186.916C173.86 189.984 170.712 190.967 168.215 191.738C167.54 191.899 166.885 192.135 166.262 192.442C165.783 192.722 165.337 193.056 164.934 193.438C162.651 195.271 160.591 197.367 158.797 199.681C157.987 200.834 157.099 201.93 156.14 202.962C155.392 204.073 154.384 204.985 153.204 205.619C152.306 205.906 151.346 205.943 150.428 205.725C147.094 205.101 144.012 202.829 141.395 200.77C141.103 200.544 140.784 200.186 140.97 199.867C141.08 199.729 141.228 199.627 141.395 199.575C142.421 199.21 143.336 198.588 144.052 197.768C144.447 197.406 144.752 196.957 144.943 196.457C145.135 195.957 145.207 195.419 145.155 194.886Z" fill="#FFBBAB"/>
<path d="M139.044 177.949C138.798 178.392 138.453 178.773 138.036 179.061C137.619 179.349 137.142 179.537 136.64 179.61C136.381 179.579 136.12 179.635 135.896 179.769C135.811 179.879 135.751 180.006 135.721 180.141C135.691 180.277 135.692 180.418 135.724 180.553L135.989 183.98C136.043 184.25 136.005 184.53 135.883 184.777C135.675 185.028 135.382 185.193 135.059 185.242C133.811 185.587 132.283 185.853 131.407 184.91C130.992 184.362 130.744 183.708 130.689 183.024C129.831 179.14 129.598 175.145 129.998 171.188C130.086 169.99 130.432 168.824 131.012 167.772C131.592 166.72 132.393 165.805 133.359 165.091C135.737 163.656 141.821 163.218 141.568 167.203C141.309 168.795 141.136 170.401 141.05 172.012C141.063 174.159 140.357 176.25 139.044 177.949Z" fill="#FFBBAB"/>
<path d="M141.688 163.991C141.941 164.686 141.941 165.448 141.688 166.143C141.487 166.457 141.224 166.727 140.916 166.937C140.608 167.147 140.26 167.293 139.895 167.365C138.101 167.856 136.175 167.723 134.422 168.281C134.134 168.355 133.872 168.506 133.665 168.72C133.508 168.971 133.421 169.26 133.412 169.557C133.013 173.025 133.121 176.533 133.731 179.971C130.5 180.928 127.055 180.887 123.848 179.851C123.333 179.754 122.862 179.498 122.5 179.119C122.138 178.74 121.903 178.258 121.829 177.739C121.083 175.301 120.854 172.734 121.156 170.202C121.458 167.67 122.284 165.229 123.582 163.034C124.17 161.883 125.053 160.907 126.14 160.207C127.227 159.507 128.481 159.108 129.773 159.049C134.103 158.425 140.559 158.863 141.688 163.991Z" fill="#FC682D"/>
<path d="M137.768 220.323C137.503 228.811 140.598 236.794 142.909 244.963C143.932 248.51 145.061 252.163 144.676 255.829C144.682 255.927 144.682 256.024 144.676 256.122C133.478 259.349 121.204 260.957 110.365 256.653C111.519 250.932 112.133 245.114 112.198 239.278C112.099 236.974 112.255 234.667 112.663 232.397C113.539 228.532 116.037 225.251 118.64 222.262C119.691 221.226 120.514 219.981 121.058 218.609C121.373 217.304 121.427 215.95 121.217 214.624C120.746 210.239 120.64 205.823 120.898 201.42C121.169 197.432 122.187 193.529 123.9 189.917C124.629 188.27 125.641 186.764 126.889 185.467C128.152 184.167 129.83 183.35 131.631 183.156C132.53 183.074 133.435 183.232 134.254 183.612C135.072 183.992 135.776 184.582 136.294 185.321C139.017 189.518 143.56 190.462 146.921 194.234C147.12 194.411 147.256 194.649 147.306 194.912C147.301 195.199 147.198 195.475 147.014 195.695C145.858 197.542 144.689 199.388 143.533 201.248C143.173 201.834 142.764 202.389 142.311 202.908C141.899 203.333 141.395 203.679 140.983 204.104C139.91 205.436 139.245 207.051 139.07 208.753C138.337 212.57 137.902 216.438 137.768 220.323Z" fill="#0078D4"/>
<path d="M134.289 305.218L133.159 304.86C132.257 304.528 131.315 304.318 130.357 304.235C130.193 304.221 130.029 304.249 129.878 304.315C129.687 304.434 129.538 304.611 129.453 304.82C129.297 305.141 129.07 305.422 128.789 305.643C128.487 305.772 128.161 305.838 127.833 305.838C127.504 305.838 127.179 305.772 126.876 305.643C126.213 305.493 125.57 305.261 124.964 304.953C124.366 304.62 123.861 304.142 123.25 303.85C123.081 303.756 122.894 303.701 122.701 303.687C122.508 303.673 122.315 303.702 122.134 303.77C121.957 303.876 121.807 304.022 121.696 304.195C121.446 304.462 121.256 304.779 121.138 305.125C121.07 305.467 121.07 305.819 121.138 306.161C121.153 306.465 121.239 306.761 121.39 307.025C121.579 307.209 121.804 307.352 122.051 307.444C122.298 307.535 122.562 307.573 122.825 307.556L128.351 307.901C130.078 308.008 131.805 308.114 133.545 308.087C134.497 308.106 135.448 308.003 136.374 307.782C136.507 307.782 136.653 307.702 136.693 307.569C136.726 307.484 136.726 307.389 136.693 307.304C136.371 306.752 135.941 306.271 135.43 305.888C134.919 305.504 134.337 305.227 133.717 305.072" fill="#0078D4"/>
<path d="M103.179 292.494C103.326 293.039 103.179 293.65 103.312 294.195C103.455 294.624 103.681 295.021 103.976 295.364L105.305 297.011C105.452 297.22 105.637 297.4 105.849 297.542C106.139 297.656 106.449 297.709 106.76 297.698C107.07 297.686 107.376 297.611 107.656 297.476C107.734 297.436 107.821 297.415 107.908 297.415C107.996 297.415 108.082 297.436 108.161 297.476C108.248 297.557 108.308 297.664 108.333 297.781L109.104 300.438C109.422 301.553 109.596 302.705 109.622 303.865C109.516 304.006 109.374 304.117 109.21 304.184C107.988 304.808 105.889 302.032 104.84 301.142C103.852 300.17 103.094 298.99 102.622 297.688C102.316 297.011 102.037 296.36 101.771 295.643C101.464 295.015 101.258 294.342 101.16 293.65C101.157 293.458 101.207 293.27 101.306 293.105C101.405 292.941 101.547 292.807 101.718 292.72C102.077 292.574 103.02 291.897 103.179 292.494Z" fill="#0078D4"/>
<path d="M164.163 160.667H168.693L166.435 156.377L164.163 160.667Z" fill="url(#paint9_linear_303_16297)"/>
<path d="M144.677 255.83C143.871 256.108 143.014 256.208 142.166 256.123C141.317 256.039 140.497 255.771 139.762 255.338C137.198 253.731 136.176 250.53 135.777 247.541C134.754 240.992 135.365 233.899 131.912 228.24C130.862 226.527 129.401 224.786 129.614 222.767C129.826 220.748 131.805 219.247 132.934 217.454C134.015 215.405 134.593 213.129 134.621 210.812C135.007 206.495 135.392 202.165 135.79 197.848C135.79 198.937 140.572 201.261 142.312 202.935C141.901 203.36 141.396 203.706 140.984 204.131C139.911 205.463 139.247 207.078 139.071 208.78C138.361 212.594 137.948 216.458 137.836 220.337C137.57 228.825 140.665 236.808 142.977 244.977C143.933 248.511 145.062 252.164 144.677 255.83Z" fill="url(#paint10_linear_303_16297)"/>
<path d="M301.647 279.938H275.385H273.419L268.85 231.918L279.915 232.29L301.647 233.007C301.647 233.007 302.045 254.619 301.647 279.938Z" fill="#473F47"/>
<path d="M280.26 228.717L279.915 232.343L275.332 279.978H273.366H247.689C247.264 244.112 250.651 223.443 250.651 223.443L280.26 228.717Z" fill="#473F47"/>
<path d="M231.404 185.746C231.577 188.907 232.6 191.683 235.389 192.587C235.616 192.676 235.852 192.743 236.093 192.786C241.154 193.795 247.796 189.943 252.432 186.582C254.354 185.183 256.199 183.68 257.958 182.079V148.193L233.33 173.432C232.031 177.406 231.38 181.564 231.404 185.746Z" fill="white"/>
<path d="M252.22 186.437C252.22 188.018 252.02 189.625 252.02 191.219C252.02 199.973 254.053 209.006 251.436 217.587C250.851 219.5 250.028 221.572 250.705 223.445C251.466 225.02 252.767 226.269 254.372 226.965C262.089 231.189 271.002 232.477 279.716 233.7C286.265 234.616 295.55 236.569 301.607 233.035C304.184 231.534 305.061 228.732 305.885 225.942C308.541 217.069 309.272 207.518 309.963 198.326C310.056 197.117 310.135 195.895 310.215 194.686C310.72 186.3 310.888 177.914 310.72 169.527C310.6 163.444 310.122 156.868 306.15 152.259C300.837 146.135 290.635 142.084 282.878 140.662C280.361 140.15 277.784 140.007 275.226 140.237C271.598 140.814 268.094 142.004 264.865 143.757C261.013 145.657 257.586 147.264 255.687 151.077C253.624 155.5 252.189 160.19 251.423 165.011C250.726 169.522 250.645 174.107 251.184 178.64C251.409 180.858 251.994 183.063 252.206 185.281C252.193 185.667 252.22 186.065 252.22 186.437Z" fill="white"/>
<path opacity="0.1" d="M287.938 236.05C290.476 236.794 296.334 234.47 298.286 234.124C299.442 233.925 300.505 233.341 301.66 233.062C307.452 231.614 308.143 215.328 308.714 210.945C310.215 199.362 312.526 187.367 312.699 175.744C312.956 171.26 312.435 166.766 311.158 162.46C309.697 158.236 306.681 154.331 302.47 152.803C295.058 150.147 292.867 173.552 291.844 178.414L286.278 204.901C285.497 208.151 284.99 211.462 284.764 214.797C284.564 219.433 286.092 222.767 287.234 226.858C287.912 229.17 286.052 233.58 286.969 235.293C287.18 235.663 287.528 235.935 287.938 236.05Z" fill="#020202"/>
<path d="M270.112 133.449C271.045 134.462 272.316 135.1 273.686 135.242C274.83 135.348 275.982 135.348 277.126 135.242H277.764C277.929 135.21 278.1 135.243 278.242 135.335C278.307 135.401 278.359 135.48 278.393 135.567C278.427 135.654 278.444 135.747 278.441 135.84C278.691 138.129 278.736 140.437 278.574 142.734C278.574 143.146 278.507 143.558 278.468 143.969C278.377 144.413 278.414 144.874 278.574 145.298C278.905 145.77 279.404 146.098 279.969 146.214C280.972 146.549 282.02 146.728 283.077 146.746C285.34 146.532 287.516 145.765 289.413 144.514C289.262 140.585 289.471 136.649 290.037 132.758C290.768 127.737 292.083 122.716 291.538 117.668C291.538 116.474 291.279 115.294 290.778 114.209C290.277 113.125 289.546 112.162 288.637 111.388C287.728 110.614 286.661 110.046 285.51 109.725C284.36 109.403 283.154 109.335 281.974 109.525C278.354 109.456 274.79 110.429 271.706 112.328C271.245 112.692 270.871 113.154 270.609 113.68C270.347 114.206 270.205 114.783 270.192 115.37C269.794 117.349 269.475 119.355 269.262 121.348C269.01 123.646 268.877 125.944 268.837 128.242C268.635 130.074 269.086 131.918 270.112 133.449Z" fill="#FDBAAC"/>
<path d="M274.11 113.512C276.674 113.937 279.424 113.512 281.921 114.482C285.322 115.81 286.77 120.286 285.627 123.78C286.61 124.139 286.796 122.372 287.553 121.655C288.31 120.937 290.024 121.894 290.21 123.129C290.142 124.366 289.768 125.566 289.121 126.623C288.197 128.795 288.038 131.216 288.669 133.49C288.828 134.021 289.214 134.659 289.758 134.513C290.303 134.367 290.675 133.464 290.994 133.065C291.479 132.436 292.017 131.85 292.601 131.312C293.81 130.262 295.112 129.346 296.334 128.323C298.512 126.503 300.531 124.032 300.398 121.203C300.329 120.049 299.943 118.937 299.283 117.988C298.726 117.169 298.007 116.472 297.17 115.943C296.825 115.717 296.427 115.491 296.36 115.079C296.341 114.855 296.369 114.629 296.44 114.415C296.695 112.966 296.532 111.474 295.969 110.114C295.407 108.755 294.469 107.583 293.265 106.737C290.797 105.079 287.969 104.032 285.016 103.682C283.117 103.337 281.217 103.071 279.304 102.845C277.723 102.773 276.169 102.408 274.721 101.769C275.092 100.706 275.601 99.697 276.236 98.7672C274.877 99.167 273.584 99.7621 272.397 100.534C272.463 99.8721 272.638 99.2257 272.915 98.6211C270.765 99.14 268.807 100.26 267.269 101.849C266.47 102.954 266.023 104.274 265.988 105.637C265.952 107 266.329 108.342 267.07 109.487C268.545 111.812 270.869 112.741 273.42 113.352L274.11 113.512Z" fill="#F86938"/>
<path d="M277.125 135.294H277.763C277.928 135.262 278.1 135.295 278.241 135.387C278.307 135.453 278.358 135.532 278.392 135.619C278.427 135.706 278.443 135.799 278.44 135.892C278.691 138.181 278.735 140.489 278.573 142.786C278.573 142.786 285.215 141.112 284.936 132.996C282.433 134.035 279.829 134.809 277.165 135.307L277.125 135.294Z" fill="#DEA095"/>
<path d="M226.808 163.15C226.349 168.745 226.866 174.377 228.336 179.794C229.425 183.646 231.478 187.157 234.3 189.996C234.806 190.488 235.427 190.846 236.107 191.036C236.787 191.226 237.504 191.243 238.192 191.085C240.723 190.622 243.046 189.377 244.834 187.525C249.363 182.517 246.282 174.813 246.282 174.813C246.282 174.813 236.903 160.055 234.818 159.457C233.689 159.112 231.404 160.254 229.505 161.357C228.057 162.26 226.808 163.15 226.808 163.15Z" fill="white"/>
<path opacity="0.1" d="M227.618 173.977C228.351 178.255 229.3 182.493 230.461 186.675C230.78 188.081 231.376 189.409 232.214 190.581C234.565 193.463 238.856 193.237 242.044 192.228C243.08 191.896 252.804 187.579 252.405 186.583V186.476L250.838 176.341C250.97 177.165 246.76 180.034 246.202 180.459C243.545 182.491 239.64 185.772 236.505 182.651C235.459 181.463 234.684 180.063 234.233 178.546C232.254 173.238 230.764 167.76 229.783 162.181C229.483 162.065 229.162 162.01 228.84 162.021C228.518 162.031 228.202 162.106 227.909 162.241C227.617 162.376 227.355 162.569 227.138 162.807C226.921 163.045 226.755 163.325 226.648 163.629C226.259 164.874 226.227 166.205 226.555 167.468C226.874 169.646 227.233 171.825 227.618 173.977Z" fill="#020202"/>
<path d="M321.16 188.015C323.352 193.966 325.291 200.276 324.388 206.546C323.312 214.157 318.251 220.52 313.376 226.471C309.55 227.042 304.529 226.962 303.174 223.336C302.833 222.168 302.742 220.942 302.909 219.736L303.453 211.886C303.904 208.393 303.724 204.848 302.922 201.418C301.766 197.58 299.11 194.418 297.011 191.004C293.586 185.456 291.553 179.163 291.086 172.66C290.648 166.549 295.257 146.837 304.264 152.735C307.996 155.179 311.304 165.314 313.27 169.392C316.21 175.44 318.84 181.648 321.16 188.015Z" fill="white"/>
<path d="M300.863 231.827C300.655 232.128 300.544 232.485 300.544 232.85C300.544 233.209 300.996 233.541 301.315 233.382C302.231 236.198 300.319 239.147 300.319 242.122C300.312 242.388 300.352 242.654 300.438 242.906C300.57 243.231 300.797 243.509 301.089 243.703C301.586 244.017 302.155 244.202 302.742 244.239C303.33 244.276 303.917 244.165 304.45 243.915C305.518 243.414 306.471 242.7 307.253 241.817C308.959 240.25 310.262 238.295 311.052 236.118C311.326 235.1 311.509 234.06 311.596 233.01L312.513 225.265C306.695 223.366 303.56 227.218 300.863 231.827Z" fill="#FDBAAC"/>
<path d="M236.89 152.672C237.109 152.171 237.187 151.62 237.116 151.078C237.07 150.812 236.923 150.574 236.704 150.415C236.486 150.257 236.214 150.189 235.947 150.228C235.628 150.307 235.416 150.586 235.137 150.746C234.803 150.919 234.425 150.986 234.052 150.939C233.68 150.891 233.331 150.731 233.051 150.48C232.491 149.979 232.039 149.369 231.723 148.687C230.678 146.852 229.529 145.078 228.283 143.373C228.027 142.941 227.641 142.602 227.18 142.404C226.905 142.345 226.622 142.342 226.346 142.395C226.07 142.447 225.807 142.554 225.573 142.709C224.452 143.399 223.52 144.356 222.86 145.494C222.199 146.632 221.83 147.916 221.787 149.231C221.73 151.876 222.512 154.47 224.019 156.644C225.512 158.811 227.265 160.787 229.239 162.528C229.681 163.036 230.263 163.401 230.913 163.578C234.605 164.189 236.199 154.797 236.89 152.672Z" fill="#FDBAAC"/>
<path opacity="0.41" d="M221.773 82.041H260.96V116.565H221.773V82.041Z" fill="white"/>
</g>
<defs>
<filter id="filter0_d_303_16297" x="0" y="0" width="424.281" height="334.334" filterUnits="userSpaceOnUse" color-interpolation-filters="sRGB">
<feFlood flood-opacity="0" result="BackgroundImageFix"/>
<feColorMatrix in="SourceAlpha" type="matrix" values="0 0 0 0 0 0 0 0 0 0 0 0 0 0 0 0 0 0 127 0" result="hardAlpha"/>
<feOffset dy="4"/>
<feGaussianBlur stdDeviation="8"/>
<feComposite in2="hardAlpha" operator="out"/>
<feColorMatrix type="matrix" values="0 0 0 0 0.0156863 0 0 0 0 0.47451 0 0 0 0 0.835294 0 0 0 0.24 0"/>
<feBlend mode="normal" in2="BackgroundImageFix" result="effect1_dropShadow_303_16297"/>
<feBlend mode="normal" in="SourceGraphic" in2="effect1_dropShadow_303_16297" result="shape"/>
</filter>
<linearGradient id="paint0_linear_303_16297" x1="231.284" y1="145.656" x2="94.8104" y2="261.912" gradientUnits="userSpaceOnUse">
<stop offset="0.01"/>
<stop offset="0.13" stop-opacity="0.69"/>
<stop offset="0.25" stop-opacity="0.32"/>
<stop offset="1" stop-opacity="0"/>
</linearGradient>
<linearGradient id="paint1_linear_303_16297" x1="2225.91" y1="247.223" x2="2431.43" y2="57.3094" gradientUnits="userSpaceOnUse">
<stop offset="0.01"/>
<stop offset="0.13" stop-opacity="0.69"/>
<stop offset="0.25" stop-opacity="0.32"/>
<stop offset="1" stop-opacity="0"/>
</linearGradient>
<linearGradient id="paint2_linear_303_16297" x1="222.411" y1="185.92" x2="259.485" y2="533.229" gradientUnits="userSpaceOnUse">
<stop offset="0.01"/>
<stop offset="0.08" stop-opacity="0.69"/>
<stop offset="0.21" stop-opacity="0.32"/>
<stop offset="1" stop-opacity="0"/>
</linearGradient>
<linearGradient id="paint3_linear_303_16297" x1="370.113" y1="98.5138" x2="204.165" y2="242.988" gradientUnits="userSpaceOnUse">
<stop stop-color="white"/>
<stop offset="1" stop-color="#CBCBCB"/>
</linearGradient>
<linearGradient id="paint4_linear_303_16297" x1="282.516" y1="46.5339" x2="282.589" y2="57.4662" gradientUnits="userSpaceOnUse">
<stop stop-color="white"/>
<stop offset="1" stop-color="#CBCBCB"/>
</linearGradient>
<linearGradient id="paint5_linear_303_16297" x1="269.994" y1="49.9186" x2="269.45" y2="57.9368" gradientUnits="userSpaceOnUse">
<stop stop-color="white"/>
<stop offset="1" stop-color="#CBCBCB"/>
</linearGradient>
<linearGradient id="paint6_linear_303_16297" x1="1896.88" y1="178.893" x2="3524.13" y2="258.886" gradientUnits="userSpaceOnUse">
<stop offset="0.01"/>
<stop offset="0.13" stop-opacity="0.69"/>
<stop offset="0.25" stop-opacity="0.32"/>
<stop offset="1" stop-opacity="0"/>
</linearGradient>
<linearGradient id="paint7_linear_303_16297" x1="105.676" y1="63.5406" x2="179.824" y2="404.991" gradientUnits="userSpaceOnUse">
<stop offset="0.01"/>
<stop offset="0.08" stop-opacity="0.69"/>
<stop offset="0.21" stop-opacity="0.32"/>
<stop offset="1" stop-opacity="0"/>
</linearGradient>
<linearGradient id="paint8_linear_303_16297" x1="2246.07" y1="225.598" x2="2380.49" y2="220.829" gradientUnits="userSpaceOnUse">
<stop offset="0.01"/>
<stop offset="0.13" stop-opacity="0.69"/>
<stop offset="0.25" stop-opacity="0.32"/>
<stop offset="1" stop-opacity="0"/>
</linearGradient>
<linearGradient id="paint9_linear_303_16297" x1="2272.19" y1="155.367" x2="2312.3" y2="176.608" gradientUnits="userSpaceOnUse">
<stop offset="0.01"/>
<stop offset="0.13" stop-opacity="0.69"/>
<stop offset="0.25" stop-opacity="0.32"/>
<stop offset="1" stop-opacity="0"/>
</linearGradient>
<linearGradient id="paint10_linear_303_16297" x1="2187.45" y1="212.792" x2="2346.19" y2="247.86" gradientUnits="userSpaceOnUse">
<stop offset="0.01"/>
<stop offset="0.13" stop-opacity="0.69"/>
<stop offset="0.25" stop-opacity="0.32"/>
<stop offset="1" stop-opacity="0"/>
</linearGradient>
</defs>
</svg>
