<svg width="97" height="110" viewBox="0 0 97 110" fill="none" xmlns="http://www.w3.org/2000/svg">
<g clip-path="url(#clip0_316_3299)">
<path d="M48.125 55C63.3145 55 75.625 42.6895 75.625 27.5C75.625 12.3105 63.3145 0 48.125 0C32.9355 0 20.625 12.3105 20.625 27.5C20.625 42.6895 32.9355 55 48.125 55ZM67.375 61.875H63.7871C59.0176 64.0664 53.7109 65.3125 48.125 65.3125C42.5391 65.3125 37.2539 64.0664 32.4629 61.875H28.875C12.9336 61.875 0 74.8086 0 90.75V99.6875C0 105.381 4.61914 110 10.3125 110H85.9375C91.6309 110 96.25 105.381 96.25 99.6875V90.75C96.25 74.8086 83.3164 61.875 67.375 61.875Z" fill="#000" fill-opacity="1"/>
</g>
<defs>
<clipPath id="clip0_316_3299">
<rect width="96.25" height="110" fill="white"/>
</clipPath>
</defs>
</svg>
