<svg width="36" height="37" viewBox="0 0 36 37" fill="none" xmlns="http://www.w3.org/2000/svg">
<path d="M14.4 25.2996C15.39 25.2996 16.2 24.4896 16.2 23.4996V12.6996C16.2 11.7096 15.39 10.8996 14.4 10.8996C13.41 10.8996 12.6 11.7096 12.6 12.6996V23.4996C12.6 24.4896 13.41 25.2996 14.4 25.2996ZM18 0.0996094C8.064 0.0996094 0 8.16361 0 18.0996C0 28.0356 8.064 36.0996 18 36.0996C27.936 36.0996 36 28.0356 36 18.0996C36 8.16361 27.936 0.0996094 18 0.0996094ZM18 32.4996C10.062 32.4996 3.6 26.0376 3.6 18.0996C3.6 10.1616 10.062 3.69961 18 3.69961C25.938 3.69961 32.4 10.1616 32.4 18.0996C32.4 26.0376 25.938 32.4996 18 32.4996ZM21.6 25.2996C22.59 25.2996 23.4 24.4896 23.4 23.4996V12.6996C23.4 11.7096 22.59 10.8996 21.6 10.8996C20.61 10.8996 19.8 11.7096 19.8 12.6996V23.4996C19.8 24.4896 20.61 25.2996 21.6 25.2996Z" fill="#EB001B"/>
</svg>
