<svg width="14" height="13" viewBox="0 0 14 13" fill="none" xmlns="http://www.w3.org/2000/svg">
<path d="M2.80002 10.4H0.93334C0.685879 10.3998 0.448623 10.3084 0.273642 10.1459C0.0986602 9.98342 0.000247091 9.76312 0 9.53333V7.8H0.93334V9.53333H2.80002V10.4ZM0 4.33333H0.93334V6.06667H0V4.33333ZM11.2001 2.6H10.2667V0.866667H8.40006V0H10.2667C10.5142 0.00022944 10.7515 0.0916124 10.9264 0.254094C11.1014 0.416576 11.1998 0.636883 11.2001 0.866667V2.6ZM4.6667 0H6.53338V0.866667H4.6667V0ZM0.93334 2.6H0V0.866667C0.000247091 0.636883 0.0986602 0.416576 0.273642 0.254094C0.448623 0.0916124 0.685879 0.00022944 0.93334 0H2.80002V0.866667H0.93334V2.6ZM11.6667 13C11.6055 13.0001 11.5448 12.9889 11.4881 12.9671C11.4315 12.9453 11.3801 12.9133 11.3368 12.873L8.47239 10.2132L6.92165 12.3738C6.87251 12.4423 6.8034 12.4963 6.72241 12.5296C6.64142 12.5629 6.55189 12.5742 6.46428 12.562C6.37667 12.5498 6.29461 12.5147 6.22768 12.4608C6.16075 12.407 6.11171 12.3365 6.08631 12.2577L3.28629 3.59103C3.2621 3.5161 3.26021 3.43648 3.28082 3.36063C3.30142 3.28478 3.34376 3.21553 3.40333 3.16021C3.4629 3.1049 3.53748 3.06559 3.61917 3.04645C3.70086 3.02732 3.7866 3.02907 3.86729 3.05153L13.2007 5.65153C13.2856 5.67512 13.3614 5.72065 13.4195 5.7828C13.4775 5.84495 13.5153 5.92115 13.5284 6.0025C13.5415 6.08385 13.5294 6.16699 13.4935 6.24219C13.4577 6.3174 13.3995 6.38157 13.3258 6.4272L10.9989 7.86717L13.8634 10.527C13.9509 10.6082 14 10.7184 14 10.8333C14 10.9482 13.9509 11.0584 13.8634 11.1397L11.9967 12.873C11.9534 12.9133 11.902 12.9453 11.8454 12.9671C11.7887 12.9889 11.728 13.0001 11.6667 13ZM11.6667 11.9539L12.8736 10.8333L9.53453 7.73283L11.9827 6.21703L4.42963 4.1132L6.69531 11.1267L8.32773 8.85343L11.6667 11.9539Z" fill="#212121"/>
</svg>
