<svg width="19" height="22" viewBox="0 0 19 22" fill="none" xmlns="http://www.w3.org/2000/svg">
<path d="M10.0002 13.252V15.342C9.09517 15.022 8.12652 14.9239 7.17565 15.0558C6.22478 15.1877 5.31944 15.5459 4.53568 16.1002C3.75191 16.6545 3.11259 17.3888 2.67141 18.2414C2.23022 19.094 2.00006 20.04 2.00024 21L0.000244399 20.999C-6.59735e-05 19.7779 0.279165 18.5729 0.816543 17.4764C1.35392 16.3799 2.13518 15.4209 3.10046 14.673C4.06574 13.9251 5.18942 13.4081 6.3854 13.1616C7.58137 12.9152 8.81791 12.9457 10.0002 13.251V13.252ZM8.00024 12C4.68524 12 2.00024 9.315 2.00024 6C2.00024 2.685 4.68524 0 8.00024 0C11.3152 0 14.0002 2.685 14.0002 6C14.0002 9.315 11.3152 12 8.00024 12ZM8.00024 10C10.2102 10 12.0002 8.21 12.0002 6C12.0002 3.79 10.2102 2 8.00024 2C5.79024 2 4.00024 3.79 4.00024 6C4.00024 8.21 5.79024 10 8.00024 10ZM13.7932 18.914L17.3282 15.379L18.7432 16.793L13.7932 21.743L10.2572 18.207L11.6722 16.793L13.7922 18.914H13.7932Z" fill="#0A033C"/>
</svg>
