<?xml version="1.0" encoding="UTF-8"?>
<svg id="Calque_2" data-name="Calque 2" xmlns="http://www.w3.org/2000/svg" viewBox="0 0 517.03 491.06">
  <defs>
    <style>
      .cls-1 {
        fill: #0078d4;
      }
    </style>
  </defs>
  <g id="Logo">
    <path class="cls-1" d="m507.58,230.41l-49.62-48.64v-80.67c0-10.41-8.44-18.84-18.84-18.84h-26.26c-9.77,0-17.7,7.92-17.7,17.7v20.25L282.53,9.81c-6.67-6.54-15.34-9.81-24.01-9.81s-17.34,3.27-24.01,9.81L9.44,230.41c-9.13,8.95-11.94,22.54-7.11,34.38,4.84,11.84,16.35,19.58,29.14,19.58h11.98v174.14c0,17.97,14.57,32.54,32.54,32.54h365.02c17.97,0,32.54-14.57,32.54-32.54v-174.14h11.98c12.79,0,24.31-7.74,29.14-19.58,4.84-11.84,2.03-25.43-7.11-34.38Zm-389.19-49.36c1.43.04,3.06-.36,4.26.18,13.96,6.28,27.85,12.71,41.76,19.1.86.4,1.71.84,2.79,1.38-8.9,9.18-17.57,18.11-26.46,27.27-.48-.82-.85-1.37-1.14-1.95-6.95-13.97-13.92-27.93-20.77-41.95-.56-1.14-.31-2.68-.44-4.03Zm127.46,195.94c-1.87-1.92-4.02-4.17-6.22-6.38-4.3-4.33-8.61-8.66-12.96-12.94-2.45-2.41-5.27-2.57-7.29-.54-2.02,2.02-1.85,4.87.56,7.29,6.46,6.49,12.96,12.93,19.18,19.13-6.75,6.77-13.38,13.42-20.37,20.43-2.56-2.68-5.44-5.77-8.42-8.77-2.66-2.67-5.37-2.89-7.5-.79-2.08,2.05-1.83,4.93.74,7.5,2.99,2.99,6.03,5.92,8.9,8.74-6.83,6.83-13.43,13.42-20.48,20.46-1.13-1.25-2.38-2.73-3.74-4.11-5.13-5.17-10.27-10.34-15.46-15.45-2.51-2.48-5.2-2.63-7.28-.57-2.02,2-1.87,4.87.55,7.29,6.45,6.49,12.96,12.92,20.1,20.04-2.46,2.19-4.86,4.19-7.08,6.35-4.1,3.98-8.07,8.08-12.14,12.09-3.01,2.97-5.39,2.98-8.36.02-12.55-12.52-25.08-25.05-37.59-37.6-2.8-2.81-2.84-5.11-.06-7.89,31.25-31.27,62.51-62.53,93.78-93.78.21-.21.46-.37.89-.71,15.54,14.96,30.91,29.77,46.1,44.39-5.26,5.24-10.4,10.36-15.85,15.79Zm145.74,66.98c-8.08,8.53-21.03,8.7-29.85.26-14.44-13.82-28.81-27.71-43.2-41.57-31.42-30.25-62.83-60.5-94.24-90.75-25.32-24.38-50.63-48.76-75.97-73.12-.55-.53-1.34-.83-2.21-1.34,10.09-10.4,19.59-20.19,29.24-30.13,7.79,7.49,15.44,14.85,23.09,22.22,33.26,32.03,66.51,64.06,99.77,96.09,30.63,29.5,61.29,58.98,91.91,88.5,8.92,8.59,9.5,21.36,1.46,29.84Zm6.85-218.68c-6.03,6.05-12.06,12.09-18.43,18.47-3.1-3.22-5.99-6.3-8.98-9.29-2.65-2.66-5.37-2.89-7.5-.8-2.08,2.05-1.83,4.93.73,7.5,2.98,2.99,6.02,5.93,8.89,8.76-6.81,6.79-13.42,13.37-20.65,20.59-.76-.97-1.61-2.29-2.69-3.38-5.4-5.47-10.83-10.9-16.3-16.29-2.52-2.49-5.19-2.64-7.28-.58-2.02,2-1.88,4.87.53,7.3,6.45,6.49,12.95,12.93,19.18,19.14-6.77,6.76-13.41,13.38-20.46,20.43-2.54-2.68-5.39-5.79-8.35-8.79-2.67-2.71-5.32-2.93-7.48-.8-2.08,2.06-1.84,4.91.74,7.52,2.96,2.99,5.99,5.93,8.83,8.72-4.97,4.95-9.69,9.66-14.68,14.63-15.15-14.58-30.58-29.43-46.18-44.44.78-.83,1.48-1.61,2.21-2.35,30.63-30.64,61.27-61.27,91.91-91.91,3.97-3.97,5.81-3.97,9.82.03,12.05,12.04,24.09,24.09,36.13,36.14,3.72,3.72,3.71,5.66,0,9.39Z"/>
  </g>
</svg>