<svg width="36" height="41" viewBox="0 0 36 41" fill="none" xmlns="http://www.w3.org/2000/svg">
<path d="M19.2072 24.479V28.3239C17.4688 27.7352 15.6083 27.5546 13.7819 27.7973C11.9556 28.04 10.2167 28.6989 8.71128 29.7187C7.20588 30.7385 5.97793 32.0893 5.13055 33.6578C4.28316 35.2263 3.84108 36.9667 3.84143 38.7327L4.96422e-07 38.7309C-0.000595641 36.4844 0.535729 34.2677 1.56788 32.2505C2.60003 30.2332 4.10061 28.4691 5.95464 27.0932C7.80867 25.7173 9.96694 24.7662 12.2641 24.3127C14.5612 23.8593 16.9362 23.9155 19.2072 24.4771V24.479ZM15.3657 22.1757C8.99856 22.1757 3.84143 17.2362 3.84143 11.1376C3.84143 5.03913 8.99856 0.0996094 15.3657 0.0996094C21.7329 0.0996094 26.89 5.03913 26.89 11.1376C26.89 17.2362 21.7329 22.1757 15.3657 22.1757ZM15.3657 18.4963C19.6105 18.4963 23.0486 15.2033 23.0486 11.1376C23.0486 7.07197 19.6105 3.77895 15.3657 3.77895C11.121 3.77895 7.68287 7.07197 7.68287 11.1376C7.68287 15.2033 11.121 18.4963 15.3657 18.4963ZM26.4925 34.8952L33.2822 28.3919L36 30.9932L26.4925 40.0996L19.7008 33.5945L22.4186 30.9932L26.4905 34.8952H26.4925Z" fill="#4DC643"/>
</svg>
