<svg width="20" height="10" viewBox="0 0 20 10" fill="none" xmlns="http://www.w3.org/2000/svg">
<path d="M2.57492 5.00033C2.57492 3.43283 3.84909 2.15866 5.41659 2.15866H9.08325V0.416992H5.41659C2.88659 0.416992 0.833252 2.47033 0.833252 5.00033C0.833252 7.53033 2.88659 9.58366 5.41659 9.58366H9.08325V7.84199H5.41659C3.84909 7.84199 2.57492 6.56783 2.57492 5.00033ZM6.33325 5.91699H13.6666V4.08366H6.33325V5.91699ZM14.5833 0.416992H10.9166V2.15866H14.5833C16.1508 2.15866 17.4249 3.43283 17.4249 5.00033C17.4249 6.56783 16.1508 7.84199 14.5833 7.84199H10.9166V9.58366H14.5833C17.1133 9.58366 19.1666 7.53033 19.1666 5.00033C19.1666 2.47033 17.1133 0.416992 14.5833 0.416992Z" fill="black" fill-opacity="0.54"/>
</svg>
