<svg width="24" height="24" viewBox="0 0 24 24" fill="none" xmlns="http://www.w3.org/2000/svg">
<path fill-rule="evenodd" clip-rule="evenodd" d="M16.5303 9.53033C16.8232 9.23744 16.8232 8.76256 16.5303 8.46967C16.2374 8.17678 15.7626 8.17678 15.4697 8.46967L13.3409 10.5985C12.9442 10.3765 12.4869 10.25 12 10.25C10.4812 10.25 9.25 11.4812 9.25 13C9.25 14.5188 10.4812 15.75 12 15.75C13.5188 15.75 14.75 14.5188 14.75 13C14.75 12.5131 14.6235 12.0558 14.4015 11.6591L16.5303 9.53033ZM10.75 13C10.75 12.3096 11.3096 11.75 12 11.75C12.6904 11.75 13.25 12.3096 13.25 13C13.25 13.6904 12.6904 14.25 12 14.25C11.3096 14.25 10.75 13.6904 10.75 13Z" fill="black"/>
<path fill-rule="evenodd" clip-rule="evenodd" d="M12 4.75C7.44365 4.75 3.75 8.44365 3.75 13C3.75 15.2812 4.67491 17.345 6.17201 18.8393C6.46519 19.1319 6.46564 19.6068 6.17303 19.8999C5.88042 20.1931 5.40554 20.1936 5.11237 19.9009C3.34488 18.1368 2.25 15.6956 2.25 13C2.25 7.61522 6.61522 3.25 12 3.25C17.3848 3.25 21.75 7.61522 21.75 13C21.75 15.6922 20.6579 18.1307 18.8943 19.8943C18.6014 20.1872 18.1265 20.1872 17.8336 19.8943C17.5407 19.6014 17.5407 19.1265 17.8336 18.8336C19.3274 17.3399 20.25 15.2784 20.25 13C20.25 8.44365 16.5563 4.75 12 4.75Z" fill="black"/>
</svg>
