<svg width="22" height="22" viewBox="0 0 22 22" fill="none" xmlns="http://www.w3.org/2000/svg">
<g opacity="1">
<path d="M10.9998 4.05469L12.5021 7.04557L15.7141 7.52534L13.3569 9.70853L14.1427 12.9393L10.9998 11.122L7.85695 12.9393L8.64266 9.70853L6.28552 7.52534L9.58552 7.04557L10.9998 4.05469Z" fill="black"/>
<path d="M12.364 21.8252L11 21.0175L14.1429 15.3637H18.8571C19.0636 15.364 19.2681 15.3224 19.4589 15.2413C19.6497 15.1603 19.823 15.0413 19.969 14.8912C20.115 14.7412 20.2307 14.563 20.3096 14.3668C20.3884 14.1707 20.4289 13.9605 20.4286 13.7483V4.05596C20.4289 3.84374 20.3884 3.63354 20.3096 3.43741C20.2307 3.24128 20.115 3.06307 19.969 2.913C19.823 2.76294 19.6497 2.64396 19.4589 2.56289C19.2681 2.48183 19.0636 2.44026 18.8571 2.44058H3.14286C2.93641 2.44026 2.73193 2.48183 2.54113 2.56289C2.35034 2.64396 2.17698 2.76294 2.031 2.913C1.88502 3.06307 1.76928 3.24128 1.69041 3.43741C1.61155 3.63354 1.57112 3.84374 1.57143 4.05596V13.7483C1.57112 13.9605 1.61155 14.1707 1.69041 14.3668C1.76928 14.563 1.88502 14.7412 2.031 14.8912C2.17698 15.0413 2.35034 15.1603 2.54113 15.2413C2.73193 15.3224 2.93641 15.364 3.14286 15.3637H10.2143V16.979H3.14286C2.30932 16.979 1.50992 16.6387 0.920522 16.0328C0.331122 15.4269 9.82725e-08 14.6051 9.82725e-08 13.7483V4.05596C-0.000103129 3.63166 0.0811188 3.2115 0.239026 2.81948C0.396932 2.42745 0.62843 2.07125 0.920291 1.77123C1.21215 1.4712 1.55866 1.23323 1.94002 1.07091C2.32137 0.908583 2.7301 0.825089 3.14286 0.825195H18.8571C19.2699 0.825089 19.6786 0.908583 20.06 1.07091C20.4413 1.23323 20.7878 1.4712 21.0797 1.77123C21.3716 2.07125 21.6031 2.42745 21.761 2.81948C21.9189 3.2115 22.0001 3.63166 22 4.05596V13.7483C22 14.6051 21.6689 15.4269 21.0795 16.0328C20.4901 16.6387 19.6907 16.979 18.8571 16.979H15.0582L12.364 21.8252Z" fill="black"/>
</g>
</svg>
