<svg width="24" height="25" viewBox="0 0 24 25" fill="none" xmlns="http://www.w3.org/2000/svg">
<g opacity="1">
<path fill-rule="evenodd" clip-rule="evenodd" d="M7.66667 5.94141L8.20818 4.72299C8.68969 3.63961 9.76405 2.94141 10.9496 2.94141H13.0504C14.2359 2.94141 15.3103 3.63961 15.7918 4.72299L16.3333 5.94141H19C20.6569 5.94141 22 7.28455 22 8.94141V19.9414C22 21.5983 20.6569 22.9414 19 22.9414H5C3.34315 22.9414 2 21.5983 2 19.9414V8.94141C2 7.28455 3.34315 5.94141 5 5.94141H7.66667ZM10.9496 4.44141H13.0504C13.6432 4.44141 14.1803 4.79051 14.4211 5.3322L14.6919 5.94141H9.30814L9.5789 5.3322C9.81965 4.79051 10.3568 4.44141 10.9496 4.44141ZM5 7.44141C4.17157 7.44141 3.5 8.11298 3.5 8.94141V19.9414C3.5 20.7698 4.17157 21.4414 5 21.4414H19C19.8284 21.4414 20.5 20.7698 20.5 19.9414V8.94141C20.5 8.11298 19.8284 7.44141 19 7.44141H5Z" fill="black"/>
<path fill-rule="evenodd" clip-rule="evenodd" d="M14.7324 14.9414H19C20.6569 14.9414 22 13.5983 22 11.9414V8.94141C22 7.28455 20.6569 5.94141 19 5.94141H5C3.34315 5.94141 2 7.28455 2 8.94141V11.9414C2 13.5983 3.34315 14.9414 5 14.9414H9.26756C9.61337 15.5392 10.2597 15.9414 11 15.9414H13C13.7403 15.9414 14.3866 15.5392 14.7324 14.9414ZM19 7.44141H5C4.17157 7.44141 3.5 8.11298 3.5 8.94141V11.9414C3.5 12.7698 4.17157 13.4414 5 13.4414H9.06301C9.28503 12.5788 10.0681 11.9414 11 11.9414H13C13.9319 11.9414 14.715 12.5788 14.937 13.4414H19C19.8284 13.4414 20.5 12.7698 20.5 11.9414V8.94141C20.5 8.11298 19.8284 7.44141 19 7.44141ZM11 13.4414H13C13.2761 13.4414 13.5 13.6653 13.5 13.9414C13.5 14.2175 13.2761 14.4414 13 14.4414H11C10.7239 14.4414 10.5 14.2175 10.5 13.9414C10.5 13.6653 10.7239 13.4414 11 13.4414Z" fill="black"/>
</g>
</svg>
