<svg width="15" height="16" viewBox="0 0 15 16" fill="none" xmlns="http://www.w3.org/2000/svg">
<path d="M5.92077 0C6.09524 0 6.26257 0.0629536 6.38595 0.175012C6.50932 0.28707 6.57863 0.439054 6.57863 0.597529V2.58929C6.57863 2.74776 6.50932 2.89975 6.38595 3.01181C6.26257 3.12387 6.09524 3.18682 5.92077 3.18682C5.74629 3.18682 5.57896 3.12387 5.45559 3.01181C5.33221 2.89975 5.2629 2.74776 5.2629 2.58929V0.597529C5.2629 0.439054 5.33221 0.28707 5.45559 0.175012C5.57896 0.0629536 5.74629 0 5.92077 0ZM1.72799 1.56951C1.85134 1.45761 2.01854 1.39476 2.19288 1.39476C2.36721 1.39476 2.53442 1.45761 2.65777 1.56951L4.19278 2.96374C4.25741 3.01844 4.30926 3.08441 4.34521 3.15771C4.38117 3.231 4.4005 3.31013 4.40206 3.39036C4.40362 3.47059 4.38737 3.55028 4.35428 3.62469C4.3212 3.69909 4.27195 3.76668 4.20948 3.82342C4.14701 3.88016 4.0726 3.92489 3.99068 3.95494C3.90877 3.98499 3.82103 3.99975 3.73269 3.99834C3.64436 3.99692 3.55725 3.97936 3.47655 3.9467C3.39586 3.91404 3.32323 3.86696 3.263 3.80825L1.72799 2.41402C1.60479 2.30198 1.53559 2.15011 1.53559 1.99176C1.53559 1.83342 1.60479 1.68155 1.72799 1.56951ZM10.1135 1.56951C10.2367 1.68155 10.3059 1.83342 10.3059 1.99176C10.3059 2.15011 10.2367 2.30198 10.1135 2.41402L8.57853 3.80825C8.51831 3.86696 8.44568 3.91404 8.36498 3.9467C8.28428 3.97936 8.19717 3.99692 8.10884 3.99834C8.02051 3.99975 7.93277 3.98499 7.85085 3.95494C7.76894 3.92489 7.69452 3.88016 7.63205 3.82342C7.56958 3.76668 7.52034 3.69909 7.48725 3.62469C7.45416 3.55028 7.43791 3.47059 7.43947 3.39036C7.44103 3.31013 7.46036 3.231 7.49632 3.15771C7.53228 3.08441 7.58412 3.01844 7.64875 2.96374L9.18377 1.56951C9.30712 1.45761 9.47432 1.39476 9.64866 1.39476C9.82299 1.39476 9.9902 1.45761 10.1135 1.56951ZM0 5.37776C0 5.21928 0.0693103 5.0673 0.192684 4.95524C0.316057 4.84318 0.483387 4.78023 0.657863 4.78023H2.85074C3.02522 4.78023 3.19255 4.84318 3.31592 4.95524C3.43929 5.0673 3.5086 5.21928 3.5086 5.37776C3.5086 5.53623 3.43929 5.68821 3.31592 5.80027C3.19255 5.91233 3.02522 5.97529 2.85074 5.97529H0.657863C0.483387 5.97529 0.316057 5.91233 0.192684 5.80027C0.0693103 5.68821 0 5.53623 0 5.37776ZM7.17246 5.16743C6.4225 4.58265 5.2629 5.06704 5.2629 5.96493V14.947C5.2629 15.911 6.57424 16.3667 7.2821 15.6481L9.57498 13.3193C9.81707 13.0739 10.1574 12.9289 10.5197 12.9154L13.8879 12.7927C14.9379 12.7544 15.3922 11.5666 14.594 10.9443L7.17334 5.16743H7.17246ZM6.57863 14.5693V6.27883L13.4309 11.6136L10.4662 11.7211C10.1111 11.7342 9.76256 11.8118 9.44118 11.9495C9.11979 12.0872 8.83211 12.2821 8.5952 12.5226L6.57863 14.5693Z" fill="#212121"/>
</svg>
