<svg width="186" height="165" viewBox="0 0 186 165" fill="none" xmlns="http://www.w3.org/2000/svg">
<path opacity="0.18" d="M173.518 89.0336C165.046 102.433 154.239 114.168 143.379 125.725C132.658 137.135 121.552 148.623 107.65 155.812C90.9099 164.479 71.249 166.173 52.5372 163.967C30.5103 161.367 4.04168 153.546 1.91829 127.133C1.40695 120.737 2.70265 114.345 3.06666 107.94C4.18468 88.5439 -8.59464 65.7196 11.0229 51.6056C21.8911 43.8054 37.4265 44.1868 47.3588 35.2209C54.8036 28.4997 57.5424 17.8134 64.6622 10.7499C69.6413 5.83147 76.4405 3.04507 83.3393 1.74937C92.4396 0.0419941 101.713 0.882682 110.896 0.406003C120.629 -0.0836759 130.474 -0.460685 140.107 1.32903C147.427 2.69427 154.44 5.37053 160.808 9.22889C164.688 11.5845 168.264 14.408 171.456 17.6358C179.841 26.1596 185.297 37.6693 185.934 49.5992C186.683 63.5919 180.998 77.1946 173.518 89.0336Z" fill="#0078D4"/>
<path d="M39.7275 135.795C35.5587 135.591 30.6273 135.721 28.2266 139.127C29.7346 141.004 32.1267 141.901 34.4624 142.538C40.9105 144.306 47.636 144.739 54.3095 145.164C62.1444 145.666 70.2566 146.126 77.6018 143.352C78.9538 142.841 80.3925 142.091 80.8779 140.731C78.5812 138.69 75.2791 138.347 72.211 138.105C61.4511 137.251 50.5265 135.795 39.7275 135.795Z" fill="url(#paint0_linear_375_3649)"/>
<path d="M54.1188 140.532C54.1188 141.398 54.1752 142.399 54.8382 142.976C55.2529 143.284 55.7448 143.471 56.2595 143.517C58.4671 143.846 60.7225 143.536 62.7597 142.625C62.923 142.571 63.0634 142.464 63.1584 142.321C63.1994 142.218 63.2172 142.107 63.2104 141.996C63.1908 141.438 62.9708 140.906 62.5907 140.497C62.0217 139.982 61.3338 139.615 60.5886 139.431L57.4122 138.378C56.5455 138.083 55.4665 137.814 54.5565 138.118C54.0625 138.283 54.1232 138.066 54.0972 138.759C54.0842 139.344 54.1188 139.942 54.1188 140.532Z" fill="#2E2E3F"/>
<path d="M54.1188 140.532C54.1188 141.398 54.1752 142.399 54.8382 142.976C55.2529 143.284 55.7448 143.471 56.2595 143.517C58.4671 143.846 60.7225 143.536 62.7597 142.625C62.923 142.571 63.0634 142.464 63.1584 142.321C63.1994 142.218 63.2172 142.107 63.2104 141.996C63.1908 141.438 62.9708 140.906 62.5907 140.497C62.0217 139.982 61.3338 139.615 60.5886 139.431L57.4122 138.378C56.5455 138.083 55.4665 137.814 54.5565 138.118C54.0625 138.283 54.1232 138.066 54.0972 138.759C54.0842 139.344 54.1188 139.942 54.1188 140.532Z" fill="url(#paint1_linear_375_3649)"/>
<path d="M43.9664 98.7531C44.6857 110.479 45.4224 122.37 43.0087 133.854C42.8096 134.585 42.7277 135.342 42.766 136.099C42.7896 136.477 42.908 136.843 43.1102 137.163C43.3124 137.483 43.5919 137.748 43.9231 137.932C44.3332 138.085 44.7793 138.113 45.2056 138.014C45.632 137.915 46.0194 137.691 46.3194 137.373C46.9101 136.726 47.3536 135.958 47.6195 135.124C49.3139 130.738 50.3712 126.132 51.3636 121.534C52.6347 115.638 53.8091 109.715 54.8867 103.767C55.7187 99.1647 56.4944 94.4673 55.8964 89.8262L48.7938 90.5499C47.0605 90.7232 44.6771 91.0959 43.9231 92.9766C43.286 94.5453 43.8667 97.1323 43.9664 98.7531Z" fill="#2E2E3F"/>
<path d="M43.9664 98.7531C44.6857 110.479 45.4224 122.37 43.0087 133.854C42.8096 134.585 42.7277 135.342 42.766 136.099C42.7896 136.477 42.908 136.843 43.1102 137.163C43.3124 137.483 43.5919 137.748 43.9231 137.932C44.3332 138.085 44.7793 138.113 45.2056 138.014C45.632 137.915 46.0194 137.691 46.3194 137.373C46.9101 136.726 47.3536 135.958 47.6195 135.124C49.3139 130.738 50.3712 126.132 51.3636 121.534C52.6347 115.638 53.8091 109.715 54.8867 103.767C55.7187 99.1647 56.4944 94.4673 55.8964 89.8262L48.7938 90.5499C47.0605 90.7232 44.6771 91.0959 43.9231 92.9766C43.286 94.5453 43.8667 97.1323 43.9664 98.7531Z" fill="url(#paint2_linear_375_3649)"/>
<path d="M42.4617 139.001C42.4225 139.553 42.5623 140.104 42.8604 140.57C43.099 140.84 43.3952 141.053 43.7271 141.194C45.3957 141.985 47.2805 142.197 49.0832 141.796C49.5812 141.705 50.053 141.505 50.4656 141.211C50.6692 141.062 50.8343 140.866 50.9473 140.64C51.0603 140.414 51.118 140.164 51.1156 139.911C51.0852 139.672 51.0051 139.441 50.8805 139.235C50.7559 139.028 50.5894 138.85 50.3919 138.711C49.9953 138.439 49.5712 138.209 49.1265 138.026C47.4972 137.251 46.0931 135.543 44.2731 135.292C42.2927 135.027 42.4314 137.68 42.4617 139.001Z" fill="#2E2E3F"/>
<path d="M42.4617 139.001C42.4225 139.553 42.5623 140.104 42.8604 140.57C43.099 140.84 43.3952 141.053 43.7271 141.194C45.3957 141.985 47.2805 142.197 49.0832 141.796C49.5812 141.705 50.053 141.505 50.4656 141.211C50.6692 141.062 50.8343 140.866 50.9473 140.64C51.0603 140.414 51.118 140.164 51.1156 139.911C51.0852 139.672 51.0051 139.441 50.8805 139.235C50.7559 139.028 50.5894 138.85 50.3919 138.711C49.9953 138.439 49.5712 138.209 49.1265 138.026C47.4972 137.251 46.0931 135.543 44.2731 135.292C42.2927 135.027 42.4314 137.68 42.4617 139.001Z" fill="url(#paint3_linear_375_3649)"/>
<path d="M63.4138 108.303C63.3558 111.554 63.091 114.798 62.6208 118.015C62.1875 120.827 61.4941 123.596 60.8094 126.356L57.893 138.226C57.8506 138.533 57.7109 138.818 57.4944 139.04C57.3072 139.172 57.0921 139.258 56.866 139.292L55.2583 139.647C55.0494 139.714 54.8262 139.723 54.6126 139.673C54.1533 139.513 54.0623 138.919 54.0536 138.434C53.8846 130.2 54.4523 121.941 53.9496 113.733C53.6029 108.074 52.7536 102.466 52.2422 96.8066C52.1036 95.2553 52.0082 93.5999 52.7536 92.2305C53.6203 90.6488 55.3536 89.8775 56.9614 89.3228C58.2614 88.8894 60.7618 87.6674 62.0575 88.5904C63.3532 89.5135 63.1148 91.9098 63.1928 93.2142C63.3402 95.5918 63.4355 97.9709 63.4788 100.351C63.5106 102.998 63.489 105.648 63.4138 108.303Z" fill="#2E2E3F"/>
<path d="M63.4138 108.303C63.3558 111.554 63.091 114.798 62.6208 118.015C62.1875 120.827 61.4941 123.596 60.8094 126.356L57.893 138.226C57.8506 138.533 57.7109 138.818 57.4944 139.04C57.3072 139.172 57.0921 139.258 56.866 139.292L55.2583 139.647C55.0494 139.714 54.8262 139.723 54.6126 139.673C54.1533 139.513 54.0623 138.919 54.0536 138.434C53.8846 130.2 54.4523 121.941 53.9496 113.733C53.6029 108.074 52.7536 102.466 52.2422 96.8066C52.1036 95.2553 52.0082 93.5999 52.7536 92.2305C53.6203 90.6488 55.3536 89.8775 56.9614 89.3228C58.2614 88.8894 60.7618 87.6674 62.0575 88.5904C63.3532 89.5135 63.1148 91.9098 63.1928 93.2142C63.3402 95.5918 63.4355 97.9709 63.4788 100.351C63.5106 102.998 63.489 105.648 63.4138 108.303Z" fill="url(#paint4_linear_375_3649)"/>
<path d="M58.5954 46.4067C58.6518 47.0827 58.7081 47.828 59.1804 48.3177C59.4881 48.6384 59.9691 48.8551 60.0471 49.2927C60.1251 49.7304 59.7221 50.1594 59.4881 50.5494C58.9551 51.4811 59.3408 52.7162 58.8988 53.6825C58.617 54.232 58.1593 54.6714 57.5987 54.9305C57.0386 55.1916 56.459 55.4089 55.8654 55.5806C55.3137 55.7081 54.8253 56.0276 54.4873 56.4819C53.95 57.3963 54.691 58.6486 54.2533 59.6107C53.9153 60.3647 53.001 60.655 52.1819 60.7807C51.7533 60.8713 51.3105 60.8713 50.8819 60.7807C50.5674 60.6801 50.277 60.5159 50.0287 60.2982C49.7804 60.0805 49.5796 59.814 49.4389 59.5153C49.1607 58.9162 48.9779 58.2772 48.8972 57.6216C48.5332 55.5026 48.3338 53.3532 48.1648 51.2081C48.0695 49.9948 47.9915 48.7164 48.5245 47.6244C48.9234 46.8969 49.4748 46.2642 50.1409 45.7696C50.871 45.1157 51.7389 44.6343 52.6803 44.3613C53.5289 44.2081 54.3967 44.1935 55.25 44.3179L56.6844 44.4523C57.0504 44.4311 57.4177 44.4588 57.7764 44.5346C58.4481 44.799 58.5478 45.8433 58.5954 46.4067Z" fill="#98646A"/>
<path d="M58.1266 45.1334C58.0509 45.2776 57.9496 45.4068 57.8276 45.5147C56.2632 47.0444 53.8625 47.4041 52.1941 48.8125C52.0844 48.8946 51.9904 48.9959 51.9168 49.1115C51.816 49.3461 51.7815 49.6039 51.8171 49.8568C51.8395 50.5184 51.7944 51.1805 51.6828 51.8329C51.5032 51.6308 51.3912 51.3779 51.3621 51.1092C51.2928 50.8448 51.1368 50.5588 50.8681 50.5328C50.77 50.5319 50.6738 50.5592 50.5908 50.6114C50.5078 50.6637 50.4416 50.7387 50.4001 50.8275C50.3164 51.0038 50.2706 51.1957 50.2657 51.3909C50.1985 51.7882 50.1985 52.1939 50.2657 52.5912C50.3022 52.7926 50.3888 52.9815 50.5175 53.1406C50.6463 53.2996 50.813 53.4237 51.0024 53.5012C51.0588 53.5096 51.1099 53.539 51.1454 53.5836C51.2018 53.6746 51.0978 53.7786 51.0067 53.8393L48.5887 55.3863C48.5017 55.452 48.3982 55.4925 48.2897 55.5033C48.1033 55.5033 47.9733 55.3213 47.8563 55.1653C47.2372 54.2691 46.7375 53.296 46.37 52.2706C46.1706 51.6205 46.0753 50.9445 45.8846 50.2945C45.746 49.8178 45.5553 49.3585 45.4513 48.8688C45.3783 48.4395 45.3579 48.003 45.3906 47.5688C45.4158 47.0844 45.4737 46.6023 45.5639 46.1257C45.7456 45.0138 46.1914 43.9616 46.864 43.0577C47.3778 42.4415 48.0133 41.938 48.7306 41.5786C49.4479 41.2192 50.2316 41.0117 51.0327 40.9689C52.6437 40.8951 54.2366 41.3336 55.5829 42.2213C56.4366 42.7196 58.7983 43.7423 58.1266 45.1334Z" fill="#3D3D54"/>
<path d="M58.1266 45.1334C58.0509 45.2776 57.9496 45.4068 57.8276 45.5147C56.2632 47.0444 53.8625 47.4041 52.1941 48.8125C52.0844 48.8946 51.9904 48.9959 51.9168 49.1115C51.816 49.3461 51.7815 49.6039 51.8171 49.8568C51.8395 50.5184 51.7944 51.1805 51.6828 51.8329C51.5032 51.6308 51.3912 51.3779 51.3621 51.1092C51.2928 50.8448 51.1368 50.5588 50.8681 50.5328C50.77 50.5319 50.6738 50.5592 50.5908 50.6114C50.5078 50.6637 50.4416 50.7387 50.4001 50.8275C50.3164 51.0038 50.2706 51.1957 50.2657 51.3909C50.1985 51.7882 50.1985 52.1939 50.2657 52.5912C50.3022 52.7926 50.3888 52.9815 50.5175 53.1406C50.6463 53.2996 50.813 53.4237 51.0024 53.5012C51.0588 53.5096 51.1099 53.539 51.1454 53.5836C51.2018 53.6746 51.0978 53.7786 51.0067 53.8393L48.5887 55.3863C48.5017 55.452 48.3982 55.4925 48.2897 55.5033C48.1033 55.5033 47.9733 55.3213 47.8563 55.1653C47.2372 54.2691 46.7375 53.296 46.37 52.2706C46.1706 51.6205 46.0753 50.9445 45.8846 50.2945C45.746 49.8178 45.5553 49.3585 45.4513 48.8688C45.3783 48.4395 45.3579 48.003 45.3906 47.5688C45.4158 47.0844 45.4737 46.6023 45.5639 46.1257C45.7456 45.0138 46.1914 43.9616 46.864 43.0577C47.3778 42.4415 48.0133 41.938 48.7306 41.5786C49.4479 41.2192 50.2316 41.0117 51.0327 40.9689C52.6437 40.8951 54.2366 41.3336 55.5829 42.2213C56.4366 42.7196 58.7983 43.7423 58.1266 45.1334Z" fill="url(#paint5_linear_375_3649)"/>
<path d="M78.0791 50.1764C78.5175 49.5897 79.0506 49.0801 79.6564 48.6684C80.267 48.2535 81.0089 48.0776 81.7408 48.1744C81.5848 49.0411 80.5405 49.4224 80.1244 50.1938C80.0806 50.2643 80.0553 50.3448 80.0508 50.4278C80.0794 50.5872 80.1697 50.7289 80.3021 50.8221C80.7801 51.2252 81.1796 51.7129 81.4808 52.2608C81.6311 52.5342 81.726 52.8344 81.7602 53.1445C81.7944 53.4546 81.7672 53.7683 81.6801 54.0679C81.374 54.7643 80.826 55.3262 80.1374 55.6496C79.4553 55.967 78.8149 56.3672 78.2307 56.8413C77.884 57.1749 77.5374 57.6213 77.0607 57.5953C76.918 57.5778 76.7816 57.5262 76.6631 57.4447C76.5447 57.3632 76.4477 57.2543 76.3803 57.1273C76.2487 56.8746 76.1719 56.597 76.155 56.3126C76.0456 55.2129 76.1597 54.1025 76.4903 53.048C76.821 51.9935 77.3614 51.0168 78.0791 50.1764Z" fill="#98646A"/>
<path d="M79.2311 58.567C78.713 61.0924 77.8159 63.525 76.5703 65.7822C76.1696 66.5681 75.6653 67.2968 75.0709 67.9489C73.6972 69.3572 71.6909 70.0029 69.7235 70.1156C67.7561 70.2283 63.4747 70.1633 61.5463 69.7906V70.1806C61.5159 76.9884 65.6804 89.3431 62.8463 91.8045C62.5863 92.0341 60.5712 92.4025 57.9929 92.8142C54.2964 93.4078 49.4516 94.0839 46.9469 94.5475C46.0802 94.7122 45.0142 94.8205 44.4118 94.1619C44.3642 94.1099 44.3252 94.0535 44.2818 93.9972C44.0186 93.4681 43.8709 92.889 43.8485 92.2985C43.6362 90.8598 42.9211 89.5641 42.3968 88.212C40.7328 83.9263 40.9624 79.1638 40.0957 74.6484C39.7707 72.9367 39.2854 71.2596 39.047 69.5349C38.8312 67.8869 38.7949 66.2203 38.9387 64.5645C39.073 62.8311 39.5844 60.842 41.1921 60.231L41.2571 60.205C41.7381 60.0447 42.2885 59.984 42.6221 59.5983C43.0555 59.1173 42.9081 58.385 43.0555 57.7653C43.0555 57.709 43.0858 57.6569 43.1032 57.6006C43.4628 56.5606 44.7065 55.9799 45.8246 56.0449C46.8256 56.1056 47.5839 56.5866 48.4809 56.9636C49.2003 57.2669 49.8807 57.1629 50.6477 57.1976C52.6194 57.2973 53.5207 57.0373 55.2931 57.9733C55.5531 58.112 55.2325 59.4467 55.4838 59.607C56.1858 60.0403 58.5475 59.906 59.2626 60.335C60.9082 61.2598 62.6764 61.9469 64.5147 62.3761C65.9577 62.7574 67.5481 63.0868 68.9088 62.4887C70.1005 61.9644 70.8935 60.8464 71.6302 59.776C72.6096 58.3416 73.5932 56.9159 74.5726 55.4859C74.8369 55.1002 75.175 54.6712 75.643 54.6582C75.9259 54.682 76.1971 54.7824 76.4273 54.9485L78.0784 55.9539C78.5122 56.1672 78.8805 56.4935 79.1444 56.8986C79.3609 57.429 79.3915 58.017 79.2311 58.567Z" fill="#0078D4"/>
<path d="M44.2734 93.9871C43.9667 93.8203 43.6911 93.6019 43.4587 93.3414C42.7263 92.5267 42.3233 91.4607 41.617 90.6156C41.1403 90.0393 40.5336 89.5756 40.1046 88.9646C39.7222 88.3739 39.4369 87.7258 39.2596 87.0449C37.3832 80.8351 37.0365 74.2699 36.9585 67.7784C36.8772 66.5155 37.0031 65.2479 37.3312 64.0256C37.6149 63.1769 38.0841 62.4021 38.7048 61.7574C39.3254 61.1128 40.0819 60.6145 40.9193 60.2989C41.0219 60.2572 41.1277 60.2239 41.2356 60.1992L41.1706 60.2252C39.5629 60.8319 39.0516 62.8253 38.9172 64.5587C38.7788 66.2166 38.821 67.8846 39.0429 69.5334C39.2813 71.2668 39.7666 72.9352 40.0916 74.6469C40.9583 79.1624 40.7286 83.9248 42.3927 88.2106C42.917 89.5626 43.632 90.8583 43.8444 92.297C43.8666 92.8843 44.0128 93.4602 44.2734 93.9871Z" fill="#0078D4"/>
<path d="M44.2734 93.9871C43.9667 93.8203 43.6911 93.6019 43.4587 93.3414C42.7263 92.5267 42.3233 91.4607 41.617 90.6156C41.1403 90.0393 40.5336 89.5756 40.1046 88.9646C39.7222 88.3739 39.4369 87.7258 39.2596 87.0449C37.3832 80.8351 37.0365 74.2699 36.9585 67.7784C36.8772 66.5155 37.0031 65.2479 37.3312 64.0256C37.6149 63.1769 38.0841 62.4021 38.7048 61.7574C39.3254 61.1128 40.0819 60.6145 40.9193 60.2989C41.0219 60.2572 41.1277 60.2239 41.2356 60.1992L41.1706 60.2252C39.5629 60.8319 39.0516 62.8253 38.9172 64.5587C38.7788 66.2166 38.821 67.8846 39.0429 69.5334C39.2813 71.2668 39.7666 72.9352 40.0916 74.6469C40.9583 79.1624 40.7286 83.9248 42.3927 88.2106C42.917 89.5626 43.632 90.8583 43.8444 92.297C43.8666 92.8843 44.0128 93.4602 44.2734 93.9871Z" fill="url(#paint6_linear_375_3649)"/>
<path d="M53.4205 65.2683C53.1691 67.2313 52.3761 69.0817 51.7998 70.9798C49.633 78.1906 50.5907 86.2898 47.1543 92.9893C46.9806 93.3894 46.7166 93.7439 46.383 94.025C46.0646 94.2213 45.6967 94.3224 45.3227 94.3162C44.9487 94.3101 44.5843 94.197 44.2726 93.9903C44.0093 93.4612 43.8616 92.8822 43.8392 92.2916C43.6269 90.8529 42.9119 89.5572 42.3875 88.2052C40.7235 83.9194 40.9532 79.157 40.0865 74.6415C39.7615 72.9298 39.2761 71.2528 39.0378 69.528C38.8219 67.88 38.7856 66.2134 38.9294 64.5576C39.0638 62.8242 39.5751 60.8352 41.1828 60.2241L41.2478 60.1981C41.7288 60.0378 42.2792 59.9771 42.6129 59.5915C43.0462 59.1105 42.8989 58.3781 43.0462 57.7584C43.0462 57.7021 43.0765 57.6501 43.0939 57.5938C42.9595 59.2795 42.2705 61.9922 42.2272 62.5902C42.1752 63.8902 43.3582 64.9736 44.6236 65.2466C45.8889 65.5196 47.1976 65.1729 48.4327 64.7743C50.4258 64.1973 52.2451 63.1358 53.7281 61.6845C53.9535 62.7029 53.5591 64.2022 53.4205 65.2683Z" fill="url(#paint7_linear_375_3649)"/>
<path d="M62.8382 91.7797C62.5782 92.0094 60.5632 92.3777 57.9848 92.7894C58.1798 91.381 58.9078 90.0853 59.3281 88.7203C59.9781 86.6012 59.8828 84.3262 59.6445 82.1205C59.1764 77.8564 58.1971 73.6659 57.5687 69.4235C57.5297 69.1765 60.4851 69.8568 61.5468 69.7658C61.5165 76.5737 65.6939 89.3183 62.8382 91.7797Z" fill="url(#paint8_linear_375_3649)"/>
<path d="M173.518 89.0371C165.046 102.436 154.238 114.171 143.379 125.728H96.725C94.9115 125.729 93.1158 125.372 91.4402 124.679C89.7646 123.985 88.2421 122.968 86.9596 121.686C85.6771 120.404 84.6598 118.882 83.9657 117.206C83.2716 115.531 82.9143 113.735 82.9143 111.922V23.0388C82.9143 21.2253 83.2716 19.4297 83.9657 17.7543C84.6598 16.079 85.6771 14.5568 86.9596 13.2747C88.2421 11.9926 89.7646 10.9757 91.4402 10.2821C93.1158 9.58854 94.9115 9.23185 96.725 9.23242H160.808C164.688 11.588 168.264 14.4115 171.455 17.6393C179.84 26.1632 185.296 37.6728 185.933 49.6028C186.683 63.5955 180.997 77.1981 173.518 89.0371Z" fill="#0078D4"/>
<path d="M185.63 58.079C185.416 59.8123 185.127 61.5212 184.763 63.2054C182.765 72.3273 178.553 81.0809 173.527 89.0284C166.771 99.7103 158.533 109.339 149.97 118.656C147.795 121.025 145.6 123.38 143.387 125.72H96.725C94.9115 125.72 93.1158 125.364 91.4402 124.67C89.7646 123.976 88.2421 122.96 86.9596 121.677C85.6771 120.395 84.6598 118.873 83.9657 117.198C83.2716 115.522 82.9143 113.727 82.9143 111.913V23.0388C82.9143 21.2253 83.2716 19.4297 83.9657 17.7543C84.6598 16.079 85.6771 14.5568 86.9596 13.2747C88.2421 11.9926 89.7646 10.9757 91.4402 10.2821C93.1158 9.58854 94.9115 9.23185 96.725 9.23242H160.808C164.688 11.588 168.264 14.4115 171.455 17.6393C176.566 22.8322 180.52 29.0483 183.056 35.8788C184.699 40.283 185.669 44.9095 185.933 49.6028C186.081 52.4316 185.979 55.2679 185.63 58.079Z" fill="url(#paint9_linear_375_3649)"/>
<path d="M185.63 58.0752H102.047V35.875H183.056C184.699 40.2792 185.669 44.9058 185.934 49.599C186.081 52.4278 185.98 55.2642 185.63 58.0752Z" fill="url(#paint10_linear_375_3649)"/>
<path d="M116.867 28.8516H92.8425C90.4205 28.8516 88.457 30.815 88.457 33.237V41.0155C88.457 43.4376 90.4205 45.401 92.8425 45.401H116.867C119.289 45.401 121.253 43.4376 121.253 41.0155V33.237C121.253 30.815 119.289 28.8516 116.867 28.8516Z" fill="url(#paint11_linear_375_3649)"/>
<path d="M184.755 63.2029C182.757 72.3248 178.545 81.0783 173.518 89.0259C166.762 99.7078 158.524 109.337 149.962 118.654H102.047V63.1855L184.755 63.2029Z" fill="url(#paint12_linear_375_3649)"/>
<path d="M76.0811 16.9683L83.8249 25.1672L85.1899 24.1445L80.7525 13.7832L76.0811 16.9683Z" fill="#0078D4"/>
<path d="M88.834 10.7082L90.771 22.3219L92.5954 22.2092L93.9604 9.68555L88.834 10.7082Z" fill="#0078D4"/>
<path d="M71.1888 26.9922L82.2304 29.1546V31.772L70.7295 31.889L71.1888 26.9922Z" fill="#0078D4"/>
<path d="M115.766 28.8516H91.7419C89.3199 28.8516 87.3564 30.815 87.3564 33.237V41.0155C87.3564 43.4376 89.3199 45.401 91.7419 45.401H115.766C118.188 45.401 120.152 43.4376 120.152 41.0155V33.237C120.152 30.815 118.188 28.8516 115.766 28.8516Z" fill="#0078D4"/>
<path d="M115.082 28.8516H91.0573C88.6353 28.8516 86.6719 30.815 86.6719 33.237V41.0155C86.6719 43.4376 88.6353 45.401 91.0573 45.401H115.082C117.504 45.401 119.467 43.4376 119.467 41.0155V33.237C119.467 30.815 117.504 28.8516 115.082 28.8516Z" fill="url(#paint13_linear_375_3649)"/>
<path d="M87.3564 32.7832H120.152V41.6841H87.3564V32.7832Z" fill="url(#paint14_linear_375_3649)"/>
<path d="M103.069 38.5293L101.361 38.6463L105.231 53.6747L106.938 53.562L110.583 49.9176L115.025 59.1435L116.732 59.0265L120.602 56.5217L113.088 48.3229L118.327 45.3631L103.069 38.5293Z" fill="url(#paint15_linear_375_3649)"/>
<path d="M101.361 38.6426L105.231 53.671L108.876 50.0265L115.025 59.1398L118.894 56.6307L111.38 48.4318L116.619 45.4721L101.361 38.6426Z" fill="white"/>
<defs>
<linearGradient id="paint0_linear_375_3649" x1="64.7098" y1="118.699" x2="38.0158" y2="174.549" gradientUnits="userSpaceOnUse">
<stop offset="0.01"/>
<stop offset="0.23" stop-opacity="0.11"/>
<stop offset="0.32" stop-opacity="0.08"/>
<stop offset="1" stop-opacity="0"/>
</linearGradient>
<linearGradient id="paint1_linear_375_3649" x1="58.5649" y1="140.644" x2="57.0872" y2="145.771" gradientUnits="userSpaceOnUse">
<stop offset="0.01"/>
<stop offset="0.54" stop-opacity="0.11"/>
<stop offset="0.6" stop-opacity="0.08"/>
<stop offset="1" stop-opacity="0"/>
</linearGradient>
<linearGradient id="paint2_linear_375_3649" x1="61.0835" y1="111.771" x2="36.1835" y2="116.173" gradientUnits="userSpaceOnUse">
<stop offset="0.01"/>
<stop offset="0.13" stop-opacity="0.69"/>
<stop offset="1" stop-opacity="0"/>
</linearGradient>
<linearGradient id="paint3_linear_375_3649" x1="48.2555" y1="132.692" x2="46.5871" y2="139.526" gradientUnits="userSpaceOnUse">
<stop offset="0.01"/>
<stop offset="0.13" stop-opacity="0.69"/>
<stop offset="1" stop-opacity="0"/>
</linearGradient>
<linearGradient id="paint4_linear_375_3649" x1="62.3652" y1="114.11" x2="47.4885" y2="113.655" gradientUnits="userSpaceOnUse">
<stop offset="0.01"/>
<stop offset="0.54" stop-opacity="0.11"/>
<stop offset="0.6" stop-opacity="0.08"/>
<stop offset="1" stop-opacity="0"/>
</linearGradient>
<linearGradient id="paint5_linear_375_3649" x1="47.7653" y1="47.9068" x2="59.0019" y2="49.3498" gradientUnits="userSpaceOnUse">
<stop offset="0.01"/>
<stop offset="0.54" stop-opacity="0.11"/>
<stop offset="0.6" stop-opacity="0.08"/>
<stop offset="1" stop-opacity="0"/>
</linearGradient>
<linearGradient id="paint6_linear_375_3649" x1="44.7934" y1="77.156" x2="37.2792" y2="76.9263" gradientUnits="userSpaceOnUse">
<stop offset="0.01"/>
<stop offset="0.13" stop-opacity="0.69"/>
<stop offset="1" stop-opacity="0"/>
</linearGradient>
<linearGradient id="paint7_linear_375_3649" x1="37.1614" y1="46.9162" x2="48.671" y2="76.9686" gradientUnits="userSpaceOnUse">
<stop offset="0.01"/>
<stop offset="0.13" stop-opacity="0.69"/>
<stop offset="1" stop-opacity="0"/>
</linearGradient>
<linearGradient id="paint8_linear_375_3649" x1="80.3756" y1="93.7298" x2="39.273" y2="68.8991" gradientUnits="userSpaceOnUse">
<stop offset="0.01"/>
<stop offset="0.13" stop-opacity="0.69"/>
<stop offset="1" stop-opacity="0"/>
</linearGradient>
<linearGradient id="paint9_linear_375_3649" x1="29.795" y1="-48.359" x2="176.456" y2="125.629" gradientUnits="userSpaceOnUse">
<stop offset="0.02" stop-color="white" stop-opacity="0.05"/>
<stop offset="0.03" stop-color="white" stop-opacity="0.16"/>
<stop offset="0.04" stop-color="white" stop-opacity="0.24"/>
<stop offset="0.06" stop-color="white" stop-opacity="0.31"/>
<stop offset="0.07" stop-color="white" stop-opacity="0.36"/>
<stop offset="0.1" stop-color="white" stop-opacity="0.38"/>
<stop offset="0.16" stop-color="white" stop-opacity="0.39"/>
<stop offset="0.84" stop-color="white" stop-opacity="0.68"/>
<stop offset="1" stop-color="white"/>
</linearGradient>
<linearGradient id="paint10_linear_375_3649" x1="90.6066" y1="46.9773" x2="174.563" y2="46.9773" gradientUnits="userSpaceOnUse">
<stop offset="0.02" stop-color="white" stop-opacity="0.05"/>
<stop offset="0.03" stop-color="white" stop-opacity="0.16"/>
<stop offset="0.04" stop-color="white" stop-opacity="0.24"/>
<stop offset="0.06" stop-color="white" stop-opacity="0.31"/>
<stop offset="0.07" stop-color="white" stop-opacity="0.36"/>
<stop offset="0.1" stop-color="white" stop-opacity="0.38"/>
<stop offset="0.16" stop-color="white" stop-opacity="0.39"/>
<stop offset="0.84" stop-color="white" stop-opacity="0.68"/>
<stop offset="1" stop-color="white"/>
</linearGradient>
<linearGradient id="paint11_linear_375_3649" x1="88.457" y1="37.1241" x2="121.248" y2="37.1241" gradientUnits="userSpaceOnUse">
<stop offset="0.01"/>
<stop offset="0.13" stop-opacity="0.69"/>
<stop offset="1" stop-opacity="0"/>
</linearGradient>
<linearGradient id="paint12_linear_375_3649" x1="81.5106" y1="90.9282" x2="164.223" y2="90.9282" gradientUnits="userSpaceOnUse">
<stop offset="0.02" stop-color="white" stop-opacity="0.05"/>
<stop offset="0.03" stop-color="white" stop-opacity="0.16"/>
<stop offset="0.04" stop-color="white" stop-opacity="0.24"/>
<stop offset="0.06" stop-color="white" stop-opacity="0.31"/>
<stop offset="0.07" stop-color="white" stop-opacity="0.36"/>
<stop offset="0.1" stop-color="white" stop-opacity="0.38"/>
<stop offset="0.16" stop-color="white" stop-opacity="0.39"/>
<stop offset="0.84" stop-color="white" stop-opacity="0.68"/>
<stop offset="1" stop-color="white"/>
</linearGradient>
<linearGradient id="paint13_linear_375_3649" x1="103.07" y1="48.8937" x2="103.07" y2="30.3683" gradientUnits="userSpaceOnUse">
<stop offset="0.01"/>
<stop offset="0.13" stop-opacity="0.69"/>
<stop offset="1" stop-opacity="0"/>
</linearGradient>
<linearGradient id="paint14_linear_375_3649" x1="106.064" y1="65.5223" x2="102.116" y2="17.2435" gradientUnits="userSpaceOnUse">
<stop offset="0.01"/>
<stop offset="0.13" stop-opacity="0.69"/>
<stop offset="1" stop-opacity="0"/>
</linearGradient>
<linearGradient id="paint15_linear_375_3649" x1="122.448" y1="37.2943" x2="81.8262" y2="73.7515" gradientUnits="userSpaceOnUse">
<stop offset="0.01"/>
<stop offset="0.13" stop-opacity="0.69"/>
<stop offset="1" stop-opacity="0"/>
</linearGradient>
</defs>
</svg>
