<svg width="23" height="24" viewBox="0 0 23 24" fill="none" xmlns="http://www.w3.org/2000/svg">
<g opacity="1">
<path d="M7.30188 14.4302C10.7823 14.4302 13.6038 11.6085 13.6038 8.12772C13.6038 4.64693 10.7823 1.8252 7.30188 1.8252C3.82145 1.8252 1 4.64693 1 8.12772C1 11.6085 3.82145 14.4302 7.30188 14.4302Z" stroke="black" stroke-width="2" stroke-linecap="round" stroke-linejoin="round"/>
<path d="M17.8996 10.6172C18.8924 10.9874 19.776 11.602 20.4684 12.4042C21.1608 13.2063 21.6398 14.1702 21.8611 15.2065C22.0824 16.2429 22.0388 17.3184 21.7343 18.3334C21.4299 19.3485 20.8744 20.2704 20.1193 21.0138C19.3642 21.7573 18.4339 22.2984 17.4143 22.587C16.3947 22.8756 15.3189 22.9024 14.2862 22.6649C13.2535 22.4275 12.2973 21.9335 11.5061 21.2285C10.7149 20.5236 10.1143 19.6305 9.75964 18.6319" stroke="black" stroke-width="2" stroke-linecap="round" stroke-linejoin="round"/>
<path d="M6.25159 6.02734H7.3019V10.229" stroke="black" stroke-width="2" stroke-linecap="round" stroke-linejoin="round"/>
<path d="M16.4501 14.3037L17.1853 15.0495L14.2234 18.0117" stroke="black" stroke-width="2" stroke-linecap="round" stroke-linejoin="round"/>
</g>
</svg>
