<svg width="145" height="119" viewBox="0 0 145 119" fill="none" xmlns="http://www.w3.org/2000/svg">
<path opacity="0.18" d="M106.979 20.6781C102.567 15.6586 99.1506 9.66629 93.8765 5.56996C85.5923 -0.877936 73.6694 -1.50661 63.9826 2.54396C54.2959 6.59454 46.7498 14.7594 41.7761 24.0045C39.1599 28.8687 37.1048 34.1747 33.2711 38.1496C30.0302 41.5079 25.7707 43.6505 21.7321 45.9842C15.2205 49.7364 8.9497 54.2704 4.73599 60.4915C0.522275 66.7126 -1.36176 74.8834 1.33199 81.8943C3.14838 86.6252 6.80703 90.3893 10.5552 93.7973C14.9659 97.8041 19.7068 101.556 25.1779 103.944C32.0276 106.914 39.6314 107.553 47.088 107.855C60.3071 108.389 73.5474 107.99 86.7104 106.661C97.4894 105.575 108.595 103.721 117.613 97.7186C130.246 89.313 136.76 73.9125 138.226 58.8104C138.823 52.7703 138.672 46.4935 136.34 40.8891C130.763 27.4841 115.717 30.6195 106.979 20.6781Z" fill="#0078D4"/>
<path d="M53.486 47.5918C53.486 47.5918 48.4865 46.7125 47.0859 50.1782C45.6853 53.6438 47.0859 65.6125 47.0859 65.6125L65.7392 78.8187L53.486 47.5918Z" fill="#3F3D56"/>
<path d="M76.9898 100.894L69.754 103.037C69.2491 103.185 68.706 103.127 68.2436 102.876C67.7813 102.625 67.4373 102.201 67.2871 101.696C67.1389 101.191 67.1968 100.648 67.4481 100.186C67.6994 99.7235 68.1236 99.3795 68.628 99.2293L75.8538 97.0846C76.3584 96.9363 76.9013 96.9939 77.3636 97.2448C77.8259 97.4958 78.17 97.9195 78.3207 98.4235C78.4705 98.9277 78.4146 99.4706 78.1652 99.9337C77.9158 100.397 77.4932 100.742 76.9898 100.894Z" fill="#0078D4"/>
<path d="M76.5819 108.811C78.4234 108.811 79.9163 107.318 79.9163 105.477C79.9163 103.635 78.4234 102.143 76.5819 102.143C74.7404 102.143 73.2476 103.635 73.2476 105.477C73.2476 107.318 74.7404 108.811 76.5819 108.811Z" fill="#25233A"/>
<path d="M75.9811 107.45C76.9019 107.45 77.6483 106.703 77.6483 105.782C77.6483 104.862 76.9019 104.115 75.9811 104.115C75.0604 104.115 74.314 104.862 74.314 105.782C74.314 106.703 75.0604 107.45 75.9811 107.45Z" fill="#3F3D56"/>
<path d="M63.2147 105.516C65.0563 105.516 66.5491 104.024 66.5491 102.182C66.5491 100.341 65.0563 98.8477 63.2147 98.8477C61.3732 98.8477 59.8804 100.341 59.8804 102.182C59.8804 104.024 61.3732 105.516 63.2147 105.516Z" fill="#25233A"/>
<path d="M64.2831 102.484C64.2831 102.813 64.1853 103.136 64.0021 103.41C63.8189 103.684 63.5586 103.898 63.2539 104.024C62.9493 104.15 62.6141 104.183 62.2907 104.119C61.9673 104.054 61.6702 103.896 61.437 103.662C61.2039 103.429 61.0451 103.132 60.9808 102.809C60.9164 102.485 60.9495 102.15 61.0756 101.846C61.2018 101.541 61.4155 101.281 61.6897 101.097C61.9638 100.914 62.2862 100.816 62.6159 100.816C63.0581 100.816 63.4821 100.992 63.7948 101.305C64.1074 101.617 64.2831 102.041 64.2831 102.484Z" fill="url(#paint0_linear_375_3585)"/>
<path d="M62.2499 110.077C64.0914 110.077 65.5843 108.584 65.5843 106.743C65.5843 104.901 64.0914 103.408 62.2499 103.408C60.4084 103.408 58.9155 104.901 58.9155 106.743C58.9155 108.584 60.4084 110.077 62.2499 110.077Z" fill="#25233A"/>
<path d="M64.8842 106.857C64.8842 107.186 64.7864 107.509 64.6032 107.783C64.42 108.057 64.1596 108.271 63.855 108.397C63.5504 108.523 63.2151 108.556 62.8917 108.492C62.5683 108.427 62.2713 108.269 62.0381 108.036C61.805 107.802 61.6462 107.505 61.5818 107.182C61.5175 106.858 61.5505 106.523 61.6767 106.219C61.8029 105.914 62.0166 105.654 62.2907 105.47C62.5649 105.287 62.8872 105.189 63.217 105.189C63.6591 105.189 64.0832 105.365 64.3959 105.678C64.7085 105.99 64.8842 106.414 64.8842 106.857Z" fill="#3F3D56"/>
<path d="M77.2525 104.166L62.0031 101.088C61.4876 100.982 61.035 100.677 60.7441 100.239C60.4533 99.8001 60.348 99.2643 60.4513 98.7483C60.5569 98.2333 60.862 97.7809 61.3 97.4902C61.738 97.1994 62.2733 97.0938 62.789 97.1965L78.0383 100.268C78.5538 100.374 79.0064 100.679 79.2973 101.118C79.5881 101.556 79.6934 102.092 79.5901 102.608C79.4859 103.124 79.1814 103.578 78.7432 103.87C78.305 104.162 77.7689 104.268 77.2525 104.166Z" fill="#0078D4"/>
<path d="M67.8521 80.2109H72.016V97.7482C72.016 98.3001 71.7968 98.8294 71.4065 99.2197C71.0163 99.6099 70.4869 99.8292 69.935 99.8292C69.3831 99.8292 68.8538 99.6099 68.4636 99.2197C68.0733 98.8294 67.854 98.3001 67.854 97.7482V80.2109H67.8521Z" fill="#0078D4"/>
<path d="M69.3457 103.015L62.112 105.162C61.6068 105.311 61.0632 105.253 60.6003 105.002C60.1375 104.751 59.7933 104.326 59.643 103.821C59.4948 103.316 59.5527 102.773 59.804 102.311C60.0553 101.848 60.4796 101.504 60.9839 101.354L68.2177 99.2135C68.7224 99.0652 69.2652 99.1228 69.7275 99.3738C70.1898 99.6247 70.534 100.048 70.6846 100.552C70.8317 101.057 70.7735 101.598 70.5227 102.06C70.2718 102.521 69.8488 102.865 69.3457 103.015Z" fill="#0078D4"/>
<path d="M70.544 102.803L69.7482 103.04C69.511 103.11 69.2626 103.135 69.0161 103.113L69.3484 103.016C69.5795 102.948 69.7961 102.838 69.987 102.691L70.544 102.803Z" fill="url(#paint1_linear_375_3585)"/>
<path d="M78.4046 98.9955C78.4043 99.4527 78.2454 99.8957 77.955 100.249L71.6284 98.9696C71.7876 98.7528 71.9026 98.5067 71.9666 98.2455L75.864 97.0916C76.1151 97.0192 76.378 96.9969 76.6376 97.0261C76.8973 97.0553 77.1487 97.1354 77.3774 97.2618C77.6061 97.3882 77.8077 97.5583 77.9706 97.7626C78.1336 97.9669 78.2547 98.2013 78.327 98.4524C78.3775 98.629 78.4036 98.8118 78.4046 98.9955Z" fill="url(#paint2_linear_375_3585)"/>
<path opacity="0.31" d="M67.9058 98.2217C67.87 98.0664 67.852 97.9075 67.8521 97.7482V80.2109H69.2984V99.111C69.2841 99.2038 69.2888 99.2986 69.3123 99.3895C69.0933 99.2951 68.8584 99.2431 68.62 99.2363C68.4518 99.2244 68.2829 99.2244 68.1147 99.2363L68.2181 99.2065C68.2818 99.1945 67.9893 98.5798 67.9058 98.2217Z" fill="url(#paint3_linear_375_3585)"/>
<path opacity="0.31" d="M78.5913 103.953C78.3009 104.114 77.9743 104.198 77.6424 104.197C77.5087 104.197 77.3755 104.184 77.2445 104.158L70.5359 102.803L69.9769 102.691C69.786 102.838 69.5695 102.948 69.3383 103.016L69.006 103.113L62.1125 105.162C61.6073 105.311 61.0637 105.254 60.6009 105.002C60.1381 104.751 59.7938 104.326 59.6436 103.821C59.9334 104.09 60.3079 104.25 60.7026 104.272C61.0974 104.295 61.4876 104.179 61.8061 103.945C62.6477 103.362 65.9979 102.487 67.8959 102.021C68.3349 101.916 68.734 101.686 69.0448 101.359C69.3556 101.031 69.5647 100.621 69.6466 100.177C69.6514 100.123 69.6594 100.07 69.6705 100.018C69.9868 100.36 70.5678 100.744 71.6182 101.07C74.2045 101.866 78.4043 102.393 78.4043 102.393C78.4043 102.393 79.1623 103.137 78.5913 103.953Z" fill="url(#paint4_linear_375_3585)"/>
<path d="M79.3113 103.285C79.1804 103.49 79.0124 103.669 78.8159 103.812C78.9492 103.675 79.1203 103.492 79.3113 103.285Z" fill="url(#paint5_linear_375_3585)"/>
<path d="M67.9056 98.2208C67.9873 98.5736 68.1602 98.8987 68.407 99.1638C68.3453 99.1757 68.2816 99.1916 68.218 99.2095L61.9471 101.066C61.4808 100.947 61.0732 100.664 60.7998 100.268C60.5263 99.8722 60.4056 99.3906 60.46 98.9126C60.5144 98.4345 60.7402 97.9924 61.0955 97.668C61.4509 97.3437 61.9118 97.1591 62.3928 97.1484C62.5264 97.1488 62.6596 97.1621 62.7907 97.1882L67.9056 98.2208Z" fill="url(#paint6_linear_375_3585)"/>
<path d="M77.5666 13.7457C77.5666 13.7457 77.485 7.56239 72.5292 8.09557C67.5734 8.62875 67.9534 6.58158 65.8366 6.80639C63.7198 7.0312 61.2608 9.12015 61.9671 11.7005C62.6733 14.2809 60.099 14.8578 58.4079 16.8154C56.7168 18.7731 58.8058 20.3746 61.6547 22.2885C64.5037 24.2024 61.4777 23.707 63.1667 26.733C64.8558 29.759 70.5736 25.8934 70.5736 25.8934L77.5666 13.7457Z" fill="#3F3D56"/>
<path d="M37.1423 117.201L40.6577 117.32V89.2468C40.6577 89.2468 40.8348 81.9872 47.6865 81.2591C54.5383 80.5309 116.678 71.5365 116.678 71.5365C116.678 71.5365 119.141 71.2759 120.559 75.9989C121.978 80.7219 123.358 99.2937 123.358 99.2937L142.431 101.862C142.431 101.862 142.935 69.0556 136.047 67.2452C129.16 65.4348 39.086 74.66 39.086 74.66C39.086 74.66 32.4054 109.504 37.1423 117.201Z" fill="#0078D4"/>
<path d="M37.1423 117.201L40.6577 117.32V89.2468C40.6577 89.2468 40.8348 81.9872 47.6865 81.2591C54.5383 80.5309 116.678 71.5365 116.678 71.5365C116.678 71.5365 119.141 71.2759 120.559 75.9989C121.978 80.7219 123.358 99.2937 123.358 99.2937L142.431 101.862C142.431 101.862 142.935 69.0556 136.047 67.2452C129.16 65.4348 39.086 74.66 39.086 74.66C39.086 74.66 32.4054 109.504 37.1423 117.201Z" fill="url(#paint7_linear_375_3585)"/>
<path d="M18.5928 78.1049C18.5928 78.1049 20.3157 68.5713 32.4336 66.0726L117.973 56.2724C117.973 56.2724 126.371 55.9242 130.212 58.2499C134.054 60.5756 139.537 62.5034 141.785 73.0278C144.033 83.5521 144.57 101.531 144.57 101.531L142.444 101.861C142.444 101.861 139.34 69.3055 136.052 67.2444C132.763 65.1833 43.8472 77.8284 43.8472 77.8284C43.8472 77.8284 37.6798 79.0559 37.1427 88.1955C36.6055 97.3352 37.1427 117.198 37.1427 117.198L18.5928 109.71V78.1049Z" fill="#0078D4"/>
<path opacity="0.19" d="M106.597 59.9417C102.171 59.3647 97.7084 58.947 93.248 59.1161C89.8957 59.2474 86.5654 59.7129 83.2409 60.1764L53.922 64.2768C53.4246 64.3464 52.8577 64.4598 52.609 64.8975C52.1315 65.7331 53.2536 66.5567 54.1627 66.875C63.9112 70.2929 74.3261 73.7546 84.361 71.3175C88.9488 70.2034 93.2102 67.8897 97.8636 67.0859C102.517 66.2822 107.294 67.0222 111.937 66.2643C116.302 65.552 120.458 63.5287 124.883 63.5088C126.24 63.5088 127.636 63.6839 128.923 63.2542C130.211 62.8244 131.348 61.5114 130.992 60.2023C126.838 60.0571 122.175 59.2891 118.101 60.1227C114.068 60.9464 110.636 59.9417 106.597 59.9417Z" fill="url(#paint8_linear_375_3585)"/>
<path d="M80.0835 64.938L80.2546 65.5926C80.2546 65.5926 85.3198 68.7419 85.288 68.8434C85.2561 68.9448 106.299 63.816 106.299 63.816L106.788 62.3438L80.0835 64.938Z" fill="#0078D4"/>
<path d="M80.0835 64.938L80.2546 65.5926C80.2546 65.5926 85.3198 68.7419 85.288 68.8434C85.2561 68.9448 106.299 63.816 106.299 63.816L106.788 62.3438L80.0835 64.938Z" fill="url(#paint9_linear_375_3585)"/>
<path d="M80.5571 64.9376L99.0672 60.7656L106.784 62.3433L85.7556 67.6333L80.5571 64.9376Z" fill="#0078D4"/>
<path d="M80.5571 64.9376L99.0672 60.7656L106.784 62.3433L85.7556 67.6333L80.5571 64.9376Z" fill="url(#paint10_linear_375_3585)"/>
<path d="M74.73 68.2387L79.1248 68.3859C79.1248 68.3859 80.2409 68.4515 80.5293 67.604C80.8178 66.7565 78.7388 64.968 78.516 64.9341C78.2932 64.9003 72.5097 66.4362 73.3433 67.9721L74.73 68.2387Z" fill="#0078D4"/>
<path d="M74.73 68.2387L79.1248 68.3859C79.1248 68.3859 80.2409 68.4515 80.5293 67.604C80.8178 66.7565 78.7388 64.968 78.516 64.9341C78.2932 64.9003 72.5097 66.4362 73.3433 67.9721L74.73 68.2387Z" fill="url(#paint11_linear_375_3585)"/>
<path d="M23.9326 111.527L21.7939 118.021C15.5907 120.223 10.3166 118.021 10.3166 118.021L8.78271 111.211C8.78271 111.211 16.5198 113.775 23.9326 111.527Z" fill="#0078D4"/>
<path d="M23.9326 111.527L21.7939 118.021C15.5907 120.223 10.3166 118.021 10.3166 118.021L8.78271 111.211C8.78271 111.211 16.5198 113.775 23.9326 111.527Z" fill="url(#paint12_linear_375_3585)"/>
<path d="M26.3574 105.48L25.671 110.613L23.9322 111.525C16.5254 113.773 8.78235 111.21 8.78235 111.21L7.44741 110.215L6.82471 105.48H26.3574Z" fill="#0078D4"/>
<path d="M26.3574 105.48L25.671 110.613L23.9322 111.525C16.5254 113.773 8.78235 111.21 8.78235 111.21L7.44741 110.215L6.82471 105.48H26.3574Z" fill="url(#paint13_linear_375_3585)"/>
<path d="M16.5892 107.238C21.9819 107.238 26.3535 106.452 26.3535 105.481C26.3535 104.511 21.9819 103.725 16.5892 103.725C11.1965 103.725 6.82483 104.511 6.82483 105.481C6.82483 106.452 11.1965 107.238 16.5892 107.238Z" fill="#0078D4"/>
<path d="M16.5892 107.238C21.9819 107.238 26.3535 106.452 26.3535 105.481C26.3535 104.511 21.9819 103.725 16.5892 103.725C11.1965 103.725 6.82483 104.511 6.82483 105.481C6.82483 106.452 11.1965 107.238 16.5892 107.238Z" fill="url(#paint14_linear_375_3585)"/>
<path d="M11.9439 66.284C10.985 65.8304 9.95442 65.4882 9.12481 64.8257C7.45365 63.4788 7.02989 61.1591 6.50666 59.0781C5.98342 56.9971 4.97078 54.7092 2.90769 54.1124C2.13577 53.8915 1.23056 53.9791 0.643666 54.5282C0.0249382 55.1071 -0.100399 56.0581 0.0687067 56.8976C0.237812 57.7372 0.649634 58.4892 0.96795 59.285C1.71127 61.1333 1.93754 63.1491 1.62249 65.1162C1.36187 66.7296 0.739161 68.365 1.13905 69.9466C1.81746 72.6304 5.19758 74.2041 5.29108 76.9695C5.35475 78.8356 3.81887 80.5625 4.16703 82.3988C4.42367 83.7576 5.67505 84.818 5.7427 86.1987C5.8183 87.7644 4.33812 89.0894 4.40975 90.6551C4.48137 92.2208 6.0451 93.2673 7.0657 94.4988C7.92131 95.533 8.43006 96.8102 8.52001 98.1495C8.57372 98.985 8.46629 99.8505 8.73885 100.642C8.9378 101.221 9.33569 101.713 9.64406 102.234C9.98426 102.797 10.2409 103.406 10.6507 103.927C11.166 104.576 11.8642 105.056 12.6551 105.305C13.4461 105.553 14.2933 105.558 15.0873 105.32C15.4036 103.239 15.1271 101.116 15.2146 99.0129C15.3877 94.9384 16.9295 90.8322 15.9427 86.8771C15.5807 85.4267 14.8843 84.05 14.761 82.5619C14.6516 81.2329 15.0057 79.9159 15.2524 78.6048C15.7617 75.8971 15.7537 73.098 15.5449 70.3604C15.3797 68.1879 13.8518 67.1872 11.9439 66.284Z" fill="#0078D4"/>
<path d="M18.0417 76.9566C18.0257 78.773 18.4395 80.651 17.8586 82.3759C17.4189 83.683 16.4521 84.7533 15.9527 86.0385C14.8008 89.0049 16.3506 92.3313 16.0343 95.4985C15.903 96.8036 15.4553 98.057 15.1728 99.3382C14.822 100.96 14.736 102.628 14.9182 104.278C14.8995 104.578 14.9899 104.875 15.1726 105.114C15.3554 105.353 15.6182 105.518 15.9129 105.579C16.8877 105.951 17.8975 106.224 18.927 106.393C18.5789 104.472 18.9455 102.491 19.9575 100.822C21.5352 98.236 24.601 96.4932 25.1719 93.523C25.5579 91.5116 24.6587 89.4704 24.7223 87.4232C24.7682 86.061 25.2368 84.7469 26.0632 83.6631C26.8053 82.6962 27.81 81.9482 28.5003 80.9455C30.1596 78.5283 29.6423 75.2974 29.1489 72.4066C28.6555 69.5159 28.369 66.1895 30.3187 63.9991C30.9355 63.3068 31.7392 62.7875 32.2982 62.0474C33.5437 60.3982 33.2293 57.8576 31.781 56.3834C30.3326 54.9092 28.001 54.5013 26.0314 55.1499C25.2006 55.3947 24.4673 55.8935 23.9345 56.5764C22.9397 57.9889 23.3376 59.9187 23.7594 61.5978C24.1275 63.0561 24.4239 64.7392 23.9206 66.2094C23.5445 67.3036 22.5916 67.8965 21.7819 68.6585C20.6342 69.7204 19.7116 71.0022 19.0691 72.4277C18.4266 73.8532 18.0772 75.3934 18.0417 76.9566Z" fill="#0078D4"/>
<path d="M15.9863 93.0508C15.7038 95.0244 15.296 97.0139 15.2124 98.9934V99.1923C15.2079 99.2414 15.1966 99.2897 15.1786 99.3356C14.8257 100.957 14.7377 102.626 14.918 104.275C14.9287 104.543 14.9965 104.805 15.1169 105.043C15.107 105.127 15.095 105.209 15.0831 105.292C14.2891 105.531 13.4419 105.525 12.651 105.277C11.86 105.029 11.1618 104.549 10.6466 103.899C10.2487 103.378 9.98009 102.769 9.63989 102.206C9.32157 101.683 8.93362 101.192 8.73467 100.615C8.46212 99.819 8.56955 98.9576 8.51583 98.122C8.42589 96.7827 7.91713 95.5056 7.06152 94.4713C6.04092 93.2478 4.4752 92.2212 4.40557 90.6296C4.33594 89.038 5.81412 87.7389 5.73852 86.1732C5.67088 84.7925 4.4195 83.7321 4.16286 82.3733C3.8147 80.537 5.35654 78.8101 5.28691 76.944C5.19341 74.1786 1.81328 72.605 1.13487 69.9212C0.736976 68.3395 1.35769 66.7042 1.61831 65.0907C1.93478 63.1263 1.71129 61.1127 0.971735 59.2655C0.653418 58.4697 0.241596 57.7197 0.0724909 56.8781C-0.0966147 56.0366 0.0287224 55.0876 0.64745 54.5067C1.24429 53.9576 2.13956 53.8701 2.91147 54.0909C4.97655 54.6877 5.98522 56.9836 6.51044 59.0646C7.03566 61.1456 7.45743 63.4633 9.12859 64.8122C9.95422 65.4787 10.9888 65.8169 11.9477 66.2705C13.8576 67.1737 15.3855 68.1744 15.5486 70.327C15.7476 73.0645 15.7655 75.8637 15.2562 78.5714C15.0095 79.8825 14.6593 81.1995 14.7648 82.5285C14.8702 83.8574 15.4492 85.1148 15.8272 86.404C15.8689 86.5492 15.9107 86.6964 15.9465 86.8437C16.4479 88.8908 16.2867 90.9619 15.9863 93.0508Z" fill="url(#paint15_linear_375_3585)"/>
<path d="M15.1272 105.044C15.0036 104.807 14.9323 104.546 14.9183 104.278C14.7393 102.628 14.8287 100.96 15.1829 99.3386C15.1928 99.2908 15.2047 99.2431 15.2167 99.1953C15.1451 101.149 15.3719 103.119 15.1272 105.044Z" fill="url(#paint16_linear_375_3585)"/>
<path d="M32.2705 62.0377C31.7114 62.7777 30.9077 63.297 30.291 63.9893C28.3413 66.1778 28.6277 69.5062 29.1211 72.3969C29.6145 75.2876 30.1318 78.5185 28.4726 80.9357C27.7822 81.9304 26.7775 82.6864 26.0355 83.6533C25.209 84.7371 24.7404 86.0513 24.6946 87.4134C24.6309 89.4606 25.5301 91.5018 25.1442 93.5132C24.5732 96.4835 21.5074 98.2302 19.9298 100.813C18.9215 102.483 18.5579 104.464 18.9072 106.383C17.8803 106.214 16.8731 105.941 15.9011 105.569C15.6352 105.49 15.3941 105.345 15.2008 105.146C15.1733 105.113 15.1487 105.079 15.1272 105.042C15.0038 104.805 14.9326 104.545 14.9183 104.278C14.7393 102.628 14.8287 100.96 15.1829 99.3384C15.1928 99.2906 15.2047 99.2429 15.2167 99.1951C15.4992 97.9636 15.917 96.756 16.0443 95.4987C16.112 94.6835 16.096 93.8635 15.9966 93.0516C16.297 90.9627 16.4581 88.8916 15.9508 86.8584C15.915 86.7112 15.8732 86.5639 15.8314 86.4187C15.8692 86.2914 15.913 86.1641 15.9627 86.0387C16.4621 84.7535 17.429 83.6832 17.8687 82.3761C18.4476 80.6512 18.0358 78.7731 18.0517 76.9568C18.0775 73.8193 19.4921 70.7894 21.7641 68.6487C22.5738 67.8867 23.5267 67.2939 23.9027 66.1996C24.4061 64.7294 24.1017 63.0463 23.7416 61.588C23.3178 59.9089 22.916 57.9791 23.9167 56.5666C24.414 55.8663 25.1979 55.4107 26.0136 55.1401C27.9752 54.4916 30.3168 54.8994 31.7632 56.3736C33.2095 57.8478 33.5159 60.3983 32.2705 62.0377Z" fill="url(#paint17_linear_375_3585)"/>
<path d="M67.5337 30.8357C67.5337 30.8357 59.164 32.115 55.2924 41.2407C51.4209 50.3664 53.4343 61.6726 53.5019 62.6674C53.5695 63.6621 65.3652 67.9773 68.7373 67.9773C72.1095 67.9773 72.8118 64.6369 72.8118 64.6369L66.8533 62.1282L84.9575 60.0612H88.2083L86.4178 63.0454C86.4178 63.0454 89.9511 63.4114 92.3126 63.495C94.6741 63.5785 96.2777 58.961 96.5423 56.6651C96.8069 54.3693 86.1114 34.2178 84.5139 33.0242C82.9163 31.8305 78.5813 28.9139 67.5337 30.8357Z" fill="#0078D4"/>
<path d="M77.5666 13.7435C77.5666 13.7435 79.0488 14.589 78.9155 17.3246C78.7822 20.0601 77.9466 24.1763 77.1031 25.2427C76.2596 26.3091 73.3092 26.7268 73.3092 26.7268C73.3092 26.7268 74.9187 30.6043 76.1163 31.605C77.314 32.6057 74.9127 36.2922 72.577 35.0826C70.2414 33.873 67.5337 30.8351 67.5337 30.8351C67.5337 30.8351 69.4814 27.1765 68.8229 25.2506C68.1644 23.3248 65.6497 16.5666 67.5337 14.7203C69.4177 12.8741 73.4803 10.2281 77.5666 13.7435Z" fill="url(#paint18_linear_375_3585)"/>
<path opacity="0.25" d="M64.1456 43.9727L62.8325 60.0616L66.8433 62.1286L70.1041 61.5696L66.0356 56.6576L64.1456 43.9727Z" fill="white"/>
<path opacity="0.25" d="M85.2876 43.1699C85.2876 43.1699 90.5299 55.6459 88.2062 60.0705L86.4156 59.7264L85.2876 43.1699Z" fill="white"/>
<path d="M70.6335 64.0609C70.6335 64.0609 68.6321 65.8514 69.5254 67.244C70.4186 68.6367 71.485 68.5969 72.3743 67.9742C73.2636 67.3515 75.0104 65.8733 77.0914 66.5517C79.1723 67.2301 79.6777 67.6618 79.6777 67.6618C79.6777 67.6618 80.7739 66.9436 80.4894 66.2234C80.2049 65.5032 78.0284 63.1696 77.3977 62.8672C76.7671 62.5648 74.1489 63.4939 74.1489 63.4939C74.1489 63.4939 72.2251 62.9487 70.6335 64.0609Z" fill="url(#paint19_linear_375_3585)"/>
<path d="M88.8012 60.7005C88.8012 60.7005 86.8953 60.9194 86.4138 62.129C85.9324 63.3386 85.7593 63.4858 85.7593 63.4858C85.7593 63.4858 86.8356 63.6847 87.2832 63.1217C87.7309 62.5587 88.1964 62.7954 88.1964 62.7954L88.0631 63.5176C88.0631 63.5176 90.9876 63.9434 92.3086 63.4858C93.6297 63.0282 94.1967 62.491 94.1967 62.491L94.7139 61.2695C94.7139 61.2695 93.4665 60.3961 92.5255 60.2608C91.5845 60.1256 88.8012 60.7005 88.8012 60.7005Z" fill="url(#paint20_linear_375_3585)"/>
<path d="M98.4764 74.1504C98.4764 74.1504 104.968 79.0923 104.391 85.7769C103.814 92.4615 102.967 102.387 102.967 102.387C102.967 102.387 100.348 103.489 98.6137 102.387C96.8788 101.285 95.8284 86.2026 94.9689 84.7623C94.1095 83.3219 88.9388 76.8282 83.4141 76.2692L98.4764 74.1504Z" fill="#25233A"/>
<path d="M65.7393 78.8097C65.7393 78.8097 68.8687 81.7939 74.4472 82.7309C80.0257 83.668 82.6259 84.4498 84.3309 89.2465C86.0359 94.0431 87.6713 104.367 88.2064 105.52C88.7416 106.674 91.0176 106.085 91.0176 106.085C91.0176 106.085 92.3047 104.609 92.3047 96.4006C92.3047 84.9572 93.1005 82.6116 90.2337 79.7368C87.3669 76.862 84.7587 76.0781 84.7587 76.0781L65.7393 78.8097Z" fill="#3F3D56"/>
<path d="M88.2067 105.521L88.7379 109.709H89.7326C89.7326 109.709 96.1387 110.059 96.3396 109.908C96.5406 109.757 96.0313 106.592 93.6041 106.681C91.177 106.771 91.0178 106.084 91.0178 106.084L88.2067 105.521Z" fill="#25233A"/>
<path d="M99.3951 102.733L100.43 106.855L111.734 105.303C111.734 105.303 112.132 102.596 108.551 102.864C107.606 102.934 106.901 103.598 105.765 103.604C104.629 103.61 103.541 103.145 102.968 102.389L99.3951 102.733Z" fill="#25233A"/>
<path d="M138.813 50.8736L96.0252 53.1655C95.5282 53.1915 95.0413 53.0193 94.6713 52.6865C94.3012 52.3538 94.0784 51.8878 94.0516 51.3909C94.0516 51.3591 94.0516 51.3252 94.0516 51.2934V20.9718C94.052 20.3814 94.2836 19.8147 94.6967 19.393C95.1099 18.9713 95.6717 18.7282 96.2619 18.7157L138.875 17.8364C139.145 17.8308 139.414 17.8787 139.667 17.9772C139.919 18.0756 140.149 18.2229 140.344 18.4104C140.54 18.5979 140.696 18.8221 140.805 19.0701C140.913 19.318 140.972 19.585 140.977 19.8557V48.5917C140.977 49.1767 140.752 49.7392 140.349 50.1636C139.947 50.588 139.397 50.8421 138.813 50.8736Z" fill="#0078D4"/>
<path d="M140.786 50.8755L97.9987 53.1674C97.5017 53.1928 97.015 53.0201 96.6453 52.687C96.2757 52.3539 96.0533 51.8877 96.0271 51.3908C96.0271 51.3589 96.0271 51.3271 96.0271 51.2953V20.9737C96.0265 20.3833 96.2574 19.8163 96.6703 19.3945C97.0833 18.9726 97.6452 18.7296 98.2354 18.7176L140.852 17.8382C141.398 17.8281 141.925 18.0348 142.319 18.413C142.712 18.7912 142.939 19.31 142.951 19.8556V48.5936C142.95 49.1786 142.726 49.7411 142.323 50.1655C141.92 50.5899 141.37 50.844 140.786 50.8755Z" fill="#0078D4"/>
<path d="M140.786 50.8755L97.9987 53.1674C97.5017 53.1928 97.015 53.0201 96.6453 52.687C96.2757 52.3539 96.0533 51.8877 96.0271 51.3908C96.0271 51.3589 96.0271 51.3271 96.0271 51.2953V20.9737C96.0265 20.3833 96.2574 19.8163 96.6703 19.3945C97.0833 18.9726 97.6452 18.7296 98.2354 18.7176L140.852 17.8382C141.398 17.8281 141.925 18.0348 142.319 18.413C142.712 18.7912 142.939 19.31 142.951 19.8556V48.5936C142.95 49.1786 142.726 49.7411 142.323 50.1655C141.92 50.5899 141.37 50.844 140.786 50.8755Z" fill="url(#paint21_linear_375_3585)"/>
<path d="M128.329 62.3266L117.464 63.4845C117.464 63.4845 114.156 62.816 114.335 62.3266C114.514 61.8372 117.973 61.3657 117.973 61.3657V41.6381C117.944 41.5943 117.488 41.0134 116.241 40.6433C115.999 40.5715 115.753 40.5144 115.504 40.4722C115.291 40.441 115.083 40.3779 114.888 40.2852C114.146 39.9012 114.965 39.2328 116.117 39.2029C116.298 39.1966 116.478 39.2073 116.656 39.2348H125.012C125.012 39.2348 128.175 40.1261 128.329 44.5745C128.482 49.023 128.329 62.3266 128.329 62.3266Z" fill="#0078D4"/>
<path d="M119.487 62.3686L117.458 63.4847C117.458 63.4847 114.149 62.8162 114.328 62.3268C114.507 61.8374 117.973 61.3659 117.973 61.3659V41.6382C117.931 41.5925 117.424 41.0693 116.24 40.6435C115.799 40.4884 115.347 40.3687 114.887 40.2854C114.145 39.9014 114.965 39.233 116.117 39.2031C117.098 39.3364 119.029 40.4107 119.155 41.0235C119.28 41.6363 119.487 62.3686 119.487 62.3686Z" fill="#0078D4"/>
<path d="M119.487 62.3686L117.458 63.4847C117.458 63.4847 114.149 62.8162 114.328 62.3268C114.507 61.8374 117.973 61.3659 117.973 61.3659V41.6382C117.931 41.5925 117.424 41.0693 116.24 40.6435C115.799 40.4884 115.347 40.3687 114.887 40.2854C114.145 39.9014 114.965 39.233 116.117 39.2031C117.098 39.3364 119.029 40.4107 119.155 41.0235C119.28 41.6363 119.487 62.3686 119.487 62.3686Z" fill="url(#paint22_linear_375_3585)"/>
<path d="M78.8161 103.811C78.5634 104.069 78.4461 104.165 78.5953 103.952C78.6726 103.911 78.7465 103.864 78.8161 103.811Z" fill="url(#paint23_linear_375_3585)"/>
<defs>
<linearGradient id="paint0_linear_375_3585" x1="60.9487" y1="102.484" x2="64.2831" y2="102.484" gradientUnits="userSpaceOnUse">
<stop stop-color="#183866"/>
<stop offset="1" stop-color="#1A7FC1"/>
</linearGradient>
<linearGradient id="paint1_linear_375_3585" x1="69.0141" y1="102.906" x2="70.544" y2="102.906" gradientUnits="userSpaceOnUse">
<stop/>
<stop offset="0.99" stop-opacity="0"/>
</linearGradient>
<linearGradient id="paint2_linear_375_3585" x1="72.4282" y1="100.378" x2="81.5301" y2="96.3137" gradientUnits="userSpaceOnUse">
<stop/>
<stop offset="0.99" stop-opacity="0"/>
</linearGradient>
<linearGradient id="paint3_linear_375_3585" x1="72.2846" y1="88.5588" x2="61.2211" y2="92.2692" gradientUnits="userSpaceOnUse">
<stop/>
<stop offset="0.99" stop-opacity="0"/>
</linearGradient>
<linearGradient id="paint4_linear_375_3585" x1="78.4222" y1="100.563" x2="50.0662" y2="110.074" gradientUnits="userSpaceOnUse">
<stop/>
<stop offset="0.99" stop-opacity="0"/>
</linearGradient>
<linearGradient id="paint5_linear_375_3585" x1="79.3809" y1="103.442" x2="78.3981" y2="103.773" gradientUnits="userSpaceOnUse">
<stop/>
<stop offset="0.99" stop-opacity="0"/>
</linearGradient>
<linearGradient id="paint6_linear_375_3585" x1="68.5303" y1="100.622" x2="59.9139" y2="98.2805" gradientUnits="userSpaceOnUse">
<stop/>
<stop offset="0.99" stop-opacity="0"/>
</linearGradient>
<linearGradient id="paint7_linear_375_3585" x1="138.637" y1="89.595" x2="-15.555" y2="97.0118" gradientUnits="userSpaceOnUse">
<stop/>
<stop offset="0.99" stop-opacity="0"/>
</linearGradient>
<linearGradient id="paint8_linear_375_3585" x1="52.4956" y1="65.6077" x2="131.058" y2="65.6077" gradientUnits="userSpaceOnUse">
<stop stop-color="#183866"/>
<stop offset="1" stop-color="#1A7FC1"/>
</linearGradient>
<linearGradient id="paint9_linear_375_3585" x1="79.7373" y1="65.9348" x2="88.0275" y2="32.7005" gradientUnits="userSpaceOnUse">
<stop/>
<stop offset="0.99" stop-opacity="0"/>
</linearGradient>
<linearGradient id="paint10_linear_375_3585" x1="66.1394" y1="60.6642" x2="93.998" y2="51.3275" gradientUnits="userSpaceOnUse">
<stop/>
<stop offset="0.99" stop-opacity="0"/>
</linearGradient>
<linearGradient id="paint11_linear_375_3585" x1="66.0479" y1="53.6936" x2="65.3198" y2="48.3996" gradientUnits="userSpaceOnUse">
<stop/>
<stop offset="0.99" stop-opacity="0"/>
</linearGradient>
<linearGradient id="paint12_linear_375_3585" x1="26.5766" y1="114.573" x2="13.1277" y2="115.086" gradientUnits="userSpaceOnUse">
<stop/>
<stop offset="0.99" stop-opacity="0"/>
</linearGradient>
<linearGradient id="paint13_linear_375_3585" x1="28.6214" y1="108.403" x2="17.4784" y2="108.787" gradientUnits="userSpaceOnUse">
<stop/>
<stop offset="0.99" stop-opacity="0"/>
</linearGradient>
<linearGradient id="paint14_linear_375_3585" x1="17.954" y1="98.9021" x2="12.3178" y2="126.055" gradientUnits="userSpaceOnUse">
<stop/>
<stop offset="0.99" stop-opacity="0"/>
</linearGradient>
<linearGradient id="paint15_linear_375_3585" x1="15.4133" y1="105.24" x2="4.06736" y2="53.4901" gradientUnits="userSpaceOnUse">
<stop/>
<stop offset="0.99" stop-opacity="0"/>
</linearGradient>
<linearGradient id="paint16_linear_375_3585" x1="16.0483" y1="106.282" x2="14.7233" y2="100.236" gradientUnits="userSpaceOnUse">
<stop/>
<stop offset="0.99" stop-opacity="0"/>
</linearGradient>
<linearGradient id="paint17_linear_375_3585" x1="14.4567" y1="108.985" x2="27.1854" y2="65.4098" gradientUnits="userSpaceOnUse">
<stop/>
<stop offset="0.99" stop-opacity="0"/>
</linearGradient>
<linearGradient id="paint18_linear_375_3585" x1="66.8414" y1="23.669" x2="78.9235" y2="23.669" gradientUnits="userSpaceOnUse">
<stop stop-color="#ECC4D7"/>
<stop offset="0.42" stop-color="#EFD4D1"/>
<stop offset="1" stop-color="#F2EAC9"/>
</linearGradient>
<linearGradient id="paint19_linear_375_3585" x1="69.2966" y1="65.5928" x2="80.5371" y2="65.5928" gradientUnits="userSpaceOnUse">
<stop stop-color="#ECC4D7"/>
<stop offset="0.42" stop-color="#EFD4D1"/>
<stop offset="1" stop-color="#F2EAC9"/>
</linearGradient>
<linearGradient id="paint20_linear_375_3585" x1="85.7593" y1="61.9698" x2="94.7139" y2="61.9698" gradientUnits="userSpaceOnUse">
<stop stop-color="#ECC4D7"/>
<stop offset="0.42" stop-color="#EFD4D1"/>
<stop offset="1" stop-color="#F2EAC9"/>
</linearGradient>
<linearGradient id="paint21_linear_375_3585" x1="145.376" y1="52.6859" x2="95.6889" y2="19.7919" gradientUnits="userSpaceOnUse">
<stop/>
<stop offset="0.99" stop-opacity="0"/>
</linearGradient>
<linearGradient id="paint22_linear_375_3585" x1="136.859" y1="70.416" x2="102.32" y2="38.2084" gradientUnits="userSpaceOnUse">
<stop/>
<stop offset="0.99" stop-opacity="0"/>
</linearGradient>
<linearGradient id="paint23_linear_375_3585" x1="78.84" y1="103.884" x2="78.5058" y2="103.996" gradientUnits="userSpaceOnUse">
<stop/>
<stop offset="0.99" stop-opacity="0"/>
</linearGradient>
</defs>
</svg>
