<svg width="19" height="25" viewBox="0 0 19 25" fill="none" xmlns="http://www.w3.org/2000/svg">
<path d="M10.2757 7.29221C9.81093 7.86393 9.05764 7.86393 8.59286 7.29221C8.12823 6.7205 8.12823 5.79348 8.59286 5.22176C9.05764 4.65004 9.81093 4.65004 10.2757 5.22176C10.7403 5.79348 10.7403 6.7205 10.2757 7.29221Z" fill="#0A033C"/>
<path d="M11.9013 9.51105C11.7563 9.51105 11.6114 9.44284 11.501 9.30626C11.2803 9.03379 11.2807 8.59231 11.5017 8.32038C11.9496 7.76928 12.1962 7.03665 12.1962 6.2575C12.1962 5.47835 11.9496 4.74572 11.5017 4.19462C11.2807 3.92251 11.2803 3.48121 11.501 3.20856C11.7216 2.9361 12.0797 2.93557 12.3007 3.20768C12.9628 4.02226 13.3274 5.10525 13.3274 6.2575C13.3274 7.40957 12.9628 8.49274 12.3007 9.30731C12.1904 9.4432 12.0458 9.51105 11.9013 9.51105Z" fill="#0A033C"/>
<path d="M13.1805 11.5636C13.0355 11.5636 12.8905 11.4954 12.7802 11.359C12.5594 11.0864 12.5599 10.6451 12.7809 10.373C13.6744 9.27358 14.1667 7.81203 14.1667 6.25742C14.1667 4.70282 13.6744 3.24127 12.7809 2.14189C12.5599 1.86977 12.5594 1.42847 12.7802 1.15583C13.0009 0.883364 13.3589 0.882836 13.5799 1.15495C14.6876 2.5178 15.2978 4.32989 15.2977 6.25742C15.2977 8.18495 14.6876 9.99721 13.5799 11.3601C13.4696 11.4958 13.325 11.5636 13.1805 11.5636Z" fill="#0A033C"/>
<path d="M6.96455 9.51111C6.82002 9.51111 6.67548 9.44326 6.56497 9.30738C5.90289 8.49281 5.53833 7.40964 5.53833 6.25757C5.53833 5.10531 5.90289 4.02233 6.56497 3.20775C6.78599 2.93564 7.14412 2.93599 7.36471 3.20863C7.58545 3.4811 7.58503 3.92257 7.364 4.19469C6.91609 4.74579 6.66947 5.47841 6.66947 6.25757C6.66947 7.03672 6.91609 7.76934 7.364 8.32044C7.58503 8.59238 7.58545 9.03386 7.36471 9.30632C7.25435 9.44273 7.10938 9.51111 6.96455 9.51111Z" fill="#0A033C"/>
<path d="M5.68531 11.5637C5.54063 11.5637 5.39609 11.4959 5.28572 11.36C4.17803 9.99712 3.56799 8.18503 3.56799 6.25751C3.56799 4.32981 4.17803 2.51772 5.28572 1.15486C5.50675 0.882924 5.86488 0.883276 6.08547 1.15592C6.30621 1.42838 6.30578 1.86969 6.08476 2.1418C5.19122 3.24118 4.69899 4.70273 4.69899 6.25733C4.69899 7.81194 5.19122 9.27366 6.08476 10.373C6.30578 10.6452 6.30621 11.0865 6.08547 11.3591C5.9751 11.4955 5.83014 11.5637 5.68531 11.5637Z" fill="#0A033C"/>
<path d="M16.8868 12.7695H1.97888C1.24819 12.7695 0.655884 13.4997 0.655884 14.4003V22.4207C0.655884 23.3215 1.24819 24.0516 1.97888 24.0516H16.8867C17.6174 24.0516 18.2097 23.3215 18.2097 22.4207V14.4003C18.2097 13.4997 17.6174 12.7695 16.8868 12.7695ZM5.00645 21.9591H2.92274C2.6105 21.9591 2.35731 21.647 2.35731 21.2619V15.5592C2.35731 15.1743 2.6105 14.862 2.92274 14.862C3.23511 14.862 3.4883 15.1741 3.4883 15.5592V20.5647H5.00645C5.31883 20.5647 5.57202 20.8769 5.57202 21.2619C5.57202 21.647 5.31883 21.9591 5.00645 21.9591ZM7.3242 21.2619C7.3242 21.647 7.07101 21.9591 6.75863 21.9591C6.44625 21.9591 6.19306 21.647 6.19306 21.2619V15.5592C6.19306 15.1743 6.44625 14.862 6.75863 14.862C7.07101 14.862 7.3242 15.1741 7.3242 15.5592V21.2619ZM12.0826 15.7608L10.686 21.4634C10.6859 21.4639 10.6857 21.4644 10.6856 21.465C10.5339 22.1031 9.7606 22.0874 9.60363 21.465C9.60349 21.4644 9.60334 21.4639 9.6032 21.4634L8.20658 15.7608C8.11636 15.3921 8.28549 15.0032 8.58457 14.8918C8.88337 14.7806 9.19918 14.9891 9.28939 15.3578L10.1446 18.8496L10.9998 15.3578C11.0902 14.9891 11.4057 14.7804 11.7048 14.8918C12.0037 15.0032 12.173 15.3921 12.0826 15.7608ZM15.562 17.3544C15.8744 17.3544 16.1275 17.6665 16.1275 18.0516C16.1275 18.4365 15.8744 18.7488 15.562 18.7488H13.9571V20.5647H15.8666C16.179 20.5647 16.4322 20.8769 16.4322 21.2619C16.4322 21.647 16.179 21.9591 15.8666 21.9591H13.3915C13.0791 21.9591 12.8259 21.647 12.8259 21.2619V15.5592C12.8259 15.1743 13.0791 14.862 13.3915 14.862H15.9428C16.2551 14.862 16.5084 15.1741 16.5084 15.5592C16.5084 15.9443 16.2551 16.2564 15.9428 16.2564H13.9569V17.3544H15.562Z" fill="#0A033C"/>
</svg>
