<svg width="15" height="15" viewBox="0 0 15 15" fill="none" xmlns="http://www.w3.org/2000/svg">
<path d="M8.0625 6.5625C7.6875 6.46875 7.3125 6.28125 7.03125 6C6.75 5.90625 6.65625 5.625 6.65625 5.4375C6.65625 5.25 6.75 4.96875 6.9375 4.875C7.21875 4.6875 7.5 4.5 7.78125 4.59375C8.34375 4.59375 8.8125 4.875 9.09375 5.25L9.9375 4.125C9.65625 3.84375 9.375 3.65625 9.09375 3.46875C8.8125 3.28125 8.4375 3.1875 8.0625 3.1875V1.875H6.9375V3.1875C6.46875 3.28125 6 3.5625 5.625 3.9375C5.25 4.40625 4.96875 4.96875 5.0625 5.53125C5.0625 6.09375 5.25 6.65625 5.625 7.03125C6.09375 7.5 6.75 7.78125 7.3125 8.0625C7.59375 8.15625 7.96875 8.34375 8.25 8.53125C8.4375 8.71875 8.53125 9 8.53125 9.28125C8.53125 9.5625 8.4375 9.84375 8.25 10.125C7.96875 10.4062 7.59375 10.5 7.3125 10.5C6.9375 10.5 6.46875 10.4062 6.1875 10.125C5.90625 9.9375 5.625 9.65625 5.4375 9.375L4.5 10.4062C4.78125 10.7812 5.0625 11.0625 5.4375 11.3438C5.90625 11.625 6.46875 11.9062 7.03125 11.9062V13.125H8.0625V11.7188C8.625 11.625 9.09375 11.3438 9.46875 10.9688C9.9375 10.5 10.2188 9.75 10.2188 9.09375C10.2188 8.53125 10.0312 7.875 9.5625 7.5C9.09375 7.03125 8.625 6.75 8.0625 6.5625ZM7.5 0C3.375 0 0 3.375 0 7.5C0 11.625 3.375 15 7.5 15C11.625 15 15 11.625 15 7.5C15 3.375 11.625 0 7.5 0ZM7.5 13.9688C3.9375 13.9688 1.03125 11.0625 1.03125 7.5C1.03125 3.9375 3.9375 1.03125 7.5 1.03125C11.0625 1.03125 13.9688 3.9375 13.9688 7.5C13.9688 11.0625 11.0625 13.9688 7.5 13.9688Z" fill="#212121"/>
</svg>
