<svg width="20" height="18" viewBox="0 0 20 18" fill="none" xmlns="http://www.w3.org/2000/svg">
<path fill-rule="evenodd" clip-rule="evenodd" d="M4.18842 17.7077C3.52842 17.7077 2.92342 17.3593 2.60259 16.791L0.439253 13.0327C0.109253 12.4643 0.11842 11.7677 0.44842 11.1993L6.26009 1.19852C6.59009 0.639349 7.19509 0.291016 7.84592 0.291016H9.5H9.99092H12.1453C12.7961 0.291016 13.4011 0.639349 13.7311 1.19852L19.5428 11.1993C19.8728 11.7677 19.882 12.4643 19.552 13.0327L17.3886 16.791C17.0678 17.3593 16.4628 17.7077 15.8028 17.7077H10.0003L9.99092 17.6733V17.7077H4.18842ZM9.5 15.8743H9.99092H15.8028L17.957 12.1252L12.1453 2.12435H10.0003L9.99092 2.09001V2.12435H7.84592L2.03425 12.1252L4.18842 15.8743H9.5ZM5.64592 13.5827L4.97675 12.4185L9.17509 5.10352H9.5H9.99092H10.8161L15.0145 12.4185L14.3453 13.5827H9.99092H9.5H5.64592ZM9.5 11.7493H9.99092H12.512L10.0003 7.34018L9.99092 7.29829V7.34018L7.47925 11.7493H9.5Z" fill="black" fill-opacity="0.54"/>
</svg>
