<svg width="27" height="27" viewBox="0 0 27 27" fill="none" xmlns="http://www.w3.org/2000/svg">
<path d="M19.344 4.54093L22.4587 7.65418M21.3469 1.79828L12.9248 10.2204C12.4897 10.6549 12.1929 11.2086 12.0719 11.8115L11.2939 15.7057L15.1881 14.9263C15.791 14.8057 16.344 14.5101 16.7793 14.0748L25.2013 5.6527C25.4544 5.39961 25.6552 5.09916 25.7921 4.76849C25.9291 4.43782 25.9996 4.0834 25.9996 3.72549C25.9996 3.36757 25.9291 3.01316 25.7921 2.68249C25.6552 2.35182 25.4544 2.05136 25.2013 1.79828C24.9483 1.54519 24.6478 1.34443 24.3171 1.20747C23.9865 1.0705 23.632 1 23.2741 1C22.9162 1 22.5618 1.0705 22.2311 1.20747C21.9005 1.34443 21.6 1.54519 21.3469 1.79828V1.79828Z" stroke="black" stroke-width="2" stroke-linecap="round" stroke-linejoin="round"/>
<path d="M23.0589 18.6454V23.0572C23.0589 23.8372 22.749 24.5853 22.1974 25.1369C21.6459 25.6885 20.8978 25.9983 20.1177 25.9983H3.94118C3.16113 25.9983 2.41303 25.6885 1.86145 25.1369C1.30987 24.5853 1 23.8372 1 23.0572V6.88064C1 6.10059 1.30987 5.35249 1.86145 4.80091C2.41303 4.24933 3.16113 3.93945 3.94118 3.93945H8.35296" stroke="black" stroke-width="2" stroke-linecap="round" stroke-linejoin="round"/>
</svg>
