<svg width="21" height="18" viewBox="0 0 21 18" fill="none" xmlns="http://www.w3.org/2000/svg">
<path fill-rule="evenodd" clip-rule="evenodd" d="M0 4.0127C0 2.25229 1.4103 0.825195 3.15 0.825195H17.85C19.5897 0.825195 21 2.25229 21 4.0127V14.6377C21 16.3981 19.5897 17.8252 17.85 17.8252H3.15C1.4103 17.8252 0 16.3981 0 14.6377V4.0127ZM3.15 2.41895H17.85C18.5322 2.41895 19.1131 2.85788 19.332 3.47189L11.2281 8.93885C10.7872 9.23626 10.2128 9.23626 9.77197 8.93885L1.668 3.47188C1.88686 2.85787 2.46777 2.41895 3.15 2.41895ZM1.575 5.32459V14.6377C1.575 15.5179 2.28015 16.2314 3.15 16.2314H17.85C18.7198 16.2314 19.425 15.5179 19.425 14.6377V5.32461L12.1017 10.2649C11.1318 10.9192 9.86822 10.9192 8.89831 10.2649L1.575 5.32459Z" fill="black" fill-opacity="1"/>
</svg>
