<svg width="20" height="20" viewBox="0 0 20 20" fill="none" xmlns="http://www.w3.org/2000/svg">
<path d="M9.99075 0.833008C4.93075 0.833008 0.833252 4.93967 0.833252 9.99967C0.833252 15.0597 4.93075 19.1663 9.99075 19.1663C15.0599 19.1663 19.1666 15.0597 19.1666 9.99967C19.1666 4.93967 15.0599 0.833008 9.99075 0.833008ZM9.99992 17.333C5.94825 17.333 2.66659 14.0513 2.66659 9.99967C2.66659 5.94801 5.94825 2.66634 9.99992 2.66634C14.0516 2.66634 17.3333 5.94801 17.3333 9.99967C17.3333 14.0513 14.0516 17.333 9.99992 17.333ZM13.2083 9.08301C13.9691 9.08301 14.5833 8.46884 14.5833 7.70801C14.5833 6.94717 13.9691 6.33301 13.2083 6.33301C12.4474 6.33301 11.8333 6.94717 11.8333 7.70801C11.8333 8.46884 12.4474 9.08301 13.2083 9.08301ZM6.79159 9.08301C7.55242 9.08301 8.16659 8.46884 8.16659 7.70801C8.16659 6.94717 7.55242 6.33301 6.79159 6.33301C6.03075 6.33301 5.41659 6.94717 5.41659 7.70801C5.41659 8.46884 6.03075 9.08301 6.79159 9.08301ZM9.99992 15.0413C12.1358 15.0413 13.9508 13.703 14.6841 11.833H5.31575C6.04909 13.703 7.86409 15.0413 9.99992 15.0413Z" fill="black" fill-opacity="0.54"/>
</svg>
