<svg width="437" height="349" viewBox="0 0 437 349" fill="none" xmlns="http://www.w3.org/2000/svg">
<g filter="url(#filter0_d_303_16234)">
<path opacity="0.18" d="M194.51 60.6104C172.216 79.2064 154.328 102.838 130.631 119.559C108.73 135.02 82.305 144.305 63.4599 163.36C47.3768 179.63 38.3656 201.59 38.3853 224.468C38.4049 247.345 47.4538 269.29 63.5648 285.532C86.095 308.246 119.418 316.796 151.351 318.488C183.284 320.18 215.336 315.97 247.282 317.688C277.51 319.314 307.607 326.239 337.77 323.931C367.932 321.622 399.918 307.42 411.852 279.605C425.045 248.826 409.924 214.191 399.498 182.363C391.612 158.306 386.405 133.453 383.971 108.254C380.352 70.5641 373.703 18.2253 326.269 16.1401C278.385 14.3275 231.502 30.1513 194.51 60.6104Z" fill="#0078D4"/>
<path d="M330.61 283.959C258.994 293.139 186.433 286.083 114.226 286.293C108.98 286.293 101.833 288.47 102.659 293.624C144.625 303.538 188.203 304.312 231.349 305.046L309.864 306.358C327.817 306.659 345.783 306.961 363.632 305.951C370.307 305.571 377.153 304.954 383.172 302.017C400.076 293.755 391.696 282.883 377.113 281.034C361.704 279.093 345.941 281.991 330.61 283.959Z" fill="url(#paint0_linear_303_16234)"/>
<path d="M226.103 83.9787V278.331C226.103 286.737 233.552 293.531 242.732 293.518L331.594 293.386C340.774 293.386 348.223 286.541 348.223 278.148V83.782C348.223 75.3758 340.774 68.5696 331.594 68.5958L242.732 68.7269C233.552 68.74 226.103 75.5725 226.103 83.9787ZM234.575 84.1099C234.575 78.9298 239.165 74.7201 244.83 74.7201H257.354V75.8742C257.432 77.5372 258.166 79.1015 259.395 80.2247C260.624 81.3479 262.248 81.9386 263.911 81.8673L311.686 81.7887C313.35 81.8528 314.972 81.258 316.2 80.1335C317.427 79.0089 318.162 77.4453 318.243 75.7824V74.6283H331.174C336.839 74.6283 341.429 78.8117 341.429 83.9919V277.754C341.429 282.934 336.839 287.131 331.174 287.144L244.83 287.288C239.165 287.288 234.575 283.105 234.575 277.925V84.1099Z" fill="#0078D4"/>
<path d="M221.919 87.965V282.331C221.919 290.737 229.368 297.53 238.548 297.517L327.423 297.373C336.603 297.373 344.052 290.54 344.052 282.134V87.7814C344.052 79.3752 336.603 72.5689 327.423 72.5821L238.548 72.7263C229.368 72.7394 221.919 79.5719 221.919 87.965ZM230.404 88.1093C230.404 82.8636 234.981 78.7195 240.647 78.7064H253.171V79.8604C253.249 81.5224 253.983 83.0854 255.212 84.2065C256.442 85.3276 258.066 85.9153 259.728 85.8405H307.49C309.155 85.9046 310.779 85.308 312.007 84.1806C313.235 83.0532 313.968 81.4864 314.047 79.8211V78.6802H326.99C332.643 78.6802 337.233 82.8636 337.233 88.0437V281.754C337.233 286.921 332.643 291.13 326.99 291.143L240.712 291.327C235.047 291.327 230.47 287.144 230.47 281.963L230.404 88.1093Z" fill="white"/>
<path d="M230.404 88.0578V281.912C230.404 287.158 234.981 291.289 240.647 291.276L327.004 291.144C332.656 291.144 337.246 286.922 337.246 281.755V87.9398C337.246 82.6941 332.656 78.5631 327.004 78.5762H314.06V79.7171C313.982 81.3824 313.249 82.9493 312.021 84.0767C310.792 85.2041 309.169 85.8007 307.503 85.7366H259.741C258.079 85.8114 256.455 85.2237 255.226 84.1026C253.996 82.9814 253.262 81.4184 253.184 79.7565V78.6024H240.712C234.981 78.7205 230.404 82.9301 230.404 88.0578Z" stroke="url(#paint1_linear_303_16234)" stroke-width="0.374821" stroke-miterlimit="10"/>
<path d="M230.404 88.0578V281.912C230.404 287.158 234.981 291.289 240.647 291.276L327.004 291.144C332.656 291.144 337.246 286.922 337.246 281.755V87.9398C337.246 82.6941 332.656 78.5631 327.004 78.5762H314.06V79.7171C313.982 81.3824 313.249 82.9493 312.021 84.0767C310.792 85.2041 309.169 85.8007 307.503 85.7366H259.741C258.079 85.8114 256.455 85.2237 255.226 84.1026C253.996 82.9814 253.262 81.4184 253.184 79.7565V78.6024H240.712C234.981 78.7205 230.404 82.9301 230.404 88.0578Z" fill="#0078D4"/>
<path opacity="0.28" d="M248.056 138.26H324.709V156.987H248.056V138.26Z" fill="white"/>
<path opacity="0.28" d="M248.056 110.615H324.709V129.342H248.056V110.615Z" fill="white"/>
<path d="M286.769 148.504V149.697L327.265 179.152C327.265 179.152 328.013 186.089 329.101 186.915C330.805 187.794 332.593 188.497 334.439 189.014V193.617L344.104 200.318L347.16 201.367V191.663L333.941 181.171L329.81 176.45L328.21 177.762L286.769 148.504Z" fill="url(#paint2_linear_303_16234)"/>
<path d="M277.118 81.5943L293.523 81.5681V80.2305L277.118 80.2567V81.5943Z" fill="url(#paint3_linear_303_16234)"/>
<path d="M272.803 82.3625C273.788 82.3529 274.579 81.6112 274.57 80.7059C274.561 79.8006 273.756 79.0745 272.771 79.0841C271.786 79.0938 270.994 79.8355 271.003 80.7408C271.012 81.6461 271.818 82.3722 272.803 82.3625Z" fill="url(#paint4_linear_303_16234)"/>
<path d="M20 192.338C20.0787 195.63 21.718 198.659 23.331 201.518C30.7012 214.54 38.9763 227.379 50.4118 237.044C67.198 251.26 89.2037 257.384 110.449 263.128C108.547 262.197 106.252 252.414 105.413 250.263C103.774 246.041 102.239 241.792 100.652 237.556C98.1607 230.854 92.915 225.464 87.8136 220.507C76.2502 209.384 62.2213 201.152 46.871 196.482C38.1538 193.842 29.1074 192.447 20 192.338Z" fill="#0078D4"/>
<path d="M20 192.338C20.0787 195.63 21.718 198.659 23.331 201.518C30.7012 214.54 38.9763 227.379 50.4118 237.044C67.198 251.26 89.2037 257.384 110.449 263.128C108.547 262.197 106.252 252.414 105.413 250.263C103.774 246.041 102.239 241.792 100.652 237.556C98.1607 230.854 92.915 225.464 87.8136 220.507C76.2502 209.384 62.2213 201.152 46.871 196.482C38.1538 193.842 29.1074 192.447 20 192.338Z" fill="url(#paint5_linear_303_16234)"/>
<path d="M103.118 199.63C101.387 187.513 99.6034 175.212 94.7249 163.986C89.8465 152.76 81.3878 142.531 69.9129 138.256C69.5894 155.619 69.2571 172.982 68.9162 190.345C68.7326 200.378 68.5621 210.594 71.4341 220.207C76.47 237.032 93.9905 256.795 110.882 262.356C113.386 254.264 109.19 242.015 107.997 233.609L103.118 199.63Z" fill="#0078D4"/>
<path d="M103.118 199.63C101.387 187.513 99.6034 175.212 94.7249 163.986C89.8465 152.76 81.3878 142.531 69.9129 138.256C69.5894 155.619 69.2571 172.982 68.9162 190.345C68.7326 200.378 68.5621 210.594 71.4341 220.207C76.47 237.032 93.9905 256.795 110.882 262.356C113.386 254.264 109.19 242.015 107.997 233.609L103.118 199.63Z" fill="url(#paint6_linear_303_16234)"/>
<path d="M168.466 174.898C167.876 174.898 167.509 174.268 167.365 173.691C167.313 173.102 167.063 172.547 166.657 172.118C166.42 171.934 166.079 171.816 165.988 171.527C165.955 171.398 165.955 171.263 165.988 171.134C166.15 170.467 166.457 169.843 166.888 169.308C167.319 168.773 167.862 168.34 168.479 168.039C169.109 168.59 170.066 168.577 170.669 169.154C171.304 169.866 171.794 170.694 172.112 171.593L177.987 185.547L179.823 189.9C180.529 191.29 180.927 192.815 180.99 194.372C181.011 195.153 180.788 195.921 180.35 196.567C179.913 197.214 179.283 197.708 178.551 197.979C178.048 198.088 177.526 198.083 177.025 197.965C176.524 197.847 176.055 197.619 175.653 197.297C174.852 196.639 174.214 195.804 173.791 194.858C172.269 191.789 172.046 188.301 171.587 184.851C171.128 181.402 170.801 177.416 168.466 174.898Z" fill="#FFBBAB"/>
<path d="M167.902 185.859C167.758 185.743 167.592 185.658 167.413 185.61C167.235 185.563 167.048 185.554 166.866 185.583C166.674 185.654 166.506 185.776 166.381 185.938C165.75 186.678 165.302 187.556 165.075 188.502C164.847 189.448 164.845 190.433 165.069 191.38C165.206 192.203 165.58 192.969 166.145 193.583C166.768 194.129 167.495 194.544 168.282 194.803L174.603 197.321C175.081 197.562 175.618 197.662 176.151 197.609C176.428 197.53 176.687 197.396 176.912 197.216C177.137 197.036 177.324 196.813 177.462 196.56C177.862 195.926 178.116 195.212 178.207 194.468C178.297 193.724 178.222 192.97 177.987 192.259C176.807 188.573 170.931 187.642 167.902 185.859Z" fill="#FFBBAB"/>
<path d="M161.293 177.391L166.315 182.164L169.974 185.639C170.801 186.426 171.85 187.134 172.191 188.262C172.611 189.854 172.462 191.542 171.771 193.036C170.991 194.623 170.414 196.301 170.053 198.032C170.053 197.403 168.047 195.947 167.601 195.593C166.63 194.833 165.607 194.164 164.637 193.416C163.666 192.669 162.46 191.895 162.119 190.924C162.021 190.3 161.99 189.667 162.027 189.036L161.385 178.938L161.293 177.391Z" fill="#0078D4"/>
<path d="M161.293 177.391L166.315 182.164L169.974 185.639C170.801 186.426 171.85 187.134 172.191 188.262C172.611 189.854 172.462 191.542 171.771 193.036C170.991 194.623 170.414 196.301 170.053 198.032C170.053 197.403 168.047 195.947 167.601 195.593C166.63 194.833 165.607 194.164 164.637 193.416C163.666 192.669 162.46 191.895 162.119 190.924C162.021 190.3 161.99 189.667 162.027 189.036L161.385 178.938L161.293 177.391Z" fill="url(#paint7_linear_303_16234)"/>
<path d="M233.184 239.024C231.986 240.217 231.035 241.635 230.387 243.197C229.739 244.759 229.406 246.434 229.408 248.125C229.396 249.932 229.772 251.721 230.509 253.371C231.284 255.141 232.449 256.713 233.915 257.971C235.382 259.229 237.114 260.14 238.981 260.636V263.587H83.8923C79.8851 263.47 76.0812 261.796 73.2881 258.92C70.495 256.044 68.9326 252.193 68.9326 248.184C68.9326 244.175 70.495 240.324 73.2881 237.448C76.0812 234.572 79.8851 232.898 83.8923 232.781H238.981V235.732C236.792 236.299 234.793 237.435 233.184 239.024Z" fill="#0078D4"/>
<path d="M238.981 260.586V263.536H83.8925C80.6663 263.541 77.5205 262.53 74.9008 260.647C72.2811 258.764 70.3204 256.104 69.2964 253.045C75.1847 254.081 112.481 260.022 133.241 248.18L230.509 253.425C231.297 255.176 232.467 256.727 233.933 257.967C235.399 259.206 237.124 260.101 238.981 260.586Z" fill="url(#paint8_linear_303_16234)"/>
<path d="M233.184 239.027C231.582 240.627 230.43 242.621 229.845 244.808C229.259 246.995 229.26 249.297 229.848 251.484C230.435 253.67 231.589 255.663 233.193 257.261C234.796 258.859 236.792 260.006 238.981 260.587V261.02H146.132C142.717 261.02 139.441 259.663 137.026 257.248C134.611 254.833 133.254 251.557 133.254 248.142C133.254 244.726 134.611 241.451 137.026 239.036C139.441 236.62 142.717 235.264 146.132 235.264H238.981V235.683C236.787 236.265 234.786 237.419 233.184 239.027Z" fill="white"/>
<path d="M215.178 256.65C215.732 256.889 216.334 256.996 216.936 256.965L226.116 257.188C226.363 257.202 226.611 257.175 226.85 257.11C227.117 256.973 227.335 256.758 227.473 256.492C227.612 256.226 227.665 255.924 227.624 255.628C227.499 254.848 227.131 254.129 226.573 253.571C226.015 253.013 225.295 252.645 224.516 252.52C222.958 252.285 221.382 252.189 219.808 252.231C219.168 252.23 218.538 252.08 217.967 251.793C217.395 251.507 216.899 251.091 216.516 250.579C215.795 249.674 214.929 248.743 213.736 249.608C211.86 251.038 213.395 255.693 215.178 256.65Z" fill="#FFBBAB"/>
<path d="M169.135 215.132C169.135 215.132 194.773 214.332 201.147 217.007C207.52 219.682 217.421 250.474 217.421 250.474L212.071 252.52C212.071 252.52 202.97 233.347 199.98 231.629C196.99 229.911 164.952 223.616 164.952 223.616C164.952 223.616 162.499 221.741 169.135 215.132Z" fill="#473F47"/>
<path d="M169.135 215.132C169.135 215.132 194.773 214.332 201.147 217.007C207.52 219.682 217.421 250.474 217.421 250.474L212.071 252.52C212.071 252.52 202.97 233.347 199.98 231.629C196.99 229.911 164.952 223.616 164.952 223.616C164.952 223.616 162.499 221.741 169.135 215.132Z" fill="url(#paint9_linear_303_16234)"/>
<path d="M233.184 269.816C231.977 271.019 231.021 272.45 230.373 274.026C229.724 275.602 229.396 277.291 229.407 278.996C229.405 280.781 229.781 282.546 230.509 284.176C231.282 285.947 232.445 287.521 233.912 288.779C235.379 290.038 237.112 290.947 238.981 291.441V294.392H83.8922C81.8703 294.392 79.8683 293.994 78.0003 293.22C76.1324 292.446 74.4352 291.312 73.0055 289.882C71.5758 288.453 70.4418 286.755 69.668 284.888C68.8943 283.02 68.4961 281.018 68.4961 278.996C68.4961 276.974 68.8943 274.972 69.668 273.104C70.4418 271.236 71.5758 269.539 73.0055 268.109C74.4352 266.679 76.1324 265.545 78.0003 264.772C79.8683 263.998 81.8703 263.6 83.8922 263.6H238.981V266.537C236.796 267.106 234.797 268.236 233.184 269.816Z" fill="#0078D4"/>
<path d="M238.981 291.323V294.273H83.8925C80.6663 294.278 77.5205 293.267 74.9008 291.384C72.2811 289.501 70.3204 286.841 69.2964 283.782C75.1847 284.818 112.481 290.759 133.241 278.93L230.509 284.11C231.288 285.872 232.455 287.435 233.921 288.684C235.388 289.933 237.118 290.835 238.981 291.323Z" fill="url(#paint10_linear_303_16234)"/>
<path d="M233.184 269.818C231.596 271.419 230.455 273.409 229.877 275.589C229.299 277.769 229.304 280.063 229.891 282.241C230.478 284.418 231.626 286.403 233.222 287.998C234.817 289.592 236.803 290.74 238.981 291.325V291.758H146.132C142.717 291.758 139.441 290.401 137.026 287.986C134.611 285.571 133.254 282.296 133.254 278.88C133.254 275.465 134.611 272.189 137.026 269.774C139.441 267.359 142.717 266.002 146.132 266.002H238.981V266.422C236.783 267.024 234.784 268.196 233.184 269.818Z" fill="white"/>
<path d="M208.15 265.645C208.653 265.643 209.154 265.723 209.632 265.881C209.87 265.959 210.081 266.105 210.239 266.301C210.397 266.496 210.496 266.732 210.523 266.982C210.505 267.228 210.426 267.466 210.293 267.675C210.161 267.883 209.978 268.055 209.763 268.176C209.343 268.438 208.871 268.595 208.451 268.871C208.103 269.164 207.73 269.427 207.337 269.657C206.629 269.863 205.874 269.831 205.186 269.566C201.973 268.791 198.649 268.582 195.363 268.949C195.041 268.989 194.715 268.989 194.393 268.949C193.927 268.814 193.503 268.563 193.162 268.218C192.82 267.874 192.571 267.449 192.439 266.982C191.781 264.98 191.584 262.855 191.862 260.766C191.864 260.537 191.922 260.311 192.032 260.11C192.156 259.941 192.324 259.81 192.518 259.73C195.639 258.183 197.344 261.264 199.626 262.759C202.164 264.453 205.104 265.448 208.15 265.645Z" fill="#FFBBAB"/>
<path d="M151.745 216.73C151.745 216.73 150.972 228.376 161.371 231.89C168.584 234.316 176.872 233.871 184.334 233.202C185.646 233.084 187.088 232.769 188.426 232.782C191.049 232.782 190.511 234.513 190.485 236.716C190.485 242.294 190.437 247.868 190.341 253.437C190.101 256.36 190.517 259.299 191.56 262.04L199.232 259.994C199.026 251.922 199.491 243.846 200.622 235.851C201.12 232.389 201.868 228.061 199.547 225.11C197.292 222.468 194.316 220.541 190.983 219.563L170.21 213.006L151.745 216.73Z" fill="#473F47"/>
<path d="M166.709 163.264C167.089 163.907 167.876 164.287 168.138 165.008C168.4 165.73 167.85 166.739 167.535 167.631C167.115 168.825 167.246 170.162 166.827 171.369C166.755 171.631 166.609 171.868 166.407 172.051C166.212 172.176 165.993 172.261 165.764 172.3C164.876 172.483 163.966 172.536 163.063 172.457C162.893 172.397 162.708 172.397 162.538 172.457C162.408 172.577 162.324 172.74 162.302 172.916C161.779 175.19 161.815 177.557 162.407 179.814C162.604 180.549 162.814 181.467 162.263 181.991C162.073 182.177 161.83 182.3 161.568 182.345C159.85 182.765 158.198 181.493 157.03 180.168C156.004 178.965 155.124 177.644 154.408 176.234C154.174 175.829 154.018 175.385 153.949 174.923C153.916 174.372 153.987 173.821 154.158 173.296C154.646 171.416 154.944 169.492 155.05 167.552C155.181 165.074 155.05 162.49 155.942 160.195C156.227 159.409 156.755 158.734 157.45 158.268C158.269 157.889 159.176 157.739 160.073 157.835C161.892 157.715 163.686 158.302 165.083 159.474C165.489 159.907 166.223 162.464 166.709 163.264Z" fill="#FFBBAB"/>
<path d="M169.135 215.131C167.973 216.145 166.603 216.893 165.122 217.321C164.073 217.689 162.997 218.03 161.909 218.371C160.366 218.835 158.858 219.409 157.397 220.089C155.85 220.6 154.696 220.98 153.817 221.243C153.025 221.523 152.22 221.764 151.404 221.964C151.484 221.918 151.568 221.879 151.653 221.846C151.653 221.846 151.129 219.525 150.342 216.272C149.031 210.292 146.827 201.204 145.765 197.808C145.264 195.66 145.136 193.442 145.385 191.25C145.922 184.038 148.781 174.622 154.027 175.225C154.027 175.225 161.45 179.067 163.692 182.057C165.738 184.824 168.466 186.91 168.492 190.647C168.558 195.893 166.368 200.811 166.787 206.24C166.795 207.032 166.993 207.81 167.364 208.509C167.994 209.492 169.24 209.964 169.856 210.948C170.204 211.63 170.322 212.406 170.192 213.16C170.062 213.914 169.691 214.606 169.135 215.131Z" fill="#0078D4"/>
<path d="M160.925 214.095C161.798 215.337 162.151 216.872 161.909 218.37C161.782 218.876 161.509 219.332 161.122 219.682C160.493 220.15 159.759 220.456 158.984 220.574C157.287 220.96 155.557 221.184 153.817 221.242C153.201 221.242 152.584 221.242 151.968 221.242C151.916 219.461 151.366 217.731 150.381 216.246C149.07 210.266 146.867 201.178 145.804 197.781C145.304 195.633 145.175 193.415 145.424 191.224C146.305 190.118 147.037 188.901 147.601 187.604C147.994 186.581 148.65 185.467 149.752 185.388C150.853 185.309 151.496 186.122 152.099 186.883C155.85 191.67 158.591 197.584 161.882 202.725C162.052 202.943 162.148 203.209 162.158 203.486C162.082 203.774 161.899 204.023 161.646 204.181C160.23 205.361 158.722 206.804 158.565 208.613C158.407 210.423 159.85 212.377 160.925 214.095Z" fill="url(#paint11_linear_303_16234)"/>
<path d="M157.175 208.258C157.413 208.968 157.768 209.632 158.224 210.226C159.434 211.393 161.041 212.058 162.722 212.088C164.648 212.286 166.583 212.387 168.519 212.389C169.83 212.389 171.902 211.76 173.004 212.809C173.266 213.071 173.463 213.386 173.738 213.635C174.464 214.193 175.371 214.459 176.282 214.383C178.269 214.419 180.25 214.153 182.158 213.596C182.238 213.59 182.316 213.561 182.381 213.515C182.447 213.468 182.499 213.404 182.531 213.33C182.564 213.256 182.575 213.174 182.565 213.094C182.555 213.014 182.523 212.938 182.472 212.875C182.084 211.725 181.508 210.648 180.768 209.688C180.394 209.211 179.919 208.823 179.377 208.553C178.835 208.283 178.239 208.137 177.633 208.127C177.006 208.2 176.387 208.332 175.784 208.521C173.951 208.787 172.083 208.662 170.302 208.153C168.227 207.871 166.226 207.185 164.414 206.134C163.916 205.725 163.509 205.215 163.221 204.639C162.395 203.082 161.736 201.442 161.254 199.747C161.057 199.092 160.768 198.344 160.113 198.121C159.872 198.067 159.623 198.062 159.38 198.105C159.137 198.147 158.904 198.238 158.696 198.37C157.086 199.107 155.813 200.422 155.129 202.055C154.644 203.734 156.506 206.619 157.175 208.258Z" fill="#FFBBAB"/>
<path d="M156.939 184.968C156.939 184.968 161.62 197.636 162.538 198.567C163.456 199.498 153.516 205.124 153.516 205.124C153.516 205.124 147.037 192.797 147.339 187.459C147.641 182.122 153.28 179.932 156.939 184.968Z" fill="#0078D4"/>
<path d="M164.321 159.28C164.173 160.5 163.591 161.626 162.682 162.454C161.804 163.28 160.715 163.831 159.81 164.631C159.326 164.987 158.94 165.46 158.688 166.006C158.436 166.552 158.326 167.152 158.368 167.752C158.016 167.614 157.628 167.603 157.269 167.72C156.91 167.837 156.603 168.076 156.401 168.394C156.316 168.612 156.29 168.848 156.327 169.079C156.364 169.309 156.462 169.526 156.61 169.706C156.773 169.891 156.975 170.037 157.203 170.132C157.43 170.228 157.676 170.27 157.922 170.257C156.981 170.634 156.173 171.282 155.601 172.119C154.145 174.283 152.453 175.909 152.978 178.794C153.371 180.722 154.407 182.466 154.958 184.354C155.476 186.135 155.559 188.013 155.199 189.832C154.84 191.651 154.048 193.357 152.891 194.806C151.734 196.255 150.245 197.405 148.551 198.158C146.857 198.911 145.006 199.246 143.155 199.134C139.667 198.937 136.034 196.669 135.47 193.22C134.841 189.285 138.198 185.81 138.578 181.863C138.775 179.725 138.093 177.522 138.578 175.437C139.3 172.552 142.067 170.768 144.165 168.67C148.663 164.145 148.689 156.67 155.784 154.769C159.089 153.969 164.649 154.939 164.321 159.28Z" fill="#FC682D"/>
<path d="M178.223 212.773L186.498 191.725H208.372L197.37 217.009L163.863 215.75L164.938 213.717L178.223 212.773Z" fill="#0078D4"/>
<path d="M178.223 212.773L186.498 191.725H208.372L197.37 217.009L163.863 215.75L164.938 213.717L178.223 212.773Z" fill="url(#paint12_linear_303_16234)"/>
<path d="M224.975 251.986C224.457 251.775 223.893 251.702 223.339 251.776C222.785 251.85 222.259 252.067 221.814 252.406C221.369 252.851 221.146 253.468 220.7 253.914C220.064 254.411 219.278 254.679 218.47 254.674C217.19 254.768 215.903 254.698 214.641 254.464C214.434 254.413 214.218 254.413 214.011 254.464C213.845 254.534 213.704 254.653 213.608 254.806C213.512 254.958 213.465 255.137 213.474 255.317C213.499 255.674 213.597 256.022 213.762 256.34C213.948 256.86 214.28 257.316 214.72 257.651C215.161 257.876 215.654 257.98 216.149 257.953C219.547 258.117 222.952 258.038 226.339 257.717C227.188 257.695 228.004 257.38 228.647 256.825C230.535 254.884 226.444 252.458 224.975 251.986Z" fill="#0078D4"/>
<path d="M203.73 263.787C203.284 263.787 202.838 263.787 202.419 263.787C202.258 263.761 202.094 263.761 201.933 263.787C201.626 263.916 201.365 264.136 201.186 264.417C200.753 264.968 200.36 265.728 199.704 266.004C199.105 266.248 198.473 266.403 197.829 266.463C196.375 266.585 194.911 266.484 193.488 266.161C193.281 266.11 193.065 266.11 192.858 266.161C192.691 266.229 192.549 266.348 192.453 266.501C192.356 266.654 192.31 266.833 192.321 267.013C192.346 267.371 192.444 267.719 192.609 268.036C192.781 268.651 193.155 269.189 193.672 269.563C194.189 269.937 194.818 270.125 195.455 270.095H200.805C202.458 270.095 204.11 270.095 205.763 270.03C206.88 270.011 207.99 269.852 209.067 269.558C209.812 269.373 210.479 268.955 210.969 268.364C211.202 268.062 211.328 267.69 211.328 267.309C211.328 266.927 211.202 266.556 210.969 266.253C210.638 265.94 210.231 265.718 209.789 265.61L206.313 264.404C205.654 264.154 204.974 263.961 204.281 263.827L203.73 263.787Z" fill="#0078D4"/>
<path d="M338.885 177.497H338.793C338.38 177.194 338.013 176.832 337.705 176.422C336.765 175.236 335.613 174.236 334.308 173.471C333.771 173.157 332.997 172.907 332.577 173.379C332.433 173.537 332.367 173.76 332.21 173.904C331.843 174.245 331.253 174.022 330.833 173.76C330.413 173.498 329.876 173.209 329.443 173.471C329.314 173.572 329.211 173.701 329.143 173.85C329.074 173.998 329.042 174.161 329.049 174.324C329.103 175.084 329.346 175.819 329.758 176.461C330.385 177.719 331.103 178.929 331.908 180.081C332.105 180.429 332.395 180.715 332.744 180.91C333.093 181.104 333.489 181.198 333.889 181.182C335.136 181.182 336.364 181.497 337.456 182.1C337.662 182.298 337.922 182.43 338.203 182.481C339.003 182.559 339.279 180.094 339.41 179.53C339.475 179.255 339.829 178.337 339.698 178.061C339.567 177.786 339.147 177.642 338.885 177.497Z" fill="#FFBBAB"/>
<path d="M359.816 225.967L361.088 288.942H369.625L372.091 238.898L377.467 288.942L387.251 290.581L389.493 223.908L359.816 225.967Z" fill="#0078D4"/>
<path d="M359.816 225.967L361.088 288.942H369.625L372.091 238.898L377.467 288.942L387.251 290.581L389.493 223.908L359.816 225.967Z" fill="url(#paint13_linear_303_16234)"/>
<path d="M381.401 287.958V229.587L389.493 223.908L386.765 288.942L381.401 287.958Z" fill="url(#paint14_linear_303_16234)"/>
<path d="M336.577 184.736L336.761 184.894C338.584 186.467 352.917 198.808 355.121 198.087C358.078 196.751 360.936 195.204 363.671 193.457L364.392 193.024V175.688L355.396 186.415L339.489 177.038L336.577 184.736Z" fill="#0078D4"/>
<path d="M336.761 184.893C338.584 186.467 352.918 198.807 355.121 198.086C358.079 196.751 360.936 195.203 363.671 193.457C363.761 192.752 363.792 192.042 363.763 191.332C363.763 189.798 364.301 186.086 361.94 186.978C360.025 187.713 358.635 190.191 356.694 191.122C356.088 191.666 355.336 192.022 354.531 192.145C353.219 192.224 352.17 191.162 351.252 190.231C348.056 186.942 344.304 184.243 340.171 182.257C339.992 182.151 339.788 182.096 339.58 182.1C339.345 182.16 339.137 182.299 338.99 182.493C338.256 183.306 337.508 184.106 336.761 184.893Z" fill="url(#paint15_linear_303_16234)"/>
<path d="M383.159 170.26C385.437 171.401 387.656 172.657 389.808 174.024C394.371 176.948 393.558 178.299 392.719 183.348C390.948 194.142 390.071 205.064 390.096 216.002C390.273 218.638 390.083 221.287 389.532 223.871C389.06 225.497 387.972 226.861 387.84 228.579C380.798 229.549 364.681 233.169 359.855 225.956C355.238 219.032 363.553 194.482 362.005 183.492C360.458 172.502 374.621 171.335 374.621 171.335L383.159 170.26Z" fill="#0078D4"/>
<path d="M373.454 220.735L386.214 229.351L388.299 226.728C389.533 222.29 390.108 217.694 390.004 213.089C389.703 206.217 390.004 208.67 390.004 208.67L372.051 220.026L373.454 220.735Z" fill="url(#paint16_linear_303_16234)"/>
<path d="M367.094 159.611C367.085 160.339 367.129 161.066 367.225 161.788C367.565 163.288 368.154 164.72 368.969 166.024C369.18 166.483 369.494 166.887 369.887 167.204C370.702 167.607 371.641 167.682 372.51 167.414C372.717 167.368 372.932 167.368 373.14 167.414C373.638 167.611 373.703 168.293 373.677 168.83L373.533 171.335C373.481 171.677 373.54 172.027 373.703 172.332C373.876 172.542 374.11 172.693 374.372 172.765C375.297 173.068 376.287 173.115 377.236 172.9C378.185 172.685 379.058 172.217 379.762 171.545C380.111 171.221 380.396 170.834 380.601 170.404C380.771 169.985 380.877 169.543 380.916 169.093C381.218 166.693 380.916 164.267 381.139 161.867C381.45 159.884 381.508 157.87 381.31 155.873C381.121 154.805 380.67 153.8 379.997 152.948C379.324 152.097 378.45 151.426 377.454 150.995C375.385 150.341 373.157 150.392 371.12 151.139C370.12 151.42 369.135 151.753 368.169 152.136C367.699 152.26 367.293 152.554 367.028 152.962C366.648 153.736 367.028 154.851 367.028 155.677C367.12 157.001 367.094 158.313 367.094 159.611Z" fill="#FFBBAB"/>
<path d="M383.919 150.64C382.03 147.807 377.624 147.755 374.555 147.348C374.116 147.323 373.69 147.183 373.322 146.942C373.233 146.876 373.157 146.793 373.101 146.697C373.044 146.601 373.007 146.495 372.993 146.385C372.978 146.275 372.986 146.163 373.015 146.056C373.045 145.949 373.096 145.848 373.165 145.761L370.831 147.073V145.342C370.03 145.975 369.184 146.549 368.3 147.06V145.512C367.269 146.314 366.502 147.405 366.095 148.646C365.689 149.886 365.662 151.22 366.018 152.476C366.765 155.099 370.726 155.374 372.942 155.256C373.553 155.204 374.167 155.204 374.778 155.256C375.387 155.324 375.953 155.602 376.378 156.043C376.87 156.875 377.145 157.818 377.178 158.784C377.186 158.841 377.209 158.895 377.244 158.941C377.283 158.947 377.322 158.947 377.362 158.941C378.044 159.02 378.673 158.22 379.302 158.495C379.455 158.58 379.582 158.704 379.672 158.853C379.762 159.003 379.811 159.173 379.814 159.348C379.863 159.766 379.804 160.191 379.643 160.581C379.56 160.73 379.506 160.895 379.486 161.066C379.494 161.179 379.52 161.29 379.565 161.394L379.998 162.587C380.11 163.027 380.375 163.413 380.745 163.675C381.024 163.76 381.32 163.774 381.606 163.717C381.892 163.66 382.159 163.533 382.384 163.348C382.726 163.174 383.026 162.928 383.263 162.626C383.42 162.359 383.526 162.066 383.578 161.761C384.155 158.79 384.393 155.763 384.286 152.738C384.314 152.021 384.189 151.305 383.919 150.64Z" fill="#963637"/>
<path d="M380.93 169.119C380.93 169.119 382.884 170.431 382.831 171.965C382.779 173.499 372.183 203.308 372.183 203.308C372.183 203.308 371.947 174.732 372.183 173.407C372.543 172.116 373.021 170.86 373.612 169.657C373.612 169.657 377.848 172.726 380.93 169.119Z" fill="white"/>
<path d="M377.467 171.807L378.175 174.115L376.982 175.125L376.405 191.321L372.195 203.294L372.09 191.124L375.71 175.046L374.385 172.777L376.129 171.807H377.467Z" fill="#212741"/>
<path d="M369.625 213.953C370.873 215.531 372.289 216.969 373.847 218.242L374.818 219.015C375.17 219.321 375.602 219.521 376.064 219.592C376.382 219.585 376.695 219.509 376.982 219.369C383.15 216.968 389.195 214.259 395.092 211.252C397.571 209.94 400.272 208.327 400.797 205.6C400.933 204.654 400.91 203.692 400.731 202.754C399.797 195.862 397.995 189.116 395.368 182.676C394.62 180.853 393.702 177.338 391.748 176.119L391.512 176.001L391.237 175.87C388.614 174.925 386.332 177.548 385.611 179.804C384.793 183.029 384.897 186.419 385.912 189.587C386.927 192.732 387.677 195.956 388.155 199.226C388.224 199.667 388.178 200.119 388.024 200.537C387.774 200.955 387.428 201.306 387.014 201.56L369.625 213.953Z" fill="#0078D4"/>
<path d="M369.625 288.942L369.166 293.585L366.241 294.122L364.93 292.968L362.674 294.739H353.901C353.901 294.739 351.671 290.896 356.524 289.585L361.363 288.273L369.625 288.942Z" fill="#212741"/>
<path d="M386.752 288.942L386.293 293.585L383.369 294.122L382.057 292.968L379.828 294.739H371.054C371.054 294.739 368.825 290.896 373.677 289.585L378.516 288.273L386.752 288.942Z" fill="#212741"/>
<path d="M372.09 238.898L368.169 235.711L365.402 288.273L369.624 288.941L372.09 238.898Z" fill="url(#paint17_linear_303_16234)"/>
<path d="M373.847 218.244L374.818 219.017C375.171 219.323 375.602 219.523 376.064 219.594C376.382 219.587 376.695 219.511 376.982 219.371C383.15 216.97 389.195 214.261 395.092 211.254C397.571 209.942 400.273 208.329 400.797 205.602C400.933 204.656 400.911 203.694 400.732 202.756C399.797 195.864 397.995 189.118 395.368 182.678C394.62 180.855 393.702 177.34 391.748 176.121L391.512 176.003L391.237 175.872C390.005 175.855 388.799 176.226 387.789 176.932C386.78 177.638 386.018 178.643 385.611 179.806C385.611 179.806 394.948 198.9 394.542 201.785C394.135 204.67 374.542 213.955 374.542 213.955L373.847 218.244Z" fill="url(#paint18_linear_303_16234)"/>
<path d="M365.297 215.555C364.785 215.684 364.307 215.921 363.894 216.25C363.695 216.421 363.547 216.644 363.468 216.894C363.39 217.145 363.382 217.412 363.448 217.666C363.602 217.961 363.782 218.242 363.986 218.506C364.235 218.952 364.274 219.515 364.497 219.974C364.949 220.674 365.646 221.18 366.451 221.391C368.786 222.23 371.631 222.348 373.52 220.735C374.831 219.568 377.638 214.729 374.608 213.994C373.319 213.916 372.025 214.049 370.779 214.388C368.923 214.625 367.089 215.016 365.297 215.555Z" fill="#FFBBAB"/>
<path d="M287.162 148.07L286.769 148.503L343.632 183.374L344.052 182.43L287.162 148.07Z" fill="white"/>
<path d="M329.076 174.614C328.985 174.189 329.055 173.745 329.272 173.368C329.424 173.202 329.611 173.072 329.82 172.988C330.029 172.904 330.254 172.868 330.479 172.883C330.695 172.865 330.913 172.887 331.122 172.949C331.594 173.119 331.869 173.591 332.171 173.998C332.266 174.124 332.376 174.238 332.499 174.339C332.666 174.449 332.846 174.538 333.036 174.601C333.305 174.684 333.561 174.803 333.797 174.955C334.161 175.232 334.464 175.58 334.689 175.978C334.91 176.295 335.098 176.633 335.253 176.988C335.424 177.449 335.5 177.939 335.475 178.43C335.491 178.597 335.449 178.763 335.357 178.902C335.235 179.035 335.066 179.115 334.885 179.125C334.164 179.183 333.444 178.998 332.84 178.601C332.223 178.234 331.672 177.748 331.095 177.289C330.582 177.02 330.136 176.64 329.786 176.178C329.437 175.715 329.195 175.181 329.076 174.614Z" fill="#FFBBAB"/>
</g>
<defs>
<filter id="filter0_d_303_16234" x="0" y="0" width="436.999" height="348.396" filterUnits="userSpaceOnUse" color-interpolation-filters="sRGB">
<feFlood flood-opacity="0" result="BackgroundImageFix"/>
<feColorMatrix in="SourceAlpha" type="matrix" values="0 0 0 0 0 0 0 0 0 0 0 0 0 0 0 0 0 0 127 0" result="hardAlpha"/>
<feOffset dy="4"/>
<feGaussianBlur stdDeviation="10"/>
<feComposite in2="hardAlpha" operator="out"/>
<feColorMatrix type="matrix" values="0 0 0 0 0 0 0 0 0 0.278431 0 0 0 0 1 0 0 0 0.24 0"/>
<feBlend mode="normal" in2="BackgroundImageFix" result="effect1_dropShadow_303_16234"/>
<feBlend mode="normal" in="SourceGraphic" in2="effect1_dropShadow_303_16234" result="shape"/>
</filter>
<linearGradient id="paint0_linear_303_16234" x1="237.788" y1="200.342" x2="273.603" y2="535.856" gradientUnits="userSpaceOnUse">
<stop offset="0.01"/>
<stop offset="0.08" stop-opacity="0.69"/>
<stop offset="0.21" stop-opacity="0.32"/>
<stop offset="1" stop-opacity="0"/>
</linearGradient>
<linearGradient id="paint1_linear_303_16234" x1="380.689" y1="115.781" x2="220.371" y2="255.352" gradientUnits="userSpaceOnUse">
<stop stop-color="white"/>
<stop offset="1" stop-color="#CBCBCB"/>
</linearGradient>
<linearGradient id="paint2_linear_303_16234" x1="329.823" y1="132.164" x2="289.601" y2="265.679" gradientUnits="userSpaceOnUse">
<stop offset="0.01"/>
<stop offset="0.08" stop-opacity="0.69"/>
<stop offset="0.21" stop-opacity="0.32"/>
<stop offset="1" stop-opacity="0"/>
</linearGradient>
<linearGradient id="paint3_linear_303_16234" x1="296.066" y1="65.5688" x2="296.15" y2="76.1258" gradientUnits="userSpaceOnUse">
<stop stop-color="white"/>
<stop offset="1" stop-color="#CBCBCB"/>
</linearGradient>
<linearGradient id="paint4_linear_303_16234" x1="283.973" y1="68.8773" x2="283.436" y2="76.6098" gradientUnits="userSpaceOnUse">
<stop stop-color="white"/>
<stop offset="1" stop-color="#CBCBCB"/>
</linearGradient>
<linearGradient id="paint5_linear_303_16234" x1="110.383" y1="189.256" x2="-21.454" y2="301.566" gradientUnits="userSpaceOnUse">
<stop offset="0.01"/>
<stop offset="0.13" stop-opacity="0.69"/>
<stop offset="0.25" stop-opacity="0.32"/>
<stop offset="1" stop-opacity="0"/>
</linearGradient>
<linearGradient id="paint6_linear_303_16234" x1="2082.12" y1="287.364" x2="2280.65" y2="103.91" gradientUnits="userSpaceOnUse">
<stop offset="0.01"/>
<stop offset="0.13" stop-opacity="0.69"/>
<stop offset="0.25" stop-opacity="0.32"/>
<stop offset="1" stop-opacity="0"/>
</linearGradient>
<linearGradient id="paint7_linear_303_16234" x1="156.073" y1="197.98" x2="182.302" y2="169.863" gradientUnits="userSpaceOnUse">
<stop offset="0.01"/>
<stop offset="0.08" stop-opacity="0.69"/>
<stop offset="0.21" stop-opacity="0.32"/>
<stop offset="1" stop-opacity="0"/>
</linearGradient>
<linearGradient id="paint8_linear_303_16234" x1="140.9" y1="145.482" x2="180.479" y2="478.176" gradientUnits="userSpaceOnUse">
<stop offset="0.01"/>
<stop offset="0.08" stop-opacity="0.69"/>
<stop offset="0.21" stop-opacity="0.32"/>
<stop offset="1" stop-opacity="0"/>
</linearGradient>
<linearGradient id="paint9_linear_303_16234" x1="208.464" y1="228.613" x2="139.51" y2="248.717" gradientUnits="userSpaceOnUse">
<stop offset="0.01"/>
<stop offset="0.08" stop-opacity="0.69"/>
<stop offset="0.21" stop-opacity="0.32"/>
<stop offset="1" stop-opacity="0"/>
</linearGradient>
<linearGradient id="paint10_linear_303_16234" x1="140.9" y1="176.285" x2="180.479" y2="508.966" gradientUnits="userSpaceOnUse">
<stop offset="0.01"/>
<stop offset="0.08" stop-opacity="0.69"/>
<stop offset="0.21" stop-opacity="0.32"/>
<stop offset="1" stop-opacity="0"/>
</linearGradient>
<linearGradient id="paint11_linear_303_16234" x1="125.609" y1="193.362" x2="209.513" y2="226.186" gradientUnits="userSpaceOnUse">
<stop offset="0.01"/>
<stop offset="0.08" stop-opacity="0.69"/>
<stop offset="0.21" stop-opacity="0.32"/>
<stop offset="1" stop-opacity="0"/>
</linearGradient>
<linearGradient id="paint12_linear_303_16234" x1="175.548" y1="223.146" x2="222.89" y2="157.378" gradientUnits="userSpaceOnUse">
<stop offset="0.01"/>
<stop offset="0.08" stop-opacity="0.69"/>
<stop offset="0.21" stop-opacity="0.32"/>
<stop offset="1" stop-opacity="0"/>
</linearGradient>
<linearGradient id="paint13_linear_303_16234" x1="402.594" y1="240.996" x2="297.366" y2="303.564" gradientUnits="userSpaceOnUse">
<stop offset="0.01"/>
<stop offset="0.08" stop-opacity="0.69"/>
<stop offset="0.21" stop-opacity="0.32"/>
<stop offset="1" stop-opacity="0"/>
</linearGradient>
<linearGradient id="paint14_linear_303_16234" x1="361.638" y1="235.527" x2="417.859" y2="283.722" gradientUnits="userSpaceOnUse">
<stop offset="0.01"/>
<stop offset="0.08" stop-opacity="0.69"/>
<stop offset="0.21" stop-opacity="0.32"/>
<stop offset="1" stop-opacity="0"/>
</linearGradient>
<linearGradient id="paint15_linear_303_16234" x1="344.472" y1="206.899" x2="358.517" y2="163.504" gradientUnits="userSpaceOnUse">
<stop offset="0.01"/>
<stop offset="0.08" stop-opacity="0.69"/>
<stop offset="0.21" stop-opacity="0.32"/>
<stop offset="1" stop-opacity="0"/>
</linearGradient>
<linearGradient id="paint16_linear_303_16234" x1="376.496" y1="204.447" x2="397.309" y2="248.851" gradientUnits="userSpaceOnUse">
<stop offset="0.01"/>
<stop offset="0.08" stop-opacity="0.69"/>
<stop offset="0.21" stop-opacity="0.32"/>
<stop offset="1" stop-opacity="0"/>
</linearGradient>
<linearGradient id="paint17_linear_303_16234" x1="381.571" y1="259.474" x2="342.793" y2="268.195" gradientUnits="userSpaceOnUse">
<stop offset="0.01"/>
<stop offset="0.08" stop-opacity="0.69"/>
<stop offset="0.21" stop-opacity="0.32"/>
<stop offset="1" stop-opacity="0"/>
</linearGradient>
<linearGradient id="paint18_linear_303_16234" x1="354.032" y1="182.009" x2="430.553" y2="222.834" gradientUnits="userSpaceOnUse">
<stop offset="0.01"/>
<stop offset="0.08" stop-opacity="0.69"/>
<stop offset="0.21" stop-opacity="0.32"/>
<stop offset="1" stop-opacity="0"/>
</linearGradient>
</defs>
</svg>
