<svg width="21" height="22" viewBox="0 0 21 22" fill="none" xmlns="http://www.w3.org/2000/svg">
<path opacity="1" d="M9.13132 0.825195C11.6678 0.825195 13.8238 1.7002 15.5993 3.4502C17.3749 5.2002 18.2626 7.3252 18.2626 9.8252H16.2335C16.2335 7.8752 15.5442 6.22086 14.1657 4.8622C12.7879 3.5042 11.1098 2.8252 9.13132 2.8252C7.96454 2.8252 6.87386 3.09186 5.85926 3.6252C4.84467 4.15853 3.99073 4.89186 3.29742 5.8252H5.07296C5.36042 5.8252 5.60156 5.92086 5.79636 6.1122C5.99049 6.30419 6.08755 6.54186 6.08755 6.8252C6.08755 7.10853 5.99049 7.34586 5.79636 7.5372C5.60156 7.7292 5.36042 7.8252 5.07296 7.8252H1.01459C0.727124 7.8252 0.486327 7.7292 0.292202 7.5372C0.0974009 7.34586 0 7.10853 0 6.8252V2.8252C0 2.54186 0.0974009 2.3042 0.292202 2.1122C0.486327 1.92086 0.727124 1.8252 1.01459 1.8252C1.30206 1.8252 1.54319 1.92086 1.73799 2.1122C1.93212 2.3042 2.02918 2.54186 2.02918 2.8252V4.1752C2.89159 3.10853 3.94439 2.28353 5.1876 1.7002C6.43014 1.11686 7.74471 0.825195 9.13132 0.825195ZM10.501 12.5752L8.42111 10.5252C8.31965 10.4252 8.24355 10.3125 8.19282 10.1872C8.14209 10.0625 8.11673 9.93353 8.11673 9.8002V5.8252C8.11673 5.54186 8.21413 5.3042 8.40893 5.1122C8.60306 4.92086 8.84385 4.8252 9.13132 4.8252C9.41879 4.8252 9.65992 4.92086 9.85472 5.1122C10.0489 5.3042 10.1459 5.54186 10.1459 5.8252V9.4252L11.5663 10.8252L10.501 12.5752ZM9.20741 18.8252C7.04295 18.8252 5.11963 18.1835 3.43744 16.9002C1.75457 15.6169 0.701759 14.0835 0.279013 12.3002C0.194463 12.0002 0.224225 11.7169 0.368297 11.4502C0.511692 11.1835 0.735579 11.0169 1.03996 10.9502C1.32742 10.8835 1.58513 10.9459 1.81307 11.1372C2.0417 11.3292 2.19828 11.5669 2.28283 11.8502C2.63794 13.0835 3.3353 14.1459 4.37492 15.0372C5.41521 15.9292 6.62021 16.4919 7.98991 16.7252L9.20741 18.8252ZM14.8891 20.3252C14.6862 20.2419 14.4961 20.1545 14.3189 20.0632C14.141 19.9712 13.9591 19.8585 13.7731 19.7252L12.6824 20.0502C12.564 20.0835 12.4541 20.0792 12.3526 20.0372C12.2512 19.9959 12.1666 19.9252 12.099 19.8252L11.4902 18.8252C11.4226 18.7252 11.4057 18.6169 11.4395 18.5002C11.4733 18.3835 11.5325 18.2835 11.6171 18.2002L12.4541 17.4752C12.4203 17.2585 12.4034 17.0419 12.4034 16.8252C12.4034 16.6085 12.4203 16.3919 12.4541 16.1752L11.6171 15.4502C11.5325 15.3669 11.4733 15.2669 11.4395 15.1502C11.4057 15.0335 11.4226 14.9252 11.4902 14.8252L12.099 13.8252C12.1666 13.7252 12.2512 13.6542 12.3526 13.6122C12.4541 13.5709 12.564 13.5669 12.6824 13.6002L13.7731 13.9252C13.9591 13.7919 14.141 13.6792 14.3189 13.5872C14.4961 13.4959 14.6862 13.4085 14.8891 13.3252L15.1174 12.2252C15.1512 12.1085 15.206 12.0129 15.2818 11.9382C15.3582 11.8629 15.4641 11.8252 15.5993 11.8252H16.8169C16.9521 11.8252 17.058 11.8629 17.1344 11.9382C17.2102 12.0129 17.265 12.1085 17.2988 12.2252L17.5271 13.3252C17.73 13.4085 17.9244 13.5042 18.1105 13.6122C18.2965 13.7209 18.474 13.8419 18.6431 13.9752L19.7084 13.6002C19.8268 13.5669 19.9411 13.5709 20.0514 13.6122C20.1609 13.6542 20.2495 13.7252 20.3172 13.8252L20.9259 14.8752C20.9936 14.9752 21.0149 15.0835 20.9899 15.2002C20.9642 15.3169 20.909 15.4169 20.8245 15.5002L19.9621 16.2252C19.9959 16.4419 20.0128 16.6502 20.0128 16.8502C20.0128 17.0502 19.9959 17.2585 19.9621 17.4752L20.7991 18.2002C20.8837 18.2835 20.9429 18.3835 20.9767 18.5002C21.0105 18.6169 20.9936 18.7252 20.9259 18.8252L20.3172 19.8252C20.2495 19.9252 20.165 19.9959 20.0635 20.0372C19.9621 20.0792 19.8522 20.0835 19.7338 20.0502L18.6431 19.7252C18.4571 19.8585 18.2755 19.9712 18.0983 20.0632C17.9204 20.1545 17.73 20.2419 17.5271 20.3252L17.2988 21.4252C17.265 21.5419 17.2102 21.6375 17.1344 21.7122C17.058 21.7875 16.9521 21.8252 16.8169 21.8252H15.5993C15.4641 21.8252 15.3582 21.7875 15.2818 21.7122C15.206 21.6375 15.1512 21.5419 15.1174 21.4252L14.8891 20.3252ZM16.2081 18.8252C16.7661 18.8252 17.244 18.6295 17.6417 18.2382C18.0388 17.8462 18.2373 17.3752 18.2373 16.8252C18.2373 16.2752 18.0388 15.8042 17.6417 15.4122C17.244 15.0209 16.7661 14.8252 16.2081 14.8252C15.6501 14.8252 15.1722 15.0209 14.7745 15.4122C14.3774 15.8042 14.1789 16.2752 14.1789 16.8252C14.1789 17.3752 14.3774 17.8462 14.7745 18.2382C15.1722 18.6295 15.6501 18.8252 16.2081 18.8252Z" fill="black"/>
</svg>
