<svg width="52" height="52" viewBox="0 0 52 52" fill="none" xmlns="http://www.w3.org/2000/svg">
<path d="M43.875 8.53125H8.125C7.37079 8.53125 6.64747 8.83086 6.11417 9.36417C5.58086 9.89747 5.28125 10.6208 5.28125 11.375V40.625C5.28125 41.3792 5.58086 42.1025 6.11417 42.6358C6.64747 43.1691 7.37079 43.4688 8.125 43.4688H43.875C44.6292 43.4688 45.3525 43.1691 45.8858 42.6358C46.4191 42.1025 46.7188 41.3792 46.7188 40.625V11.375C46.7188 10.6208 46.4191 9.89747 45.8858 9.36417C45.3525 8.83086 44.6292 8.53125 43.875 8.53125ZM8.125 10.9688H43.875C43.9827 10.9688 44.0861 11.0116 44.1623 11.0877C44.2384 11.1639 44.2812 11.2673 44.2812 11.375V33.2252L38.2952 27.2391C38.0311 26.975 37.7176 26.7655 37.3725 26.6225C37.0275 26.4796 36.6577 26.406 36.2842 26.406C35.9107 26.406 35.5409 26.4796 35.1959 26.6225C34.8509 26.7655 34.5374 26.975 34.2733 27.2391L29.9223 31.59L20.6984 22.3641C20.4344 22.1 20.1209 21.8905 19.7758 21.7475C19.4308 21.6046 19.061 21.531 18.6875 21.531C18.314 21.531 17.9442 21.6046 17.5992 21.7475C17.2541 21.8905 16.9406 22.1 16.6766 22.3641L7.71875 31.3219V11.375C7.71875 11.2673 7.76155 11.1639 7.83774 11.0877C7.91392 11.0116 8.01726 10.9688 8.125 10.9688ZM7.71875 40.625V34.7689L18.3991 24.0886C18.4368 24.0505 18.4818 24.0203 18.5313 23.9997C18.5808 23.979 18.6339 23.9684 18.6875 23.9684C18.7411 23.9684 18.7942 23.979 18.8437 23.9997C18.8932 24.0203 18.9382 24.0505 18.9759 24.0886L35.9186 41.0312H8.125C8.01726 41.0312 7.91392 40.9884 7.83774 40.9123C7.76155 40.8361 7.71875 40.7327 7.71875 40.625ZM43.875 41.0312H39.3656L31.6469 33.3125L35.9958 28.9616C36.0335 28.9238 36.0783 28.8938 36.1276 28.8734C36.177 28.8529 36.2298 28.8424 36.2832 28.8424C36.3366 28.8424 36.3895 28.8529 36.4388 28.8734C36.4881 28.8938 36.5329 28.9238 36.5706 28.9616L44.2894 36.6803V40.625C44.2894 40.679 44.2786 40.7325 44.2577 40.7824C44.2368 40.8322 44.2061 40.8773 44.1675 40.9152C44.1289 40.953 44.0832 40.9828 44.033 41.0027C43.9827 41.0226 43.929 41.0323 43.875 41.0312ZM29.6562 20.3125C29.6562 19.9108 29.7754 19.518 29.9986 19.184C30.2218 18.85 30.539 18.5896 30.9102 18.4359C31.2813 18.2821 31.6898 18.2419 32.0838 18.3203C32.4778 18.3987 32.8397 18.5921 33.1238 18.8762C33.4079 19.1603 33.6013 19.5222 33.6797 19.9162C33.7581 20.3102 33.7179 20.7187 33.5641 21.0898C33.4104 21.461 33.15 21.7782 32.816 22.0014C32.482 22.2246 32.0892 22.3438 31.6875 22.3438C31.1488 22.3438 30.6321 22.1297 30.2512 21.7488C29.8703 21.3679 29.6562 20.8512 29.6562 20.3125Z" fill="#7C7C7C"/>
</svg>
