<svg width="30" height="18" viewBox="0 0 30 18" fill="none" xmlns="http://www.w3.org/2000/svg">
<path fill-rule="evenodd" clip-rule="evenodd" d="M20.8063 18C25.8838 18 29.9999 13.9706 29.9999 9C29.9999 4.02944 25.8838 0 20.8063 0C15.7289 0 11.6128 4.02944 11.6128 9C11.6128 13.9706 15.7289 18 20.8063 18Z" fill="#F79E1B"/>
<path fill-rule="evenodd" clip-rule="evenodd" d="M9.19355 18C14.271 18 18.3871 13.9706 18.3871 9C18.3871 4.02944 14.271 0 9.19355 0C4.11609 0 0 4.02944 0 9C0 13.9706 4.11609 18 9.19355 18Z" fill="#EB001B"/>
<path fill-rule="evenodd" clip-rule="evenodd" d="M14.9997 2.02344C12.9327 3.67377 11.6128 6.18671 11.6128 9.00145C11.6128 11.8162 12.9327 14.3291 14.9997 15.9795C17.0667 14.3291 18.3866 11.8162 18.3866 9.00145C18.3866 6.18671 17.0667 3.67377 14.9997 2.02344Z" fill="#FF5F00"/>
</svg>
