<svg width="50" height="50" viewBox="0 0 50 50" fill="none" xmlns="http://www.w3.org/2000/svg">
<g clip-path="url(#clip0_303_15914)">
<path d="M25 50C38.8071 50 50 38.8071 50 25C50 11.1929 38.8071 0 25 0C11.1929 0 0 11.1929 0 25C0 38.8071 11.1929 50 25 50Z" fill="#5DABE8"/>
<path d="M33.3169 48.5804C40.9645 45.8831 46.9063 39.5723 49.0912 31.6975L28.7492 11.3555C28.7492 11.3555 20.0859 18.6114 20.4416 20.6025L24.416 24.529L23.0851 38.3486L33.3169 48.5804Z" fill="#0078D4"/>
<path d="M28.749 11.3555V38.3486H23.085V18.3232L20.4414 20.6025L16.7432 16.3125L22.1514 11.6494L22.4922 11.3555H28.749Z" fill="#F8FFFB"/>
<path d="M25 11.3555H28.749V38.3486H25V11.3555Z" fill="#D8D8D8"/>
</g>
<defs>
<clipPath id="clip0_303_15914">
<rect width="50" height="50" fill="white"/>
</clipPath>
</defs>
</svg>
