<svg width="50" height="50" viewBox="0 0 50 50" fill="none" xmlns="http://www.w3.org/2000/svg">
<g clip-path="url(#clip0_303_15876)">
<path d="M25 50C38.8071 50 50 38.8071 50 25C50 11.1929 38.8071 0 25 0C11.1929 0 0 11.1929 0 25C0 38.8071 11.1929 50 25 50Z" fill="#424242"/>
<path d="M27.6943 49.8551C38.4399 48.7034 47.1469 40.744 49.4189 30.3745L33.299 14.2546C33.299 14.2546 20.111 13.8901 15.3473 21.7251L22.3671 28.7627L16.116 38.3495L27.6943 49.8551Z" fill="#232323"/>
<path d="M35.3983 38.3493H16.1161V31.8406L28.4996 22.4653C30.07 21.2765 29.6915 19.6187 29.5382 19.139C29.3905 18.6769 28.7616 17.1644 26.8716 17.1092C26.8295 17.108 26.7554 17.1073 26.7257 17.1071H24.5361C21.3106 17.1071 21.06 20.6416 21.06 21.7249H15.3474C15.3474 15.6425 19.1259 11.3945 24.5361 11.3945L26.758 11.3946C26.758 11.3946 26.9448 11.3963 27.0377 11.3989C30.7317 11.5068 33.8488 13.8622 34.9796 17.3994C36.1249 20.9822 34.9349 24.7584 31.9479 27.0198L24.5288 32.6367H35.3984V38.3493H35.3983Z" fill="#F8FFFB"/>
<g opacity="0.3">
<path d="M31.9476 27.0193L25.3781 31.9933V24.8279L28.4993 22.465C30.0694 21.2763 29.6911 19.6186 29.5384 19.139C29.3907 18.6761 28.7613 17.1642 26.8712 17.1091C26.8288 17.1081 26.755 17.1071 26.7254 17.1071H25.3781V11.3945H26.7579C26.7579 11.3945 26.9441 11.3965 27.0376 11.3984C30.7311 11.5067 33.8484 13.8617 34.9791 17.3996C36.1246 20.9817 34.9349 24.758 31.9476 27.0193Z" fill="#D8D8D8"/>
<path d="M25.379 32.6367H35.3988V38.3493H25.379V32.6367Z" fill="#D8D8D8"/>
</g>
</g>
<defs>
<clipPath id="clip0_303_15876">
<rect width="50" height="50" fill="white"/>
</clipPath>
</defs>
</svg>
