<svg width="50" height="50" viewBox="0 0 50 50" fill="none" xmlns="http://www.w3.org/2000/svg">
<g clip-path="url(#clip0_303_15863)">
<path d="M25 50C38.8071 50 50 38.8071 50 25C50 11.1929 38.8071 0 25 0C11.1929 0 0 11.1929 0 25C0 38.8071 11.1929 50 25 50Z" fill="#5DABE8"/>
<path d="M25.2109 33.4371L28.1715 35H22.7303L31.9485 49.0202C40.3553 46.5926 46.94 39.8719 49.1757 31.3855L29 11.5L26.0002 21L23.0847 25.3989L22.7307 26.9746L28.1715 32.2363C28.1715 32.2363 26.3021 33.6389 25.2109 33.4371Z" fill="#0078D4"/>
<path d="M30.5884 25.8315V30.021H13.7017L13.3794 26.7017L22.8057 11.5391H27.0918L22.4351 19.1606L18.5679 25.8315H30.5884ZM28.2197 11.5391V35H22.7896V11.5391H28.2197Z" fill="#F8FFFB"/>
<path d="M29 24.5L30.5 26V30H28.5L28.4997 35H26V30.5V27.5V23V21.5V20V19V17V11.5C28.792 11.5156 29 11.5 29 11.5V24.5Z" fill="#D8D8D8"/>
</g>
<defs>
<clipPath id="clip0_303_15863">
<rect width="50" height="50" fill="white"/>
</clipPath>
</defs>
</svg>
