<svg width="26" height="26" viewBox="0 0 26 26" fill="none" xmlns="http://www.w3.org/2000/svg">
<path d="M10.5902 15.4098L25 1M10.5902 15.4098L15.1751 24.5797C15.2326 24.7051 15.3249 24.8114 15.441 24.8859C15.5571 24.9604 15.6922 25 15.8301 25C15.9681 25 16.1032 24.9604 16.2193 24.8859C16.3354 24.8114 16.4276 24.7051 16.4851 24.5797L25 1M10.5902 15.4098L1.42034 10.8249C1.29492 10.7674 1.18863 10.6751 1.11412 10.559C1.03961 10.4429 1 10.3078 1 10.1699C1 10.0319 1.03961 9.89685 1.11412 9.78074C1.18863 9.66463 1.29492 9.57235 1.42034 9.51488L25 1" stroke="#0078D4" stroke-width="2" stroke-linecap="round" stroke-linejoin="round"/>
</svg>
