<svg width="17" height="18" viewBox="0 0 17 18" fill="none" xmlns="http://www.w3.org/2000/svg">
<path fill-rule="evenodd" clip-rule="evenodd" d="M9.53033 0.96967C9.23744 0.676777 8.76256 0.676777 8.46967 0.96967L3.46967 5.96967C3.17678 6.26256 3.17678 6.73744 3.46967 7.03033C3.76256 7.32322 4.23744 7.32322 4.53033 7.03033L9 2.56066L10.2681 3.82874L8.04333 6.08167L11.4808 9.51917L16.2342 4.70563C16.5917 4.34812 16.5917 3.77063 16.2342 3.41313L14.0892 1.26812C13.7317 0.910625 13.1542 0.910625 12.7967 1.26812L11.3221 2.7614L9.53033 0.96967ZM0 17.5023V14.0648L7.0625 7.0625L10.5 10.5L3.4375 17.5023H0Z" fill="black" fill-opacity="0.54"/>
</svg>
