<svg width="32" height="33" viewBox="0 0 32 33" fill="none" xmlns="http://www.w3.org/2000/svg">
<path d="M26 21.5H23V18.5H21V21.5H18V23.5H21V26.5H23V23.5H26V21.5Z" fill="black"/>
<path d="M22 30.5C17.6 30.5 14 26.9 14 22.5C14 18.1 17.6 14.5 22 14.5C26.4 14.5 30 18.1 30 22.5C30 26.9 26.4 30.5 22 30.5ZM22 16.5C18.7 16.5 16 19.2 16 22.5C16 25.8 18.7 28.5 22 28.5C25.3 28.5 28 25.8 28 22.5C28 19.2 25.3 16.5 22 16.5Z" fill="black"/>
<path d="M28 6.5C28 5.4 27.1 4.5 26 4.5H22V2.5H20V4.5H12V2.5H10V4.5H6C4.9 4.5 4 5.4 4 6.5V26.5C4 27.6 4.9 28.5 6 28.5H12V26.5H6V6.5H10V8.5H12V6.5H20V8.5H22V6.5H26V12.5H28V6.5Z" fill="black"/>
</svg>
