<svg width="17" height="18" viewBox="0 0 17 18" fill="none" xmlns="http://www.w3.org/2000/svg">
<path fill-rule="evenodd" clip-rule="evenodd" d="M9.50023 1.875C9.50023 1.32272 9.05251 0.875 8.50023 0.875C7.94794 0.875 7.50023 1.32272 7.50023 1.875V8.12526H1.24974C0.697456 8.12526 0.249741 8.57297 0.249741 9.12526C0.249741 9.67754 0.697456 10.1253 1.24974 10.1253H7.50023V16.3755C7.50023 16.9278 7.94794 17.3755 8.50023 17.3755C9.05251 17.3755 9.50023 16.9278 9.50023 16.3755V10.1253H15.7503C16.3025 10.1253 16.7503 9.67754 16.7503 9.12526C16.7503 8.57297 16.3025 8.12526 15.7503 8.12526H9.50023V1.875Z" fill="#FAFCFE"/>
</svg>
