<svg width="32" height="33" viewBox="0 0 32 33" fill="none" xmlns="http://www.w3.org/2000/svg">
<circle cx="16" cy="16.0215" r="16" fill="#0078D4"/>
<path d="M6 9.97656C6 9.97656 7.5 7.97656 11 7.97656C14.5 7.97656 16 9.97656 16 9.97656V23.9766C16 23.9766 14.5 22.9766 11 22.9766C7.5 22.9766 6 23.9766 6 23.9766V9.97656ZM16 9.97656C16 9.97656 17.5 7.97656 21 7.97656C24.5 7.97656 26 9.97656 26 9.97656V23.9766C26 23.9766 24.5 22.9766 21 22.9766C17.5 22.9766 16 23.9766 16 23.9766V9.97656Z" stroke="white" stroke-width="2" stroke-linecap="round" stroke-linejoin="round"/>
</svg>
