<svg width="172" height="154" viewBox="0 0 172 154" fill="none" xmlns="http://www.w3.org/2000/svg">
<path opacity="0.18" d="M171.853 92.1561C171.853 126.304 133.923 153.987 87.1297 153.987C57.7627 153.987 31.8894 143.087 16.6871 126.528C-9.2506 102.186 -4.75044 41.0864 28.7871 41.5447C32.381 41.6161 35.9755 41.432 39.5432 40.9938C48.0158 39.8996 53.1519 37.338 56.2773 34.5576C57.0496 33.8754 58.0047 32.462 59.1092 30.544C86.123 -16.9909 157.879 -5.29512 168.627 48.331C172.123 65.755 172.023 82.368 171.84 91.0954C171.853 91.443 171.853 91.7983 171.853 92.1561Z" fill="#0078D4"/>
<path opacity="0.05" d="M70.5556 137.452C86.291 137.452 99.0472 136.23 99.0472 134.723C99.0472 133.216 86.291 131.994 70.5556 131.994C54.8201 131.994 42.064 133.216 42.064 134.723C42.064 136.23 54.8201 137.452 70.5556 137.452Z" fill="#000405"/>
<path d="M29.812 18.0566H143.611V101.305H29.812V18.0566Z" fill="#0078D4"/>
<path d="M29.812 18.3295L143.611 18.0566V101.305L29.812 101.577V18.3295Z" fill="url(#paint0_linear_375_3538)"/>
<path d="M32.752 20.5078H139.698V98.3674H32.752V20.5078Z" fill="#0078D4"/>
<path d="M34.2114 21.3691H138.446V97.0301H34.2114V21.3691Z" fill="url(#paint1_linear_375_3538)"/>
<path d="M85.9301 78.1736L82.9798 76.9662L82.4649 76.7577L80.0397 79.9963L75.2718 69.1836L71.9019 77.6793L78.0677 86.3373C78.2694 86.6201 78.5416 86.8452 78.8572 86.9903C79.1729 87.1353 79.521 87.1952 79.867 87.1639C80.213 87.1327 80.5448 87.0114 80.8294 86.8122C81.1139 86.613 81.3414 86.3427 81.4892 86.0283L85.9301 78.1736Z" fill="#0078D4"/>
<path d="M85.9301 78.1736L82.9798 76.9662L82.4649 76.7577L80.0397 79.9963L75.2718 69.1836L71.9019 77.6793L78.0677 86.3373C78.2694 86.6201 78.5416 86.8452 78.8572 86.9903C79.1729 87.1353 79.521 87.1952 79.867 87.1639C80.213 87.1327 80.5448 87.0114 80.8294 86.8122C81.1139 86.613 81.3414 86.3427 81.4892 86.0283L85.9301 78.1736Z" fill="url(#paint2_linear_375_3538)"/>
<path d="M64.2998 67.959C64.2998 67.959 57.2432 70.155 55.6445 71.9314C54.0457 73.7078 53.5128 91.4716 53.5128 91.4716L58.9063 95.0218L59.8486 101.303L77.4347 99.7588L75.2722 69.1844L68.0637 67.9641L64.2998 67.959Z" fill="#0078D4"/>
<path d="M64.2998 67.959C64.2998 67.959 57.2432 70.155 55.6445 71.9314C54.0457 73.7078 53.5128 91.4716 53.5128 91.4716L58.9063 95.0218L59.8486 101.303L77.4347 99.7588L75.2722 69.1844L68.0637 67.9641L64.2998 67.959Z" fill="url(#paint3_linear_375_3538)"/>
<path d="M42.4107 51.2402L42.7583 51.9559L43.5461 52.0718L42.99 52.6279L43.1058 53.3899L42.4107 53.0218L41.7156 53.3899L41.8546 52.6279L41.2754 52.0718L42.0632 51.9559L42.4107 51.2402Z" fill="url(#paint4_linear_375_3538)"/>
<path d="M46.6512 44.2312L46.35 44.9726L46.8134 45.642L46.0025 45.5956L45.5159 46.2212L45.3305 45.4566L44.5659 45.1786L45.2379 44.7641L45.261 43.9531L45.8866 44.4629L46.6512 44.2312Z" fill="url(#paint5_linear_375_3538)"/>
<path d="M129.251 33.6172L129.598 34.3123L130.386 34.4281L129.807 34.9817L129.946 35.7694L129.251 35.3987L128.532 35.7694L128.671 34.9817L128.115 34.4281L128.88 34.3123L129.251 33.6172Z" fill="url(#paint6_linear_375_3538)"/>
<path d="M133.465 26.6101L133.19 27.3489L133.628 27.9977L132.842 27.9514L132.356 28.5976L132.147 27.8123L131.406 27.5575L132.078 27.1172L132.101 26.332L132.703 26.8418L133.465 26.6101Z" fill="url(#paint7_linear_375_3538)"/>
<path d="M84.2669 41.3651L83.8962 41.8285L84.0815 42.3846L83.5254 42.1993L83.062 42.5468L83.0852 41.9676L82.5986 41.62L83.1547 41.4578L83.3401 40.9043L83.6645 41.3883L84.2669 41.3651Z" fill="url(#paint8_linear_375_3538)"/>
<path d="M90.2679 41.8487L89.6886 41.9182L89.3874 42.4279L89.1557 41.8718L88.5996 41.7792L89.0167 41.3853L88.9472 40.8086L89.4569 41.1098L89.9898 40.8549L89.874 41.4316L90.2679 41.8487Z" fill="url(#paint9_linear_375_3538)"/>
<path d="M122.024 60.6509L121.677 61.1117L121.862 61.6678L121.306 61.4825L120.843 61.83V61.2508L120.379 60.9032L120.935 60.7436L121.121 60.1875L121.445 60.6741L122.024 60.6509Z" fill="url(#paint10_linear_375_3538)"/>
<path d="M128.022 61.1377L127.443 61.2073L127.165 61.717L126.933 61.1841L126.354 61.0682L126.794 60.6769L126.725 60.0977L127.234 60.3989L127.767 60.144L127.628 60.7233L128.022 61.1377Z" fill="url(#paint11_linear_375_3538)"/>
<path d="M107.316 53.3199L106.968 53.7833L107.151 54.3369L106.598 54.1309L106.111 54.4759L106.134 53.8992L105.671 53.5516L106.227 53.3894L106.389 52.8359L106.737 53.3199H107.316Z" fill="url(#paint12_linear_375_3538)"/>
<path d="M113.314 53.8074L112.735 53.8537L112.457 54.3609L112.225 53.8306L111.646 53.7147L112.086 53.3208L112.017 52.7441L112.503 53.0428L113.036 52.8137L112.92 53.3672L113.314 53.8074Z" fill="url(#paint13_linear_375_3538)"/>
<path d="M94.6445 53.1347L94.2969 53.5981L94.4823 54.1541L93.9262 53.9688L93.4628 54.3163V53.7371L92.9994 53.3895L93.5555 53.2273L93.7408 52.6738L94.0652 53.1347H94.6445Z" fill="url(#paint14_linear_375_3538)"/>
<path d="M79.4734 63.585L78.8942 63.6545L78.593 64.1643L78.3613 63.6082L77.8052 63.5155L78.2454 63.1242L78.1759 62.5449L78.6625 62.8461L79.1954 62.5913L79.0795 63.1705L79.4734 63.585Z" fill="url(#paint15_linear_375_3538)"/>
<path d="M47.3931 67.2669L47.7149 67.2875L47.9234 67.0352L47.9929 67.357L48.3173 67.4728L48.0393 67.635L48.0161 67.9594L47.7612 67.7509L47.46 67.8435L47.5759 67.5423L47.3931 67.2669Z" fill="url(#paint16_linear_375_3538)"/>
<path d="M45.7941 64.3047L46.0026 64.5596L46.327 64.5364L46.1416 64.8119L46.2575 65.1131L45.9563 65.0204L45.7014 65.2289L45.6782 64.9045L45.4233 64.7192L45.7246 64.6059L45.7941 64.3047Z" fill="url(#paint17_linear_375_3538)"/>
<path d="M49.3594 56.4895L49.6838 56.5127L49.8923 56.2578L49.9618 56.5822L50.263 56.698L49.985 56.8602V57.182L49.7301 56.9735L49.4057 57.0662L49.5447 56.7676L49.3594 56.4895Z" fill="url(#paint18_linear_375_3538)"/>
<path d="M39.0518 58.4557L39.3761 58.4789L39.5847 58.2266L39.6542 58.5252L39.9786 58.6411L39.7005 58.8264L39.6774 59.1508L39.4225 58.9423L39.1213 59.0118L39.2371 58.7337L39.0518 58.4557Z" fill="url(#paint19_linear_375_3538)"/>
<path d="M47.2743 49.5977L47.4828 49.8757L47.8072 49.8525L47.6218 50.1074L47.7377 50.406L47.4159 50.3365L47.1842 50.5451L47.161 50.2001L46.8804 50.0379L47.1842 49.922L47.2743 49.5977Z" fill="#B5EAFF"/>
<path d="M71.6312 65.2744C71.4742 65.4106 71.3013 65.5273 71.1163 65.622C69.7724 66.3351 67.9368 66.1523 68.1067 67.1667C68.0459 67.5501 68.0415 67.9405 68.0939 68.3252C68.1067 68.5543 68.1376 68.7809 68.1634 69.0126C68.1909 69.2444 68.1577 69.4794 68.0672 69.6946C67.9766 69.9098 67.8318 70.0978 67.6468 70.2403C67.4618 70.3827 67.243 70.4747 67.0118 70.5072C66.7806 70.5398 66.5449 70.5118 66.3278 70.4259L64.4484 69.6896L63.6606 60.0431C63.6606 60.0431 66.3922 53.7537 71.3506 57.6154C71.3428 57.6231 72.9493 64.1391 71.6312 65.2744Z" fill="url(#paint20_linear_375_3538)"/>
<path d="M74.1421 133.747L76.2069 135.525H70.7439L68.4912 108.563L67.3121 135.525H61.6843L63.3732 134.372L60.8013 101.213L64.8123 100.835L76.2069 99.7559L74.1421 133.747Z" fill="#0078D4"/>
<path d="M74.1421 133.747L76.2069 135.525H70.7439L68.4912 108.563L67.3121 135.525H61.6843L63.3732 134.372L60.8013 101.213L64.8123 100.835L76.2069 99.7559L74.1421 133.747Z" fill="url(#paint21_linear_375_3538)"/>
<path d="M71.343 57.6257C71.6153 57.3664 71.7997 57.0284 71.8703 56.6591C71.9409 56.2898 71.8943 55.9076 71.7369 55.5661C71.2734 54.1579 69.4198 54.6651 69.4198 54.6651H66.4541C65.2568 55.2661 64.3427 56.3123 63.9079 57.5794C63.6221 58.3553 63.5501 59.1938 63.6994 60.0071L63.9079 63.9151L64.9737 62.3705C64.9737 62.3705 63.9439 60.7743 64.4176 60.3109C64.8914 59.8475 65.2518 60.5889 65.2518 60.5889C65.2518 60.5889 65.2518 58.4367 65.7358 58.2719C66.2198 58.1071 71.343 57.6257 71.343 57.6257Z" fill="#1D3945"/>
<path opacity="0.61" d="M68.4928 108.568L69.6977 107.389L70.8793 120.706L70.5781 135.53L68.4928 108.568Z" fill="url(#paint22_linear_375_3538)"/>
<path d="M84.7534 72.5566L85.8888 48.7402H86.329L85.1937 74.3613C85.1937 74.3613 84.8693 74.8942 84.7534 74.3613C84.6994 73.761 84.6994 73.157 84.7534 72.5566Z" fill="#1D3945"/>
<path d="M83.7698 74.8107L82.8971 76.5767C82.8789 76.6127 82.8681 76.652 82.8651 76.6922C82.8621 76.7324 82.8671 76.7728 82.8798 76.811C82.8925 76.8493 82.9126 76.8847 82.939 76.9152C82.9653 76.9456 82.9975 76.9706 83.0335 76.9887H83.0567L84.9566 77.761C85.0301 77.7921 85.1129 77.7931 85.1871 77.7637C85.2612 77.7343 85.3209 77.677 85.3531 77.604L86.2001 75.7606C86.2156 75.7239 86.2394 75.6913 86.2696 75.6654L87.6264 74.3782C87.6608 74.3454 87.6874 74.3051 87.7039 74.2605C87.7204 74.2159 87.7265 74.168 87.7216 74.1207L87.2222 70.3131C87.2156 70.2656 87.1983 70.2203 87.1715 70.1806C87.1447 70.1409 87.1092 70.1078 87.0677 70.0839L85.9066 69.4429C85.842 69.4063 85.7663 69.3943 85.6935 69.4089C85.6207 69.4236 85.5556 69.464 85.5102 69.5227L85.0699 70.0917C85.0196 70.156 84.9459 70.1979 84.8648 70.208C84.7838 70.2181 84.702 70.1957 84.6374 70.1457C84.5914 70.112 84.5565 70.0654 84.537 70.0119L84.3311 69.4609C84.3126 69.4118 84.2818 69.3683 84.2417 69.3345C84.2016 69.3006 84.1534 69.2777 84.1019 69.2678C84.0224 69.2518 83.9398 69.2676 83.8719 69.3119C83.804 69.3562 83.7562 69.4255 83.7389 69.5047C83.7338 69.5397 83.7338 69.5752 83.7389 69.6102L83.9449 71.1678V71.2219L83.8084 74.6871C83.8035 74.7304 83.7904 74.7723 83.7698 74.8107Z" fill="url(#paint23_linear_375_3538)"/>
<path opacity="0.61" d="M64.2969 67.959L62.9196 68.4172L63.8155 74.892L65.7695 75.5434L64.6136 76.3131L70.3289 86.7938L64.2969 67.959Z" fill="url(#paint24_linear_375_3538)"/>
<path opacity="0.61" d="M68.0549 67.959C68.0549 67.959 68.7526 73.8803 69.4091 79.0833C69.8622 82.6695 70.3591 85.8258 70.3282 86.7938L72.1303 77.088L70.6062 75.2627L71.4069 73.9292L69.0899 68.1341L68.0549 67.959Z" fill="url(#paint25_linear_375_3538)"/>
<path d="M64.814 69.5689C64.814 69.5689 66.5826 71.1136 68.2483 69.332L70.3285 86.7946L64.814 69.5689Z" fill="#0078D4"/>
<path d="M66.6957 70.1777L66.2349 71.5551L67.3445 72.1318L67.7229 70.8883L66.6957 70.1777Z" fill="#1D3945"/>
<path d="M68.2583 80.3311L67.092 71.9384L67.4473 71.7891L69.2881 78.063L70.3281 86.793L68.2583 80.3311Z" fill="#1D3945"/>
<path d="M64.312 96.3053C64.312 96.3053 66.4746 97.9916 67.2546 98.128C68.0347 98.2645 70.743 97.8706 70.743 97.8706L71.1472 97.4535L71.5463 96.8048C71.2175 96.5608 70.8736 96.3381 70.5165 96.138C70.3157 96.071 70.259 95.7827 70.259 95.7827L68.3256 95.1159C68.3256 95.1159 69.3039 94.6499 69.3554 94.4955C69.4069 94.341 69.0233 94.2715 69.0233 94.2715C69.0233 94.2715 66.0086 94.5933 65.7511 94.3667L64.312 96.3053Z" fill="url(#paint26_linear_375_3538)"/>
<path d="M64.8123 100.834L64.6424 133.864L61.6843 135.525L63.3732 134.372L60.8013 101.212L64.8123 100.834Z" fill="url(#paint27_linear_375_3538)"/>
<path d="M68.1018 67.1735C68.0452 67.5576 68.0452 67.9479 68.1018 68.332C68.0195 68.3526 67.9577 68.3655 67.9191 68.3783C67.7105 68.435 67.1467 68.4092 66.6318 67.727C66.1169 67.0448 66.014 65.186 67.3758 65.773C68.3078 66.1746 70.0868 65.8605 71.1165 65.6211C69.7675 66.3342 67.9294 66.1514 68.1018 67.1735Z" fill="url(#paint28_linear_375_3538)"/>
<defs>
<linearGradient id="paint0_linear_375_3538" x1="81.3451" y1="-27.3981" x2="91.921" y2="144.455" gradientUnits="userSpaceOnUse">
<stop offset="0.02" stop-color="white" stop-opacity="0"/>
<stop offset="1" stop-color="white"/>
</linearGradient>
<linearGradient id="paint1_linear_375_3538" x1="84.1149" y1="5.0702" x2="91.362" y2="182.209" gradientUnits="userSpaceOnUse">
<stop stop-opacity="0"/>
<stop offset="0.91" stop-opacity="0.8"/>
<stop offset="1"/>
</linearGradient>
<linearGradient id="paint2_linear_375_3538" x1="81.8779" y1="77.2314" x2="70.715" y2="79.6951" gradientUnits="userSpaceOnUse">
<stop stop-opacity="0"/>
<stop offset="0.91" stop-opacity="0.8"/>
<stop offset="1"/>
</linearGradient>
<linearGradient id="paint3_linear_375_3538" x1="80.6091" y1="81.4955" x2="31.0274" y2="93.5286" gradientUnits="userSpaceOnUse">
<stop stop-opacity="0"/>
<stop offset="0.91" stop-opacity="0.8"/>
<stop offset="1"/>
</linearGradient>
<linearGradient id="paint4_linear_375_3538" x1="43.4251" y1="-31.6626" x2="40.3821" y2="86.6365" gradientUnits="userSpaceOnUse">
<stop offset="0.02" stop-color="white" stop-opacity="0"/>
<stop offset="1" stop-color="white"/>
</linearGradient>
<linearGradient id="paint5_linear_375_3538" x1="46.5302" y1="-31.5842" x2="43.4872" y2="86.715" gradientUnits="userSpaceOnUse">
<stop offset="0.02" stop-color="white" stop-opacity="0"/>
<stop offset="1" stop-color="white"/>
</linearGradient>
<linearGradient id="paint6_linear_375_3538" x1="129.755" y1="-29.4418" x2="126.71" y2="88.8575" gradientUnits="userSpaceOnUse">
<stop offset="0.02" stop-color="white" stop-opacity="0"/>
<stop offset="1" stop-color="white"/>
</linearGradient>
<linearGradient id="paint7_linear_375_3538" x1="132.847" y1="-29.364" x2="129.802" y2="88.9353" gradientUnits="userSpaceOnUse">
<stop offset="0.02" stop-color="white" stop-opacity="0"/>
<stop offset="1" stop-color="white"/>
</linearGradient>
<linearGradient id="paint8_linear_375_3538" x1="84.1485" y1="-30.6144" x2="81.1029" y2="87.6849" gradientUnits="userSpaceOnUse">
<stop offset="0.02" stop-color="white" stop-opacity="0"/>
<stop offset="1" stop-color="white"/>
</linearGradient>
<linearGradient id="paint9_linear_375_3538" x1="90.1546" y1="-30.463" x2="87.109" y2="87.8364" gradientUnits="userSpaceOnUse">
<stop offset="0.02" stop-color="white" stop-opacity="0"/>
<stop offset="1" stop-color="white"/>
</linearGradient>
<linearGradient id="paint10_linear_375_3538" x1="122.387" y1="-29.6305" x2="119.344" y2="88.6663" gradientUnits="userSpaceOnUse">
<stop offset="0.02" stop-color="white" stop-opacity="0"/>
<stop offset="1" stop-color="white"/>
</linearGradient>
<linearGradient id="paint11_linear_375_3538" x1="128.38" y1="-29.4733" x2="125.335" y2="88.8236" gradientUnits="userSpaceOnUse">
<stop offset="0.02" stop-color="white" stop-opacity="0"/>
<stop offset="1" stop-color="white"/>
</linearGradient>
<linearGradient id="paint12_linear_375_3538" x1="107.501" y1="-30.0129" x2="104.456" y2="88.2837" gradientUnits="userSpaceOnUse">
<stop offset="0.02" stop-color="white" stop-opacity="0"/>
<stop offset="1" stop-color="white"/>
</linearGradient>
<linearGradient id="paint13_linear_375_3538" x1="113.492" y1="-29.8576" x2="110.446" y2="88.4391" gradientUnits="userSpaceOnUse">
<stop offset="0.02" stop-color="white" stop-opacity="0"/>
<stop offset="1" stop-color="white"/>
</linearGradient>
<linearGradient id="paint14_linear_375_3538" x1="94.8324" y1="-30.3399" x2="91.7894" y2="87.9595" gradientUnits="userSpaceOnUse">
<stop offset="0.02" stop-color="white" stop-opacity="0"/>
<stop offset="1" stop-color="white"/>
</linearGradient>
<linearGradient id="paint15_linear_375_3538" x1="79.9265" y1="-30.7253" x2="76.881" y2="87.5738" gradientUnits="userSpaceOnUse">
<stop offset="0.02" stop-color="white" stop-opacity="0"/>
<stop offset="1" stop-color="white"/>
</linearGradient>
<linearGradient id="paint16_linear_375_3538" x1="49.2596" y1="-31.5101" x2="46.2165" y2="86.7864" gradientUnits="userSpaceOnUse">
<stop offset="0.02" stop-color="white" stop-opacity="0"/>
<stop offset="1" stop-color="white"/>
</linearGradient>
<linearGradient id="paint17_linear_375_3538" x1="47.21" y1="-31.5657" x2="44.167" y2="86.7334" gradientUnits="userSpaceOnUse">
<stop offset="0.02" stop-color="white" stop-opacity="0"/>
<stop offset="1" stop-color="white"/>
</linearGradient>
<linearGradient id="paint18_linear_375_3538" x1="50.9375" y1="-31.4699" x2="47.8919" y2="86.8297" gradientUnits="userSpaceOnUse">
<stop offset="0.02" stop-color="white" stop-opacity="0"/>
<stop offset="1" stop-color="white"/>
</linearGradient>
<linearGradient id="paint19_linear_375_3538" x1="40.6994" y1="-31.7307" x2="37.6538" y2="86.5689" gradientUnits="userSpaceOnUse">
<stop offset="0.02" stop-color="white" stop-opacity="0"/>
<stop offset="1" stop-color="white"/>
</linearGradient>
<linearGradient id="paint20_linear_375_3538" x1="63.6606" y1="63.4414" x2="72.1512" y2="63.4414" gradientUnits="userSpaceOnUse">
<stop stop-color="#ECC4D7"/>
<stop offset="0.42" stop-color="#EFD4D1"/>
<stop offset="1" stop-color="#F2EAC9"/>
</linearGradient>
<linearGradient id="paint21_linear_375_3538" x1="69.0756" y1="128.114" x2="68.2054" y2="86.07" gradientUnits="userSpaceOnUse">
<stop stop-opacity="0"/>
<stop offset="0.91" stop-opacity="0.8"/>
<stop offset="1"/>
</linearGradient>
<linearGradient id="paint22_linear_375_3538" x1="77.9566" y1="113.573" x2="57.6904" y2="133.97" gradientUnits="userSpaceOnUse">
<stop offset="0.36" stop-color="#00272E"/>
<stop offset="0.75" stop-color="#3F80A1" stop-opacity="0.25"/>
<stop offset="1" stop-color="#69B9EB" stop-opacity="0"/>
</linearGradient>
<linearGradient id="paint23_linear_375_3538" x1="82.8636" y1="73.5234" x2="87.7242" y2="73.5234" gradientUnits="userSpaceOnUse">
<stop stop-color="#ECC4D7"/>
<stop offset="0.42" stop-color="#EFD4D1"/>
<stop offset="1" stop-color="#F2EAC9"/>
</linearGradient>
<linearGradient id="paint24_linear_375_3538" x1="58.8287" y1="76.5062" x2="86.8466" y2="79.3793" gradientUnits="userSpaceOnUse">
<stop offset="0.36" stop-color="#00272E"/>
<stop offset="0.75" stop-color="#3F80A1" stop-opacity="0.25"/>
<stop offset="0.77" stop-color="#4284A6" stop-opacity="0.06"/>
<stop offset="1" stop-color="#69B9EB" stop-opacity="0"/>
</linearGradient>
<linearGradient id="paint25_linear_375_3538" x1="58.8487" y1="76.3157" x2="86.864" y2="79.1888" gradientUnits="userSpaceOnUse">
<stop offset="0.36" stop-color="#00272E"/>
<stop offset="0.75" stop-color="#3F80A1" stop-opacity="0.25"/>
<stop offset="1" stop-color="#69B9EB" stop-opacity="0"/>
</linearGradient>
<linearGradient id="paint26_linear_375_3538" x1="64.312" y1="96.2152" x2="71.5463" y2="96.2152" gradientUnits="userSpaceOnUse">
<stop stop-color="#ECC4D7"/>
<stop offset="0.42" stop-color="#EFD4D1"/>
<stop offset="1" stop-color="#F2EAC9"/>
</linearGradient>
<linearGradient id="paint27_linear_375_3538" x1="65.3375" y1="119.44" x2="44.8962" y2="107.116" gradientUnits="userSpaceOnUse">
<stop stop-opacity="0"/>
<stop offset="0.91" stop-opacity="0.8"/>
<stop offset="1"/>
</linearGradient>
<linearGradient id="paint28_linear_375_3538" x1="69.2964" y1="67.225" x2="76.1084" y2="76.1146" gradientUnits="userSpaceOnUse">
<stop stop-color="#ECC4D7"/>
<stop offset="0.42" stop-color="#EFD4D1"/>
<stop offset="1" stop-color="#F2EAC9"/>
</linearGradient>
</defs>
</svg>
