<svg width="4" height="14" viewBox="0 0 4 14" fill="none" xmlns="http://www.w3.org/2000/svg">
<path d="M2.00016 3.66634C2.91683 3.66634 3.66683 2.91634 3.66683 1.99967C3.66683 1.08301 2.91683 0.333008 2.00016 0.333008C1.0835 0.333008 0.333496 1.08301 0.333496 1.99967C0.333496 2.91634 1.0835 3.66634 2.00016 3.66634ZM2.00016 5.33301C1.0835 5.33301 0.333496 6.08301 0.333496 6.99967C0.333496 7.91634 1.0835 8.66634 2.00016 8.66634C2.91683 8.66634 3.66683 7.91634 3.66683 6.99967C3.66683 6.08301 2.91683 5.33301 2.00016 5.33301ZM2.00016 10.333C1.0835 10.333 0.333496 11.083 0.333496 11.9997C0.333496 12.9163 1.0835 13.6663 2.00016 13.6663C2.91683 13.6663 3.66683 12.9163 3.66683 11.9997C3.66683 11.083 2.91683 10.333 2.00016 10.333Z" fill="#767676"/>
</svg>
