<svg width="20" height="20" viewBox="0 0 20 20" fill="none" xmlns="http://www.w3.org/2000/svg">
<path d="M12.2916 12.0163L14.9499 13.5747L14.2166 14.7663L10.9166 12.7497V8.16634H12.2916V12.0163ZM19.1666 11.833C19.1666 15.8755 15.8758 19.1663 11.8333 19.1663C9.98159 19.1663 8.29492 18.4697 7.00242 17.333H2.66659C1.61242 17.333 0.833252 16.5538 0.833252 15.4997V7.24967C0.833252 6.22301 1.64909 5.45301 2.66659 5.41634V4.95801C2.66659 2.67551 4.50909 0.833008 6.79159 0.833008C8.93659 0.833008 10.6783 2.47384 10.8799 4.57301C11.1916 4.52717 11.5124 4.49967 11.8333 4.49967C15.8758 4.49967 19.1666 7.79051 19.1666 11.833ZM4.49992 5.41634H9.08325V4.73801C8.97325 3.57384 7.98325 2.66634 6.79159 2.66634C5.52659 2.66634 4.49992 3.69301 4.49992 4.95801V5.41634ZM17.3333 11.833C17.3333 8.79884 14.8674 6.33301 11.8333 6.33301C8.79909 6.33301 6.33325 8.79884 6.33325 11.833C6.33325 14.8672 8.79909 17.333 11.8333 17.333C14.8674 17.333 17.3333 14.8672 17.3333 11.833Z" fill="black" fill-opacity="0.54"/>
</svg>
