<svg width="38" height="38" viewBox="0 0 38 38" fill="none" xmlns="http://www.w3.org/2000/svg">
<ellipse cx="18.7498" cy="18.8086" rx="18.75" ry="18.75" fill="white"/>
<path fill-rule="evenodd" clip-rule="evenodd" d="M28.9998 12.9564C28.2623 13.2772 27.474 13.4939 26.6433 13.5939C27.491 13.0939 28.1436 12.3022 28.4488 11.3605C27.6562 11.823 26.7789 12.1605 25.8423 12.3397C25.0921 11.5522 24.0241 11.0605 22.8459 11.0605C20.5785 11.0605 18.7433 12.8689 18.7433 15.098C18.7433 15.4147 18.7772 15.723 18.8493 16.0189C15.4376 15.8522 12.4115 14.2439 10.3899 11.798C10.0381 12.3939 9.83468 13.0897 9.83468 13.8272C9.83468 15.2272 10.5636 16.4647 11.6656 17.1897C10.9875 17.173 10.3517 16.9897 9.80077 16.6855C9.80077 16.7022 9.80077 16.7189 9.80077 16.7355C9.80077 18.6939 11.2163 20.323 13.0938 20.6939C12.7505 20.7855 12.3861 20.8355 12.0131 20.8355C11.7503 20.8355 11.4918 20.8105 11.2418 20.7605C11.7631 22.3647 13.2803 23.5314 15.0773 23.5647C13.6745 24.648 11.9029 25.2939 9.97878 25.2939C9.6482 25.2939 9.32186 25.273 8.99976 25.2355C10.8095 26.3939 12.9667 27.0605 15.2807 27.0605C22.8374 27.0605 26.9654 20.9064 26.9654 15.5689C26.9654 15.3939 26.9612 15.2189 26.9527 15.048C27.7537 14.4772 28.4488 13.7689 28.9998 12.9564Z" fill="#0078D4"/>
</svg>
