<svg width="16" height="15" viewBox="0 0 16 15" fill="none" xmlns="http://www.w3.org/2000/svg">
<path d="M2.78988 5.96824C2.60473 7.54037 2.49441 9.12224 2.45937 10.7073C4.3972 11.6051 6.25263 12.7078 8 14C9.74758 12.7078 11.6032 11.6051 13.5413 10.7073C13.5062 9.12224 13.3959 7.54038 13.2108 5.96824M2.78921 5.96824C2.19793 5.74775 1.60131 5.54533 1 5.36121C3.19673 3.6528 5.54168 2.19182 8 1C10.4583 2.19157 12.8033 3.6523 15 5.36046C14.3988 5.54512 13.8021 5.74779 13.2108 5.96824M2.78921 5.96824C4.58559 6.63808 6.32855 7.47274 8 8.46356C9.67124 7.47279 11.414 6.63813 13.2101 5.96824M4.46601 9.59175V6.8478C5.60815 6.06033 6.78787 5.34199 8 4.69594M3.2833 13.3198C3.65889 12.9042 3.95673 12.4104 4.1597 11.8667C4.36267 11.323 4.46677 10.7402 4.46601 10.1517V9.03176M4.46601 9.59175C4.5999 9.59175 4.72831 9.53275 4.82299 9.42773C4.91767 9.32272 4.97086 9.18028 4.97086 9.03176C4.97086 8.88324 4.91767 8.74081 4.82299 8.63579C4.72831 8.53077 4.5999 8.47177 4.46601 8.47177C4.33211 8.47177 4.2037 8.53077 4.10902 8.63579C4.01434 8.74081 3.96115 8.88324 3.96115 9.03176C3.96115 9.18028 4.01434 9.32272 4.10902 9.42773C4.2037 9.53275 4.33211 9.59175 4.46601 9.59175Z" stroke="#212121" stroke-width="1.5" stroke-linecap="round" stroke-linejoin="round"/>
</svg>
