<svg width="36" height="11" viewBox="0 0 36 11" fill="none" xmlns="http://www.w3.org/2000/svg">
<path fill-rule="evenodd" clip-rule="evenodd" d="M26.1663 0.447975C25.5891 0.232048 24.6845 0 23.5543 0C20.6746 0 18.6453 1.44574 18.6283 3.51635C18.6125 5.04863 20.0765 5.90174 21.1824 6.4125C22.3164 6.93386 22.6983 7.2673 22.6923 7.73351C22.6851 8.4479 21.7869 8.77412 20.9491 8.77412C19.7823 8.77412 19.1629 8.61334 18.2056 8.21543L17.8297 8.04574L17.4206 10.4315C18.1021 10.7285 19.36 10.9868 20.6673 11C23.7314 11 25.7206 9.57123 25.7428 7.35935C25.7534 6.14693 24.9774 5.22426 23.2963 4.46448C22.2768 3.97111 21.6532 3.6415 21.66 3.14261C21.66 2.70058 22.1874 2.22588 23.3283 2.22588C24.2827 2.21103 24.9723 2.41847 25.5099 2.63482L25.7717 2.757L26.1663 0.447975ZM12.6824 10.8418L14.5048 0.185831H17.419L15.5958 10.8418H12.6824ZM31.3888 0.196254H33.6411L35.9998 10.8446H33.295C33.295 10.8446 33.0281 9.62113 32.9408 9.24824C32.7154 9.24824 31.7739 9.24705 30.8891 9.24593L30.8768 9.24591C30.0971 9.24493 29.3642 9.244 29.208 9.244C29.0948 9.53204 28.5946 10.8446 28.5946 10.8446H25.5335L29.8619 1.0799C30.1692 0.385456 30.6907 0.196254 31.3888 0.196254ZM30.0462 7.06439C30.2875 6.45055 31.2079 4.0851 31.2079 4.0851C31.1994 4.09897 31.256 3.95228 31.3334 3.75198L31.3335 3.75186C31.4146 3.54178 31.5186 3.27279 31.594 3.06825L31.7906 3.98711C31.7906 3.98711 32.3491 6.5303 32.4662 7.06439H30.0462ZM7.38465 7.46003L10.2376 0.193585H13.3247L8.73663 10.8288L5.65254 10.833L3.04395 1.51291C4.89397 2.43601 6.54946 4.28051 7.08029 5.98333L7.38465 7.46003Z" fill="#1A1F71"/>
<path fill-rule="evenodd" clip-rule="evenodd" d="M4.73745 0.1875H0.0370346L0 0.408942C3.65663 1.29174 6.07623 3.42302 7.08042 5.98445L6.05835 1.08684C5.88211 0.411912 5.37002 0.210832 4.73745 0.1875Z" fill="#F9A51A"/>
</svg>
