<svg width="21" height="20" viewBox="0 0 21 20" fill="none" xmlns="http://www.w3.org/2000/svg">
<path d="M9.7942 1.18848H8.01656C3.57244 1.18848 1.7948 2.96615 1.7948 7.41032V12.7433C1.7948 17.1875 3.57244 18.9652 8.01656 18.9652H13.3495C17.7936 18.9652 19.5712 17.1875 19.5712 12.7433V10.9657" stroke="#0078D4" stroke-width="1.8" stroke-linecap="round" stroke-linejoin="round"/>
<path d="M14.2742 2.09476L7.27024 9.09877C7.00359 9.36542 6.73695 9.88984 6.68362 10.272L6.30143 12.9474C6.15921 13.9163 6.84361 14.5918 7.81242 14.4584L10.4878 14.0762C10.8611 14.0229 11.3855 13.7563 11.661 13.4896L18.6649 6.4856C19.8737 5.27679 20.4426 3.87243 18.6649 2.09476C16.8873 0.317087 15.483 0.885941 14.2742 2.09476Z" stroke="#0078D4" stroke-width="1.8" stroke-miterlimit="10" stroke-linecap="round" stroke-linejoin="round"/>
<path d="M13.2694 3.09863C13.8649 5.22295 15.527 6.88507 17.6602 7.48948" stroke="#0078D4" stroke-width="1.8" stroke-miterlimit="10" stroke-linecap="round" stroke-linejoin="round"/>
</svg>
