<svg width="31" height="30" viewBox="0 0 31 30" fill="none" xmlns="http://www.w3.org/2000/svg">
<path d="M21.7501 20.7746C22.5233 20.7746 23.1501 20.1478 23.1501 19.3746C23.1501 18.6014 22.5233 17.9746 21.7501 17.9746C20.9769 17.9746 20.3501 18.6014 20.3501 19.3746C20.3501 20.1478 20.9769 20.7746 21.7501 20.7746Z" fill="white"/>
<path fill-rule="evenodd" clip-rule="evenodd" d="M21.75 21.875C20.8375 21.875 19.0125 22.325 18.95 23.225C19.575 24.1125 20.6 24.6875 21.75 24.6875C22.9 24.6875 23.925 24.1125 24.55 23.225C24.4875 22.325 22.6625 21.875 21.75 21.875Z" fill="white"/>
<path fill-rule="evenodd" clip-rule="evenodd" d="M23 13.8625V7.8375L13.625 3.75L4.25 7.8375V13.975C4.25 19.65 8.25 24.9625 13.625 26.25C14.3125 26.0875 14.975 25.85 15.625 25.5625C16.3139 26.5476 17.2305 27.3519 18.2969 27.9068C19.3633 28.4618 20.5479 28.751 21.75 28.75C25.8875 28.75 29.25 25.3875 29.25 21.25C29.25 17.5375 26.55 14.4625 23 13.8625ZM14.25 21.25C14.25 21.95 14.35 22.6375 14.5375 23.275C14.2375 23.4125 13.9375 23.55 13.625 23.65C9.6625 22.4 6.75 18.35 6.75 13.975V9.475L13.625 6.475L20.5 9.475V13.8625C16.95 14.4625 14.25 17.5375 14.25 21.25ZM21.75 26.25C18.9875 26.25 16.75 24.0125 16.75 21.25C16.75 18.4875 18.9875 16.25 21.75 16.25C24.5125 16.25 26.75 18.4875 26.75 21.25C26.75 24.0125 24.5125 26.25 21.75 26.25Z" fill="white"/>
</svg>
