<svg width="26" height="28" viewBox="0 0 26 28" fill="none" xmlns="http://www.w3.org/2000/svg">
<path d="M0 25.6579C0 25.1056 0.447715 24.6579 1 24.6579H25C25.5523 24.6579 26 25.1056 26 25.6579V26.5C26 27.0523 25.5523 27.5 25 27.5H1C0.447716 27.5 0 27.0523 0 26.5V25.6579ZM14.4444 16.376L22.5124 8.43744C22.9015 8.05452 23.5258 8.0545 23.915 8.43738L24.5316 9.04392C24.9298 9.43571 24.9298 10.0778 24.5316 10.4696L13.7013 21.1258C13.3122 21.5086 12.6878 21.5087 12.2986 21.1258L1.46822 10.4708C1.07007 10.0791 1.06996 9.43715 1.46797 9.0453L2.08508 8.43776C2.47418 8.05469 3.09862 8.05455 3.48789 8.43745L11.5556 16.3732V1.5C11.5556 0.947714 12.0033 0.5 12.5556 0.5H13.4444C13.9967 0.5 14.4444 0.947715 14.4444 1.5V16.376Z" fill="#0078D4"/>
</svg>
