<svg width="27" height="27" viewBox="0 0 27 27" fill="none" xmlns="http://www.w3.org/2000/svg">
<path d="M24.3826 20.8733C23.6594 20.2285 23.0262 19.4894 22.5001 18.6758C21.9258 17.5527 21.5815 16.3262 21.4876 15.0683V11.3633C21.4926 9.38749 20.7759 7.47789 19.4722 5.99326C18.1684 4.50863 16.3675 3.55118 14.4076 3.30078V2.33328C14.4076 2.06773 14.3021 1.81306 14.1143 1.62529C13.9266 1.43752 13.6719 1.33203 13.4063 1.33203C13.1408 1.33203 12.8861 1.43752 12.6984 1.62529C12.5106 1.81306 12.4051 2.06773 12.4051 2.33328V3.31578C10.4628 3.58423 8.68358 4.54747 7.39699 6.02711C6.11041 7.50675 5.40365 9.40251 5.4076 11.3633V15.0683C5.31366 16.3262 4.96943 17.5527 4.3951 18.6758C3.87826 19.4875 3.25524 20.2266 2.5426 20.8733C2.4626 20.9436 2.39848 21.0301 2.35451 21.1271C2.31054 21.2241 2.28773 21.3293 2.2876 21.4358V22.4558C2.2876 22.6547 2.36662 22.8455 2.50727 22.9861C2.64792 23.1268 2.83869 23.2058 3.0376 23.2058H23.8876C24.0865 23.2058 24.2773 23.1268 24.4179 22.9861C24.5586 22.8455 24.6376 22.6547 24.6376 22.4558V21.4358C24.6375 21.3293 24.6147 21.2241 24.5707 21.1271C24.5267 21.0301 24.4626 20.9436 24.3826 20.8733ZM3.8476 21.7058C4.5454 21.0317 5.1598 20.2763 5.6776 19.4558C6.40106 18.0994 6.82317 16.6028 6.9151 15.0683V11.3633C6.88535 10.4843 7.03279 9.60834 7.34863 8.78753C7.66447 7.96673 8.14226 7.21787 8.75353 6.58556C9.36481 5.95324 10.0971 5.45041 10.9067 5.10699C11.7164 4.76357 12.5869 4.58659 13.4663 4.58659C14.3458 4.58659 15.2163 4.76357 16.026 5.10699C16.8356 5.45041 17.5679 5.95324 18.1792 6.58556C18.7904 7.21787 19.2682 7.96673 19.5841 8.78753C19.8999 9.60834 20.0473 10.4843 20.0176 11.3633V15.0683C20.1095 16.6028 20.5316 18.0994 21.2551 19.4558C21.7729 20.2763 22.3873 21.0317 23.0851 21.7058H3.8476Z" fill="black"/>
<path d="M13.5002 25.71C13.9727 25.6991 14.4261 25.5215 14.7802 25.2086C15.1343 24.8956 15.3663 24.4675 15.4352 24H11.4902C11.5611 24.4802 11.804 24.9184 12.1737 25.2329C12.5434 25.5475 13.0149 25.717 13.5002 25.71Z" fill="black"/>
</svg>
