<svg width="24" height="18" viewBox="0 0 24 18" fill="none" xmlns="http://www.w3.org/2000/svg">
<path d="M16.246 11.5C16.0471 11.5 15.8563 11.579 15.7157 11.7197C15.575 11.8603 15.496 12.0511 15.496 12.25C15.496 12.4489 15.575 12.6397 15.7157 12.7803C15.8563 12.921 16.0471 13 16.246 13H19.746C19.9449 13 20.1357 12.921 20.2763 12.7803C20.417 12.6397 20.496 12.4489 20.496 12.25C20.496 12.0511 20.417 11.8603 20.2763 11.7197C20.1357 11.579 19.9449 11.5 19.746 11.5H16.246ZM0 3.75C0 2.75544 0.395088 1.80161 1.09835 1.09835C1.80161 0.395088 2.75544 0 3.75 0H20.246C21.2406 0 22.1944 0.395088 22.8977 1.09835C23.6009 1.80161 23.996 2.75544 23.996 3.75V14.25C23.996 15.2446 23.6009 16.1984 22.8977 16.9017C22.1944 17.6049 21.2406 18 20.246 18H3.751C2.75644 18 1.80261 17.6049 1.09935 16.9017C0.396088 16.1984 0.00100017 15.2446 0.00100017 14.25V3.75H0ZM3.75 1.5C3.15326 1.5 2.58097 1.73705 2.15901 2.15901C1.73705 2.58097 1.5 3.15326 1.5 3.75V4.5H22.496V3.75C22.496 3.15326 22.2589 2.58097 21.837 2.15901C21.415 1.73705 20.8427 1.5 20.246 1.5H3.751H3.75ZM1.5 14.25C1.5 14.8467 1.73705 15.419 2.15901 15.841C2.58097 16.2629 3.15326 16.5 3.75 16.5H20.246C20.8427 16.5 21.415 16.2629 21.837 15.841C22.2589 15.419 22.496 14.8467 22.496 14.25V6H1.501V14.25H1.5Z" fill="black"/>
</svg>
