<svg width="21" height="17" viewBox="0 0 21 17" fill="none" xmlns="http://www.w3.org/2000/svg">
<path opacity="1" fill-rule="evenodd" clip-rule="evenodd" d="M14.7 8.3252V3.75377C14.7 1.86022 13.2897 0.325195 11.55 0.325195H9.45C7.7103 0.325195 6.3 1.86022 6.3 3.75377V6.03948H3.15C1.4103 6.03948 0 7.5745 0 9.46805V15.1823C0 15.8135 0.470101 16.3252 1.05 16.3252H19.95C20.5299 16.3252 21 15.8135 21 15.1823V11.7538C21 9.86022 19.5897 8.3252 17.85 8.3252H14.7ZM11.55 2.03948H9.45C8.58015 2.03948 7.875 2.80699 7.875 3.75377V14.6109H13.125V3.75377C13.125 2.80699 12.4198 2.03948 11.55 2.03948ZM14.7 10.0395V14.6109H19.425V11.7538C19.425 10.807 18.7198 10.0395 17.85 10.0395H14.7ZM3.15 7.75377H6.3V14.6109H1.575V9.46805C1.575 8.52128 2.28015 7.75377 3.15 7.75377Z" fill="black"/>
</svg>
