<svg width="23" height="26" viewBox="0 0 23 26" fill="none" xmlns="http://www.w3.org/2000/svg">
<path d="M11.7004 8.95579e-09C12.7145 -6.97785e-05 13.6902 0.407724 14.4274 1.13973C15.1645 1.87173 15.6072 2.87245 15.6646 3.93659L15.6707 4.17284H22.0842C22.3164 4.17291 22.5398 4.2656 22.7095 4.43216C22.8791 4.59873 22.9822 4.82675 22.9981 5.07017C23.0139 5.31358 22.9412 5.55423 22.7947 5.74349C22.6482 5.93276 22.4388 6.05652 22.2088 6.08978L22.0842 6.09877H21.1118L19.5481 22.8158C19.4698 23.6492 19.1122 24.4262 18.5391 25.0081C17.966 25.59 17.2148 25.9388 16.4196 25.9923L16.2046 26H7.19629C6.39914 26 5.62796 25.702 5.02059 25.1594C4.41321 24.6168 4.00922 23.8648 3.8808 23.0379L3.8527 22.8145L2.2878 6.09877H1.31661C1.09521 6.09876 0.881293 6.01448 0.714433 5.86153C0.547573 5.70858 0.439053 5.4973 0.408942 5.26677L0.400391 5.1358C0.4004 4.9031 0.480581 4.67828 0.626107 4.5029C0.771632 4.32753 0.972657 4.21347 1.192 4.18183L1.31661 4.17284H7.73014C7.73014 3.06613 8.14844 2.00476 8.89301 1.2222C9.63759 0.439637 10.6474 8.95579e-09 11.7004 8.95579e-09ZM19.2708 6.09877H4.12879L5.67659 22.6258C5.71086 22.9945 5.86548 23.3395 6.11421 23.6021C6.36293 23.8647 6.69044 24.0287 7.04115 24.0664L7.19629 24.0741H16.2046C16.9375 24.0741 17.5593 23.5284 17.7011 22.7876L17.7255 22.6258L19.2696 6.09877H19.2708ZM13.8383 9.62963C14.0597 9.62964 14.2736 9.71391 14.4404 9.86686C14.6073 10.0198 14.7158 10.2311 14.7459 10.4616L14.7545 10.5926V19.5802C14.7544 19.8242 14.6662 20.0591 14.5078 20.2374C14.3493 20.4156 14.1323 20.524 13.9007 20.5407C13.6691 20.5573 13.4402 20.4809 13.2601 20.327C13.08 20.173 12.9622 19.9529 12.9306 19.7112L12.9221 19.5802V10.5926C12.9221 10.3372 13.0186 10.0923 13.1904 9.91168C13.3622 9.73108 13.5953 9.62963 13.8383 9.62963ZM9.56258 9.62963C9.78399 9.62964 9.9979 9.71391 10.1648 9.86686C10.3316 10.0198 10.4401 10.2311 10.4703 10.4616L10.4788 10.5926V19.5802C10.4787 19.8242 10.3905 20.0591 10.2321 20.2374C10.0736 20.4156 9.85663 20.524 9.62503 20.5407C9.39343 20.5573 9.16446 20.4809 8.98439 20.327C8.80431 20.173 8.68656 19.9529 8.65491 19.7112L8.64636 19.5802V10.5926C8.64636 10.3372 8.74289 10.0923 8.91472 9.91168C9.08654 9.73108 9.31959 9.62963 9.56258 9.62963ZM11.7004 1.92593C11.1639 1.92595 10.647 2.138 10.2523 2.51998C9.85765 2.90197 9.61406 3.42596 9.56991 3.98795L9.56258 4.17284H13.8383C13.8383 3.57692 13.613 3.00541 13.2121 2.58403C12.8112 2.16265 12.2674 1.92593 11.7004 1.92593Z" fill="#0078D4"/>
</svg>
