<svg width="30" height="30" viewBox="0 0 30 30" fill="none" xmlns="http://www.w3.org/2000/svg">
<path d="M23.9992 5.22054e-07C24.2588 -0.000249501 24.5105 0.0893137 24.7116 0.2535L24.8241 0.358501L29.733 5.6535L29.778 5.7105C29.931 5.9145 30 6.1455 30 6.3705L29.997 9.2505C29.997 10.7415 29.4301 12.1005 28.4972 13.1205V28.875C28.4972 29.1469 28.3987 29.4095 28.2201 29.6144C28.0414 29.8193 27.7946 29.9525 27.5253 29.9895L27.3723 30H2.62972C2.35763 30.0003 2.09465 29.9021 1.88947 29.7233C1.6843 29.5446 1.55085 29.2976 1.51385 29.028L1.50485 28.875L1.50185 13.122C0.615013 12.1514 0.0891335 10.9051 0.0125242 9.5925L0.00202551 9.2505V6.435C-0.0110067 6.22129 0.0390632 6.00847 0.146009 5.823L0.243497 5.6805L0.30349 5.6115L5.17642 0.36C5.3525 0.169936 5.58878 0.046484 5.84534 0.0105005L6.00132 5.22054e-07H23.9992ZM19.6227 12.663L19.6047 12.69C19.0702 13.4072 18.3756 13.9895 17.5762 14.3906C16.7767 14.7917 15.8946 15.0004 15.0003 15C14.1003 15.0009 13.2127 14.7901 12.4093 14.3846C11.6058 13.9792 10.9089 13.3905 10.3748 12.666C9.84122 13.3902 9.14483 13.9788 8.34186 14.3843C7.53889 14.7897 6.65185 15.0006 5.75235 15C5.04893 15 4.37551 14.874 3.75159 14.643L3.75308 27.75H6.00132V17.628C6.00138 17.3559 6.10003 17.0931 6.279 16.8882C6.45797 16.6832 6.70513 16.5501 6.97471 16.5135L7.12619 16.5H13.8694C14.1412 16.5 14.4038 16.5985 14.6087 16.7771C14.8136 16.9558 14.9468 17.2027 14.9838 17.472L14.9943 17.625V27.747H26.2459V14.6415C25.0768 15.076 23.7979 15.1178 22.6029 14.7605C21.4078 14.4033 20.3617 13.6664 19.6227 12.6615V12.663ZM12.743 18.7515H8.25106V27.7485H12.743V18.7515ZM22.8818 16.5015C23.1537 16.5015 23.4163 16.6 23.6211 16.7787C23.826 16.9573 23.9592 17.2042 23.9962 17.4735L24.0067 17.6265V22.8795C24.0067 23.1514 23.9083 23.414 23.7296 23.6189C23.5509 23.8238 23.3041 23.957 23.0348 23.994L22.8818 24.0045H17.631C17.3591 24.0045 17.0965 23.906 16.8916 23.7273C16.6868 23.5487 16.5536 23.3018 16.5166 23.0325L16.5061 22.8795V17.6265C16.5061 17.3546 16.6045 17.092 16.7832 16.8871C16.9619 16.6822 17.2087 16.549 17.478 16.512L17.631 16.5015H22.8818ZM21.757 18.7515H18.7543V21.7545H21.7555L21.757 18.7515ZM9.24844 7.503H2.25326V9.2505L2.26376 9.5055L2.30575 9.8535L2.35525 10.0875L2.43024 10.3455L2.51123 10.5675L2.57122 10.7085C2.61772 10.8105 2.67021 10.9095 2.72571 11.0055L2.88019 11.2485L2.96118 11.3595L3.15466 11.5935L3.36763 11.8095L3.51161 11.937L3.57461 11.988C4.04705 12.363 4.61698 12.621 5.24241 12.7125L5.51238 12.741L5.75235 12.7485C6.6388 12.7487 7.49224 12.4122 8.14012 11.8071C8.78801 11.202 9.182 10.3735 9.24244 9.489L9.25144 9.249V7.5045L9.24844 7.503ZM18.4949 7.503H11.4997V9.2505C11.4997 11.0205 12.8165 12.486 14.5248 12.717L14.7588 12.741L14.9988 12.7485C15.8852 12.7487 16.7387 12.4122 17.3865 11.8071C18.0344 11.202 18.4284 10.3735 18.4889 9.489L18.4979 9.249V7.5045L18.4949 7.503ZM27.7443 7.503H20.7476L20.7491 9.2505C20.7491 11.0205 22.0659 12.486 23.7727 12.717L24.0082 12.741L24.2482 12.7485C25.0941 12.7485 25.8695 12.4485 26.4754 11.9475L26.6104 11.8305L26.7844 11.661L27.0034 11.406C27.0843 11.3025 27.1593 11.196 27.2283 11.082L27.3843 10.803L27.4788 10.596L27.5658 10.3635L27.6108 10.2195L27.6678 9.9915L27.7098 9.756L27.7368 9.5055L27.7458 9.2505L27.7443 7.503ZM10.5938 2.2485H6.49176L3.70659 5.253H9.67139L10.5938 2.2485ZM17.0535 2.2485H12.947L12.0231 5.253H17.9774L17.0535 2.2485ZM23.5073 2.2485H19.4067L20.3306 5.253H26.2939L23.5073 2.2485Z" fill="#0078D4"/>
</svg>
