<svg width="26" height="26" viewBox="0 0 26 26" fill="none" xmlns="http://www.w3.org/2000/svg">
<path d="M13 24.375C9.98316 24.375 7.08989 23.1766 4.95666 21.0433C2.82343 18.9101 1.625 16.0168 1.625 13C1.625 9.98316 2.82343 7.08989 4.95666 4.95666C7.08989 2.82343 9.98316 1.625 13 1.625C16.0168 1.625 18.9101 2.82343 21.0433 4.95666C23.1766 7.08989 24.375 9.98316 24.375 13C24.375 16.0168 23.1766 18.9101 21.0433 21.0433C18.9101 23.1766 16.0168 24.375 13 24.375ZM13 26C16.4478 26 19.7544 24.6304 22.1924 22.1924C24.6304 19.7544 26 16.4478 26 13C26 9.55219 24.6304 6.24558 22.1924 3.80761C19.7544 1.36964 16.4478 0 13 0C9.55219 0 6.24558 1.36964 3.80761 3.80761C1.36964 6.24558 0 9.55219 0 13C0 16.4478 1.36964 19.7544 3.80761 22.1924C6.24558 24.6304 9.55219 26 13 26Z" fill="#2BB04A"/>
<path d="M10.1904 8.21515C10.3233 8.14671 10.4725 8.11627 10.6216 8.12716C10.7706 8.13806 10.9138 8.18987 11.0354 8.2769L16.7229 12.3394C16.8282 12.4146 16.9141 12.5138 16.9733 12.6288C17.0325 12.7439 17.0634 12.8714 17.0634 13.0008C17.0634 13.1302 17.0325 13.2577 16.9733 13.3727C16.9141 13.4878 16.8282 13.587 16.7229 13.6621L11.0354 17.7246C10.9139 17.8116 10.7708 17.8634 10.6218 17.8743C10.4727 17.8852 10.3236 17.8548 10.1908 17.7864C10.0579 17.718 9.94648 17.6144 9.86872 17.4868C9.79096 17.3592 9.74988 17.2127 9.75 17.0633V8.93827C9.74984 8.78891 9.79086 8.64239 9.86855 8.51481C9.94624 8.38724 10.0576 8.28356 10.1904 8.21515Z" fill="#2BB04A"/>
</svg>
