<svg width="40" height="40" viewBox="0 0 40 40" fill="none" xmlns="http://www.w3.org/2000/svg">
<path d="M28 4.63642H34C35.0609 4.63642 36.0783 5.04371 36.8284 5.76869C37.5786 6.49366 38 7.47694 38 8.50222V10.4351M28 35.5628H34C35.0609 35.5628 36.0783 35.1555 36.8284 34.4305C37.5786 33.7056 38 32.7223 38 31.697V29.7641M14.002 20.0996H14M38 20.0996H28M28 20.0996L32 16.2338M28 20.0996L32 23.9654M4.85 34.4572L16.85 37.9364C17.4474 38.1097 18.0784 38.1456 18.6927 38.0412C19.3069 37.9368 19.8874 37.6951 20.3878 37.3352C20.8882 36.9754 21.2946 36.5075 21.5745 35.9688C21.8544 35.4302 22.0001 34.8357 22 34.233V5.96626C22.0001 5.36348 21.8544 4.76903 21.5745 4.23038C21.2946 3.69173 20.8882 3.2238 20.3878 2.86398C19.8874 2.50415 19.3069 2.26239 18.6927 2.15801C18.0784 2.05363 17.4474 2.08952 16.85 2.26282L4.85 5.74204C4.02604 5.98107 3.30377 6.47046 2.79038 7.1376C2.27698 7.80473 1.99981 8.61405 2 9.44547V30.7537C1.99981 31.5852 2.27698 32.3945 2.79038 33.0616C3.30377 33.7288 4.02604 34.2181 4.85 34.4572V34.4572Z" stroke="#38B6FF" stroke-width="3" stroke-linecap="round" stroke-linejoin="round"/>
</svg>
