<svg width="22" height="22" viewBox="0 0 22 22" fill="none" xmlns="http://www.w3.org/2000/svg">
<path d="M14.6046 15.7134L10.2148 11.3213V3.92773H11.7847V10.6707L15.7148 14.6032L14.6046 15.7134Z" fill="black"/>
<path d="M11 5.2293e-07C12.4658 -0.000452786 13.9167 0.293816 15.2665 0.865312C16.6162 1.43681 17.8373 2.27386 18.8571 3.32671V5.2293e-07H20.4286V6.28571H14.1429V4.71429H18.0101C16.5381 3.07956 14.5401 2.01195 12.3629 1.69679C10.1858 1.38162 7.96704 1.83882 6.09185 2.98899C4.21666 4.13916 2.80345 5.90969 2.09757 7.99319C1.39169 10.0767 1.43771 12.3416 2.22764 14.3947C3.01757 16.4478 4.50154 18.1595 6.4219 19.2325C8.34226 20.3056 10.5778 20.6723 12.7403 20.2689C14.9028 19.8656 16.8558 18.7177 18.2603 17.0245C19.6647 15.3313 20.4319 13.1998 20.4286 11H22C22 13.1756 21.3549 15.3023 20.1462 17.1113C18.9375 18.9202 17.2195 20.3301 15.2095 21.1627C13.1995 21.9952 10.9878 22.2131 8.85401 21.7886C6.72022 21.3642 4.76021 20.3165 3.22183 18.7782C1.68345 17.2398 0.635804 15.2798 0.211367 13.146C-0.213071 11.0122 0.00476611 8.80047 0.83733 6.79048C1.66989 4.7805 3.07979 3.06253 4.88873 1.85383C6.69767 0.645139 8.82441 5.2293e-07 11 5.2293e-07Z" fill="black"/>
</svg>
