<svg width="15" height="14" viewBox="0 0 15 14" fill="none" xmlns="http://www.w3.org/2000/svg">
<path d="M6.24888 1.02537C6.8358 0.0814019 8.20967 0.0814029 8.79659 1.02537L10.0561 3.05113C10.2626 3.38326 10.5907 3.6216 10.9703 3.71536L13.2862 4.28724C14.3653 4.55373 14.7899 5.86036 14.0734 6.71025L12.5361 8.53412C12.284 8.83314 12.1587 9.21879 12.1868 9.60887L12.3586 11.9881C12.4386 13.0967 11.3271 13.9043 10.2974 13.4856L8.08777 12.587C7.72548 12.4397 7.31999 12.4397 6.95771 12.587L4.74803 13.4856C3.71835 13.9043 2.60686 13.0967 2.68689 11.9881L2.85863 9.60887C2.88678 9.21879 2.76148 8.83314 2.50942 8.53412L0.972025 6.71025C0.255622 5.86036 0.680173 4.55373 1.75931 4.28724L4.07513 3.71536C4.45481 3.6216 4.78287 3.38326 4.98937 3.05113L6.24888 1.02537Z" fill="#F6C002"/>
</svg>
