<svg width="20" height="20" viewBox="0 0 20 20" fill="none" xmlns="http://www.w3.org/2000/svg">
<path d="M10 10C11.3261 10 12.5979 9.47322 13.5355 8.53553C14.4732 7.59785 15 6.32608 15 5C15 3.67392 14.4732 2.40215 13.5355 1.46447C12.5979 0.526784 11.3261 0 10 0C8.67392 0 7.40215 0.526784 6.46447 1.46447C5.52678 2.40215 5 3.67392 5 5C5 6.32608 5.52678 7.59785 6.46447 8.53553C7.40215 9.47322 8.67392 10 10 10ZM13.3333 5C13.3333 5.88405 12.9821 6.7319 12.357 7.35702C11.7319 7.98214 10.8841 8.33333 10 8.33333C9.11595 8.33333 8.2681 7.98214 7.64298 7.35702C7.01786 6.7319 6.66667 5.88405 6.66667 5C6.66667 4.11595 7.01786 3.2681 7.64298 2.64298C8.2681 2.01786 9.11595 1.66667 10 1.66667C10.8841 1.66667 11.7319 2.01786 12.357 2.64298C12.9821 3.2681 13.3333 4.11595 13.3333 5ZM20 18.3333C20 20 18.3333 20 18.3333 20H1.66667C1.66667 20 0 20 0 18.3333C0 16.6667 1.66667 11.6667 10 11.6667C18.3333 11.6667 20 16.6667 20 18.3333ZM18.3333 18.3267C18.3317 17.9167 18.0767 16.6833 16.9467 15.5533C15.86 14.4667 13.815 13.3333 10 13.3333C6.18333 13.3333 4.14 14.4667 3.05333 15.5533C1.92333 16.6833 1.67 17.9167 1.66667 18.3267H18.3333Z" fill="#344054"/>
</svg>
