<svg width="96" height="110" viewBox="0 0 96 110" fill="none" xmlns="http://www.w3.org/2000/svg">
<path d="M68.4429 68.8809L48 89.376L27.5571 68.8809C12.2357 69.5469 0 82.1146 0 97.6256V99.688C0 105.381 4.60714 110 10.2857 110H85.7143C91.3929 110 96 105.381 96 99.688V97.6256C96 82.1146 83.7643 69.5469 68.4429 68.8809ZM2.91429 17.1491L4.28571 17.4713V30.0176C2.78571 30.9199 1.71429 32.4882 1.71429 34.3787C1.71429 36.1833 2.7 37.6871 4.09286 38.6109L0.75 51.995C0.385714 53.4774 1.2 55.0027 2.37857 55.0027H11.3357C12.5143 55.0027 13.3286 53.4774 12.9643 51.995L9.62143 38.6109C11.0143 37.6871 12 36.1833 12 34.3787C12 32.4882 10.9286 30.9199 9.42857 30.0176V18.7173L23.5714 22.1332C21.7286 25.8283 20.5714 29.9531 20.5714 34.3787C20.5714 49.5674 32.85 61.8773 48 61.8773C63.15 61.8773 75.4286 49.5674 75.4286 34.3787C75.4286 29.9531 74.2929 25.8283 72.4286 22.1332L93.0643 17.1491C96.9643 16.2038 96.9643 11.3271 93.0643 10.3818L52.2643 0.499487C49.4786 -0.166496 46.5429 -0.166496 43.7571 0.499487L2.91429 10.3603C-0.964286 11.3056 -0.964286 16.2038 2.91429 17.1491Z" fill="#000"/>
</svg>
