<svg width="137" height="111" viewBox="0 0 137 111" fill="none" xmlns="http://www.w3.org/2000/svg">
<path d="M34.25 13.875C34.25 6.22207 40.3936 0 47.95 0H123.3C130.856 0 137 6.22207 137 13.875V76.3125C137 83.9654 130.856 90.1875 123.3 90.1875H72.0962C69.5703 84.6592 65.6958 79.8896 60.8794 76.3125H82.2V69.375C82.2 65.5377 85.2611 62.4375 89.05 62.4375H102.75C106.539 62.4375 109.6 65.5377 109.6 69.375V76.3125H123.3V13.875H47.95V24.5197C43.9256 22.1566 39.2377 20.8125 34.25 20.8125V13.875ZM34.25 69.375C22.9047 69.375 13.7 60.0527 13.7 48.5625C13.7 37.0723 22.9047 27.75 34.25 27.75C45.5953 27.75 54.8 37.0723 54.8 48.5625C54.8 60.0527 45.5953 69.375 34.25 69.375ZM28.5345 76.3125H39.9441C55.7205 76.3125 68.5 89.2553 68.5 105.212C68.5 108.398 65.9527 111 62.7845 111H5.71547C2.54734 111 0 108.42 0 105.212C0 89.2553 12.7795 76.3125 28.5345 76.3125Z" fill="#BFDDF4"/>
</svg>
