<svg width="14" height="14" viewBox="0 0 14 14" fill="none" xmlns="http://www.w3.org/2000/svg">
<path d="M7.33238 8.03191V7.99857H1.50021C1.30323 7.99848 1.10817 8.03721 0.926158 8.11254C0.744147 8.18786 0.578759 8.29832 0.439443 8.43758C0.300126 8.57685 0.189611 8.74221 0.11421 8.9242C0.0388091 9.1062 -1.94721e-08 9.30126 0 9.49826V9.88369C0 10.4785 0.213364 11.0546 0.600086 11.5074C1.64357 12.7304 3.23446 13.3345 5.3321 13.3345C5.5708 13.3345 5.80283 13.3258 6.02753 13.3105C6.00832 13.208 5.99872 13.104 5.99886 12.9998V12.3096C5.78483 12.3256 5.5628 12.3336 5.3321 12.3336C3.5065 12.3336 2.19565 11.8362 1.36019 10.8579C1.12788 10.5862 1.00019 10.2405 1.00014 9.88302V9.49826C1.00014 9.36562 1.05283 9.23841 1.14661 9.14462C1.24039 9.05083 1.36759 8.99814 1.50021 8.99814H6.13754C6.24478 8.75317 6.40928 8.53753 6.61721 8.36939C6.82514 8.20124 7.07041 8.08551 7.33238 8.03191ZM5.3321 0C5.7699 -6.52438e-09 6.20341 0.0862396 6.60789 0.253795C7.01236 0.421351 7.37988 0.666941 7.68945 0.976543C7.99903 1.28615 8.24459 1.6537 8.41213 2.05821C8.57967 2.46273 8.6659 2.89628 8.6659 3.33413C8.6659 3.77197 8.57967 4.20553 8.41213 4.61004C8.24459 5.01456 7.99903 5.38211 7.68945 5.69171C7.37988 6.00131 7.01236 6.2469 6.60789 6.41446C6.20341 6.58201 5.7699 6.66825 5.3321 6.66825C4.44791 6.66825 3.59995 6.31698 2.97474 5.69171C2.34953 5.06644 1.99829 4.21839 1.99829 3.33413C1.99829 2.44986 2.34953 1.60181 2.97474 0.976543C3.59995 0.351273 4.44791 0 5.3321 0ZM5.3321 1.00024C5.02563 1.00024 4.72217 1.06061 4.43904 1.17789C4.15591 1.29518 3.89864 1.4671 3.68194 1.68382C3.46524 1.90054 3.29335 2.15783 3.17607 2.44099C3.05879 2.72415 2.99843 3.02764 2.99843 3.33413C2.99843 3.64062 3.05879 3.94411 3.17607 4.22727C3.29335 4.51043 3.46524 4.76771 3.68194 4.98444C3.89864 5.20116 4.15591 5.37307 4.43904 5.49036C4.72217 5.60765 5.02563 5.66802 5.3321 5.66802C5.95102 5.66802 6.5446 5.42213 6.98225 4.98444C7.41989 4.54675 7.66576 3.95311 7.66576 3.33413C7.66576 2.71514 7.41989 2.12151 6.98225 1.68382C6.5446 1.24613 5.95102 1.00024 5.3321 1.00024ZM7.99914 8.6654H7.66576C7.40051 8.6654 7.14612 8.77078 6.95855 8.95836C6.77099 9.14594 6.66562 9.40036 6.66562 9.66564V12.9998C6.66562 13.265 6.77099 13.5195 6.95855 13.707C7.14612 13.8946 7.40051 14 7.66576 14H12.9999C13.2651 14 13.5195 13.8946 13.7071 13.707C13.8946 13.5195 14 13.265 14 12.9998V9.66564C14 9.40036 13.8946 9.14594 13.7071 8.95836C13.5195 8.77078 13.2651 8.6654 12.9999 8.6654H12.6665V7.83187C12.6665 7.52237 12.5435 7.22555 12.3247 7.00671C12.1059 6.78787 11.8091 6.66492 11.4996 6.66492H9.16598C8.85651 6.66492 8.55972 6.78787 8.3409 7.00671C8.12208 7.22555 7.99914 7.52237 7.99914 7.83187V8.6654ZM8.99929 7.83187C8.99929 7.78765 9.01685 7.74525 9.04811 7.71399C9.07937 7.68272 9.12177 7.66516 9.16598 7.66516H11.4996C11.5439 7.66516 11.5863 7.68272 11.6175 7.71399C11.6488 7.74525 11.6663 7.78765 11.6663 7.83187V8.6654H8.99929V7.83187Z" fill="#212121"/>
</svg>
