<svg width="23" height="19" viewBox="0 0 23 19" fill="none" xmlns="http://www.w3.org/2000/svg">
<path d="M4.36231 0C3.41576 0 2.50798 0.367606 1.83867 1.02195C1.16936 1.67629 0.793347 2.56377 0.793347 3.48916V8.35459C1.26073 7.87751 1.79475 7.46742 2.37955 7.13649V3.48916C2.37955 2.97506 2.58845 2.48201 2.96029 2.11849C3.33213 1.75496 3.83645 1.55074 4.36231 1.55074H13.8796C14.4054 1.55074 14.9097 1.75496 15.2816 2.11849C15.6534 2.48201 15.8623 2.97506 15.8623 3.48916V12.7936C15.8623 13.3077 15.6534 13.8007 15.2816 14.1642C14.9097 14.5278 14.4054 14.732 13.8796 14.732H12.9096C12.7848 15.269 12.5949 15.7896 12.3441 16.2827H13.8796C14.8261 16.2827 15.7339 15.9151 16.4032 15.2608C17.0725 14.6064 17.4485 13.719 17.4485 12.7936V11.6305L20.7796 14.0729C21.694 14.7436 23.0002 14.1055 23.0002 12.9874V3.29531C23.0002 2.17723 21.694 1.53911 20.7796 2.2098L17.4485 4.65221V3.48916C17.4485 2.56377 17.0725 1.67629 16.4032 1.02195C15.7339 0.367606 14.8261 0 13.8796 0H4.36231ZM17.4485 6.59063L21.414 3.683V12.5997L17.4485 9.6921V6.59063ZM11.8968 13.1813C11.8971 14.1842 11.632 15.1701 11.1275 16.0433C10.6229 16.9165 9.89585 17.6472 9.01705 18.1646C8.13824 18.6819 7.13751 18.9683 6.11206 18.9959C5.08661 19.0235 4.07129 18.7913 3.16473 18.3219L0.496727 18.988C0.430071 19.0046 0.360142 19.004 0.29381 18.9862C0.227477 18.9684 0.167022 18.934 0.118382 18.8864C0.0697428 18.8389 0.0345919 18.7798 0.0163823 18.7149C-0.0018272 18.6501 -0.002469 18.5817 0.0145199 18.5166L0.691037 15.9036C0.268652 15.1233 0.0335413 14.2592 0.00353022 13.3768C-0.0264808 12.4945 0.149396 11.617 0.517826 10.811C0.886255 10.005 1.43757 9.29153 2.12996 8.72478C2.82235 8.15803 3.63764 7.75284 4.51402 7.53993C5.39041 7.32702 6.30487 7.31198 7.18808 7.49596C8.07129 7.67994 8.90006 8.05809 9.61156 8.60176C10.323 9.14543 10.8986 9.84033 11.2945 10.6338C11.6905 11.4272 11.8964 12.2984 11.8968 13.1813ZM3.76749 11.6305C3.60973 11.6305 3.45843 11.6918 3.34688 11.8008C3.23533 11.9099 3.17266 12.0578 3.17266 12.212C3.17266 12.3663 3.23533 12.5142 3.34688 12.6232C3.45843 12.7323 3.60973 12.7936 3.76749 12.7936H8.12955C8.28731 12.7936 8.43861 12.7323 8.55016 12.6232C8.66171 12.5142 8.72438 12.3663 8.72438 12.212C8.72438 12.0578 8.66171 11.9099 8.55016 11.8008C8.43861 11.6918 8.28731 11.6305 8.12955 11.6305H3.76749ZM3.17266 14.5382C3.17266 14.8592 3.43914 15.1197 3.76749 15.1197H6.54335C6.70111 15.1197 6.8524 15.0584 6.96395 14.9494C7.07551 14.8403 7.13818 14.6924 7.13818 14.5382C7.13818 14.3839 7.07551 14.236 6.96395 14.127C6.8524 14.0179 6.70111 13.9566 6.54335 13.9566H3.76749C3.60973 13.9566 3.45843 14.0179 3.34688 14.127C3.23533 14.236 3.17266 14.3839 3.17266 14.5382Z" fill="#0A033C"/>
</svg>
