<svg width="175" height="121" viewBox="0 0 175 121" fill="none" xmlns="http://www.w3.org/2000/svg">
<path d="M62.4715 121L1.40779 59.9151C0.448644 58.7937 -0.0525474 57.3511 0.00436627 55.8757C0.06128 54.4003 0.672107 53.0007 1.71478 51.9567C2.75746 50.9127 4.15519 50.301 5.62866 50.2441C7.10212 50.1871 8.5428 50.6889 9.6628 51.6493L62.3544 104.41L165.337 1.40963C166.457 0.44923 167.898 -0.0526161 169.371 0.00437198C170.845 0.06136 172.243 0.672985 173.285 1.71702C174.328 2.76106 174.939 4.16062 174.996 5.63601C175.053 7.1114 174.551 8.55397 173.592 9.67543L62.4715 121Z" fill="#2BB04A"/>
</svg>
